SplineFontDB: 3.0
FontName: Twelve-Heavy
FullName: Twelve1 Heavy
FamilyName: Twelve1
Weight: DemiBold
FONDName: Twelve1
ItalicAngle: 0
UnderlinePosition: -205
UnderlineWidth: 102
Ascent: 1638
Descent: 410
UFOAscent: 1475
UFODescent: -299
LayerCount: 2
Layer: 0 0 "Back"  1
Layer: 1 0 "Fore"  0
FSType: 4
OS2Version: 0
OS2_WeightWidthSlopeOnly: 0
OS2_UseTypoMetrics: 0
CreationTime: 1347641120
ModificationTime: 1347654544
PfmFamily: 0
TTFWeight: 600
TTFWidth: 0
LineGap: 9
VLineGap: 0
Panose: 0 0 0 0 0 0 0 0 0 0
OS2TypoAscent: 3146
OS2TypoAOffset: 0
OS2TypoDescent: -1049
OS2TypoDOffset: 0
OS2TypoLinegap: 0
OS2WinAscent: 0
OS2WinAOffset: 0
OS2WinDescent: 0
OS2WinDOffset: 0
HheadAscent: 750
HheadAOffset: 0
HheadDescent: -250
HheadDOffset: 0
OS2SubXSize: 2937
OS2SubYSize: 2726
OS2SubXOff: 0
OS2SubYOff: 588
OS2SupXSize: 2937
OS2SupYSize: 2726
OS2SupXOff: 0
OS2SupYOff: 2001
OS2StrikeYSize: 209
OS2StrikeYPos: 1049
OS2Vendor: 'pyrs'
OS2CodePages: 00000000.00000000
OS2UnicodeRanges: 00000000.00000000.00000000.00000000
DEI: 91125
LangName: 1033 "" "" "" "" "" "" "" "" "" "" "" "" "" "" "" "" "" "" "Twelve1 Heavy" 
PickledData: "(dp1
S'com.typemytype.robofont.compileSettings.autohint'
p2
I1
sS'com.typemytype.robofont.compileSettings.decompose'
p3
I1
sS'com.typemytype.robofont.foreground.layerStrokeColor'
p4
(F0.5
F0
F0.5
F0.69999999999999996
tp5
sS'com.typemytype.robofont.guides'
p6
((dp7
S'angle'
p8
I0
sS'name'
p9
NsS'magnetic'
p10
I5
sS'isGlobal'
p11
I1
sS'y'
I1244
sS'x'
I538
s(dp12
g8
I0
sg9
Nsg10
I5
sg11
I1
sS'y'
I-20
sS'x'
I573
s(dp13
g8
I0
sg9
Nsg10
I5
sg11
I1
sS'y'
I193
sS'x'
I599
s(dp14
g8
I0
sg9
Nsg10
I5
sg11
I1
sS'y'
I868
sS'x'
I433
s(dp15
g8
I0
sg9
Nsg10
I5
sg11
I1
sS'y'
I1006
sS'x'
I134
s(dp16
g8
I0
sg9
Nsg10
I5
sg11
I1
sS'y'
I1460
sS'x'
I514
s(dp17
g8
I0
sg9
Nsg10
I5
sg11
I1
sS'y'
I1017
sS'x'
I163
stp18
sS'com.typemytype.robofont.compileSettings.path'
p19
S'/Users/vern/GitHub/BenchTwelve/BenchTwelve.otf'
p20

StartChar: A
Encoding: 33 65 0
Width: 866
VWidth: 0
Flags: HW
PickledData: "(dp1
S'com.typemytype.robofont.layerData'
p2
(dp3
S'back'
p4
(dp5
S'name'
p6
S'A'
sS'lib'
p7
(dp8
sS'unicodes'
p9
(tsS'width'
p10
I866
sS'contours'
p11
(tsS'components'
p12
(tsS'anchors'
p13
(tsss."
LayerCount: 2
Fore
SplineSet
349 456 m 2
 334 456 331 468 331 481 c 0
 331 484 331 487 332 490 c 2
 423 1157 l 2
 424 1163 426 1166 428 1166 c 0
 430 1166 431 1163 432 1156 c 2
 510 491 l 2
 511 488 511 484 511 481 c 0
 511 468 508 456 502 456 c 2
 349 456 l 2
65 0 m 2
 238 0 l 2
 241.333333333 0 244.567901235 -0.296296296296 247.637860082 -0.296296296296 c 0
 258.382716049 -0.296296296296 267.111111111 3.33333333333 271 36 c 2
 304 263 l 1
 308 283 308 296 319 296 c 2
 507 296 l 2
 518 296 518 284 522 264 c 1
 552 35 l 1
 557.41509434 3.28301886792 565.822356711 -0.307582769669 576.758847908 -0.307582769669 c 0
 579.959772161 -0.307582769669 583.377358491 -3.16413562018e-15 587 0 c 2
 815 0 l 2
 825 0 832 2 832 27 c 0
 832 34 831 62 830 69 c 2
 620 1393 l 2
 613 1434 599 1438 583 1438 c 2
 295 1438 l 2
 279 1438 265 1434 258 1393 c 2
 50 69 l 1
 50 62 49 34 49 27 c 0
 49 2 56 0 65 0 c 2
EndSplineSet
EndChar

StartChar: AE
Encoding: 129 198 1
Width: 866
VWidth: 0
Flags: HW
PickledData: "(dp1
S'com.typemytype.robofont.layerData'
p2
(dp3
s."
LayerCount: 2
Fore
SplineSet
271 36 m 1
 321 263 l 2
 325 283 325 296 336 296 c 2
 511 296 l 1
 511 47 l 2
 511 4 523 0 538 0 c 2
 963 0 l 2
 978 0 990 4 990 47 c 2
 990 165 l 2
 990 208 978 212 963 212 c 2
 773 212 l 1
 773 571 l 2
 773 591 779 608 786 608 c 2
 888 608 l 2
 903 608 914 622 914 665 c 2
 914 779 l 2
 914 822 903 836 888 836 c 2
 786 836 l 2
 779 836 773 853 773 873 c 2
 773 1189 l 2
 773 1209 779 1226 786 1226 c 2
 958 1226 l 2
 973 1226 985 1230 985 1273 c 2
 985 1391 l 2
 985 1434 973 1438 958 1438 c 2
 373 1438 l 2
 357 1438 343 1434 336 1393 c 1
 36 69 l 1
 36 62 35 34 35 27 c 0
 35 2 42 0 51 0 c 2
 238 0 l 2
 241.333333333 0 244.567901235 -0.296296296296 247.637860082 -0.296296296296 c 0
 258.382716049 -0.296296296296 267.111111111 3.33333333333 271 36 c 1
377 456 m 2
 362 456 359 468 359 481 c 0
 359 484 359 487 360 490 c 2
 502 1207 l 2
 503 1213 505 1216 507 1216 c 0
 509 1216 511 1213 511 1206 c 2
 511 481 l 2
 511 468 508 456 502 456 c 2
 377 456 l 2
EndSplineSet
EndChar

StartChar: B
Encoding: 34 66 3
Width: 922
VWidth: 0
Flags: HW
PickledData: "(dp1
S'com.typemytype.robofont.layerData'
p2
(dp3
S'back'
p4
(dp5
S'name'
p6
S'B'
sS'lib'
p7
(dp8
sS'unicodes'
p9
(tsS'width'
p10
I922
sS'contours'
p11
(tsS'components'
p12
(tsS'anchors'
p13
(tsss."
LayerCount: 2
Fore
SplineSet
397 853 m 2
 390 853 384 856 384 876 c 2
 384 1207 l 2
 384 1227 390 1230 397 1230 c 2
 469 1230 l 2
 525 1230 585 1164 585 1029 c 0
 585 929 551 853 496 853 c 2
 397 853 l 2
397 204 m 2
 390 204 384 206 384 226 c 2
 384 629 l 2
 384 649 390 656 397 656 c 2
 490 656 l 2
 562 656 602 551 602 430 c 0
 602 295 536 204 473 204 c 2
 397 204 l 2
149 0 m 2
 537 0 l 2
 709 0 854 96 854 424 c 0
 854 590 826 695 751 757 c 0
 746 761 739 766 739 772 c 0
 739 777 746 783 750 788 c 0
 801 843 820 929 820 1040 c 0
 820 1339 699 1438 553 1438 c 2
 149 1438 l 2
 134 1438 122 1433 122 1390 c 2
 122 48 l 2
 122 5 134 0 149 0 c 2
EndSplineSet
EndChar

StartChar: C
Encoding: 35 67 4
Width: 747
VWidth: 0
Flags: HW
PickledData: "(dp1
S'com.typemytype.robofont.guides'
p2
(tsS'com.typemytype.robofont.layerData'
p3
(dp4
S'back'
p5
(dp6
S'name'
p7
S'C'
sS'lib'
p8
(dp9
sS'unicodes'
p10
(tsS'width'
p11
I747
sS'contours'
p12
((dp13
S'points'
p14
((dp15
S'segmentType'
p16
S'curve'
p17
sS'x'
F476
sS'smooth'
p18
I01
sS'y'
F-34
s(dp19
S'y'
F-34
sS'x'
F748
sg18
I00
s(dp20
S'y'
F92
sS'x'
F873
sg18
I00
s(dp21
g16
S'curve'
p22
sS'x'
F873
sg18
I01
sS'y'
F721
s(dp23
S'y'
F1343
sS'x'
F873
sg18
I00
s(dp24
S'y'
F1468
sS'x'
F738
sg18
I00
s(dp25
g16
S'curve'
p26
sS'x'
F476
sg18
I01
sS'y'
F1468
s(dp27
S'y'
F1468
sS'x'
F215
sg18
I00
s(dp28
S'y'
F1343
sS'x'
F79
sg18
I00
s(dp29
g16
S'curve'
p30
sS'x'
F79
sg18
I01
sS'y'
F721
s(dp31
S'y'
F92
sS'x'
F79
sg18
I00
s(dp32
S'y'
F-34
sS'x'
F205
sg18
I00
stp33
s(dp34
g14
((dp35
g16
S'curve'
p36
sS'x'
F475
sg18
I01
sS'y'
F195
s(dp37
S'y'
F195
sS'x'
F369
sg18
I00
s(dp38
S'y'
F298
sS'x'
F341
sg18
I00
s(dp39
g16
S'curve'
p40
sS'x'
F341
sg18
I01
sS'y'
F721
s(dp41
S'y'
F1144
sS'x'
F341
sg18
I00
s(dp42
S'y'
F1245
sS'x'
F367
sg18
I00
s(dp43
g16
S'curve'
p44
sS'x'
F477
sg18
I01
sS'y'
F1245
s(dp45
S'y'
F1245
sS'x'
F588
sg18
I00
s(dp46
S'y'
F1144
sS'x'
F611
sg18
I00
s(dp47
g16
S'curve'
p48
sS'x'
F611
sg18
I01
sS'y'
F721
s(dp49
S'y'
F298
sS'x'
F611
sg18
I00
s(dp50
S'y'
F195
sS'x'
F582
sg18
I00
stp51
stp52
sS'components'
p53
(tsS'anchors'
p54
(tsss."
LayerCount: 2
Fore
SplineSet
527 -20 m 0
 591 -20 653 -10 690 5 c 1
 699 33 l 1
 699 183 l 1
 690 211 l 1
 654 199 625 193 567 193 c 0
 426 193 348 253 348 719 c 0
 348 1180 441 1244 577 1244 c 0
 637 1244 689 1227 693 1227 c 0
 697 1227 700 1228 700 1243 c 2
 700 1408 l 2
 700 1425 693 1424 690 1429 c 1
 653 1447 581 1460 529 1460 c 0
 294 1460 86 1381 86 719 c 0
 86 56 282 -20 527 -20 c 0
EndSplineSet
EndChar

StartChar: D
Encoding: 36 68 5
Width: 963
VWidth: 0
Flags: HW
PickledData: "(dp1
S'com.typemytype.robofont.layerData'
p2
(dp3
S'back'
p4
(dp5
S'name'
p6
S'D'
sS'lib'
p7
(dp8
sS'unicodes'
p9
(tsS'width'
p10
I963
sS'contours'
p11
(tsS'components'
p12
(tsS'anchors'
p13
(tsss."
LayerCount: 2
Fore
SplineSet
149 0 m 0
 468 0 472 0 483 0 c 0
 722 0 877 18 877 733 c 0
 877 1262 741 1438 524 1438 c 2
 149 1438 l 2
 134 1438 122 1434 122 1391 c 2
 122 47 l 2
 122 4 134 0 149 0 c 0
397 212 m 0
 390 212 384 217 384 237 c 0
 384 441 384 995 384 1199 c 0
 384 1219 390 1226 397 1226 c 0
 419 1226 458 1226 480 1226 c 0
 546 1226 615 1163 615 729 c 0
 615 289 560 212 469 212 c 0
 454.333333333 212 438.777777778 211.555555556 422.333333333 211.555555556 c 0
 414.111111111 211.555555556 405.666666667 211.666666667 397 212 c 0
EndSplineSet
EndChar

StartChar: E
Encoding: 37 69 6
Width: 802
VWidth: 0
Flags: HW
PickledData: "(dp1
S'com.typemytype.robofont.guides'
p2
(tsS'com.typemytype.robofont.layerData'
p3
(dp4
S'back'
p5
(dp6
S'name'
p7
S'E'
sS'lib'
p8
(dp9
sS'unicodes'
p10
(tsS'width'
p11
I802
sS'contours'
p12
(tsS'components'
p13
(tsS'anchors'
p14
(tsss."
LayerCount: 2
Fore
SplineSet
149 0 m 2
 726 0 l 2
 741 0 753 4 753 47 c 2
 753 165 l 2
 753 208 741 212 726 212 c 2
 384 212 l 1
 384 571 l 2
 384 591 390 608 397 608 c 2
 639 608 l 2
 654 608 665 622 665 665 c 2
 665 779 l 2
 665 822 654 836 639 836 c 2
 397 836 l 2
 390 836 384 853 384 873 c 2
 384 1189 l 2
 384 1209 390 1226 397 1226 c 2
 721 1226 l 2
 736 1226 748 1230 748 1273 c 2
 748 1391 l 2
 748 1434 736 1438 721 1438 c 2
 149 1438 l 2
 134 1438 122 1434 122 1391 c 2
 122 47 l 2
 122 4 134 0 149 0 c 2
EndSplineSet
EndChar

StartChar: Eth
Encoding: 139 208 10
Width: 963
VWidth: 0
Flags: HW
PickledData: "(dp1
S'org.robofab.postScriptHintData'
p2
(dp3
sS'com.typemytype.robofont.layerData'
p4
(dp5
s."
LayerCount: 2
Fore
SplineSet
397 212 m 0
 390 212 384 217 384 237 c 2
 384 631 l 1
 422 631 l 2
 463 631 483 646 485 685 c 1
 485 752 l 2
 485 795 465 812 422 812 c 2
 384 812 l 1
 384 1199 l 2
 384 1219 390 1226 397 1226 c 2
 480 1226 l 2
 546 1226 615 1163 615 729 c 0
 615 289 560 212 469 212 c 0
 454.333333333 212 438.777777778 211.555555556 422.333333333 211.555555556 c 0
 414.111111111 211.555555556 405.666666667 211.666666667 397 212 c 0
877 733 m 0
 877 1262 741 1438 524 1438 c 2
 149 1438 l 2
 134 1438 122 1434 122 1391 c 2
 122 812 l 1
 88 812 l 2
 45 812 26 795 26 752 c 2
 26 691 l 2
 26 648 45 631 88 631 c 2
 122 631 l 1
 122 47 l 2
 122 4 134 0 149 0 c 2
 483 0 l 2
 722 0 877 18 877 733 c 0
EndSplineSet
EndChar

StartChar: F
Encoding: 38 70 11
Width: 723
VWidth: 0
Flags: HW
PickledData: "(dp1
S'com.typemytype.robofont.layerData'
p2
(dp3
S'back'
p4
(dp5
S'name'
p6
S'F'
sS'lib'
p7
(dp8
sS'unicodes'
p9
(tsS'width'
p10
I723
sS'contours'
p11
(tsS'components'
p12
(tsS'anchors'
p13
(tsss."
LayerCount: 2
Fore
SplineSet
149 0 m 2
 358 0 l 2
 372 0 384 4 384 47 c 2
 384 543 l 2
 384 563 390 573 397 573 c 2
 609 573 l 2
 624 573 635 577 635 620 c 2
 635 754 l 2
 635 797 624 801 609 801 c 2
 397 801 l 2
 390 801 384 808 384 828 c 2
 384 1199 l 2
 384 1219 390 1226 397 1226 c 2
 676 1226 l 2
 691 1226 703 1230 703 1273 c 2
 703 1391 l 2
 703 1434 691 1438 676 1438 c 2
 149 1438 l 2
 134 1438 122 1433 122 1390 c 2
 122 47 l 2
 122 4 134 0 149 0 c 2
EndSplineSet
EndChar

StartChar: G
Encoding: 39 71 12
Width: 938
VWidth: 0
Flags: HW
PickledData: "(dp1
S'com.typemytype.robofont.layerData'
p2
(dp3
S'back'
p4
(dp5
S'name'
p6
S'G'
sS'lib'
p7
(dp8
sS'unicodes'
p9
(tsS'width'
p10
I938
sS'contours'
p11
((dp12
S'points'
p13
((dp14
S'segmentType'
p15
S'curve'
p16
sS'x'
F514
sS'smooth'
p17
I01
sS'y'
F-20
s(dp18
S'y'
F-20
sS'x'
F578
sg17
I00
s(dp19
S'y'
F-10
sS'x'
F640
sg17
I00
s(dp20
g15
S'curve'
p21
sS'x'
F677
sg17
I00
sS'y'
F5
s(dp22
g15
S'line'
p23
sS'x'
F686
sg17
I00
sS'y'
F33
s(dp24
g15
S'line'
p25
sS'x'
F686
sg17
I00
sS'y'
F186
s(dp26
g15
S'line'
p27
sS'x'
F677
sg17
I00
sS'y'
F214
s(dp28
S'y'
F202
sS'x'
F641
sg17
I00
s(dp29
S'y'
F196
sS'x'
F612
sg17
I00
s(dp30
g15
S'curve'
p31
sS'x'
F554
sg17
I01
sS'y'
F196
s(dp32
S'y'
F196
sS'x'
F413
sg17
I00
s(dp33
S'y'
F253
sS'x'
F335
sg17
I00
s(dp34
g15
S'curve'
p35
sS'x'
F335
sg17
I01
sS'y'
F719
s(dp36
S'y'
F1180
sS'x'
F335
sg17
I00
s(dp37
S'y'
F1245
sS'x'
F428
sg17
I00
s(dp38
g15
S'curve'
p39
sS'x'
F564
sg17
I01
sS'y'
F1245
s(dp40
S'y'
F1245
sS'x'
F624
sg17
I00
s(dp41
S'y'
F1227
sS'x'
F676
sg17
I00
s(dp42
g15
S'curve'
p43
sS'x'
F680
sg17
I01
sS'y'
F1227
s(dp44
S'y'
F1227
sS'x'
F684
sg17
I00
s(dp45
S'y'
F1228
sS'x'
F687
sg17
I00
s(dp46
g15
S'curve'
p47
sS'x'
F687
sg17
I01
sS'y'
F1243
s(dp48
g15
S'line'
p49
sS'x'
F687
sg17
I01
sS'y'
F1408
s(dp50
S'y'
F1425
sS'x'
F687
sg17
I00
s(dp51
S'y'
F1424
sS'x'
F680
sg17
I00
s(dp52
g15
S'curve'
p53
sS'x'
F677
sg17
I00
sS'y'
F1429
s(dp54
S'y'
F1447
sS'x'
F640
sg17
I00
s(dp55
S'y'
F1457
sS'x'
F568
sg17
I00
s(dp56
g15
S'curve'
p57
sS'x'
F516
sg17
I01
sS'y'
F1457
s(dp58
S'y'
F1457
sS'x'
F304
sg17
I00
s(dp59
S'y'
F1381
sS'x'
F73
sg17
I00
s(dp60
g15
S'curve'
p61
sS'x'
F73
sg17
I01
sS'y'
F719
s(dp62
S'y'
F56
sS'x'
F73
sg17
I00
s(dp63
S'y'
F-20
sS'x'
F287
sg17
I00
stp64
stp65
sS'components'
p66
(tsS'anchors'
p67
(tsss."
LayerCount: 2
Fore
SplineSet
355 719 m 0
 355 1160.8379516 452.784460675 1244.02368355 610.89356401 1244.02368355 c 0
 671.433862434 1244.02368355 777.063492063 1214 781 1214 c 0
 785 1214 788 1215 788 1230 c 2
 788 1398 l 2
 788 1415 781 1414 778 1419 c 1
 741 1437 652 1460 600 1460 c 0
 345 1460 93 1391 93 719 c 0
 93 66 296 -20 495 -20 c 0
 626 -20 696 58 715 206 c 1
 717 213 719 216 721 216 c 0
 723 216 726 212 726 204 c 1
 763 49 l 2
 777 -9 810 -21 826 -21 c 0
 840 -21 862 13 862 56 c 2
 862 703 l 2
 862 746 850 780 836 780 c 2
 565 780 l 2
 550 780 538 772 538 729 c 2
 538 609 l 2
 538 566 550 560 565 560 c 2
 630 560 l 2
 635 560 639 547 639 534 c 0
 639 303.355151385 627.846665245 193.590818846 526.416019273 193.590818846 c 0
 417.551091821 193.590818846 355 307.386466952 355 719 c 0
EndSplineSet
EndChar

StartChar: H
Encoding: 40 72 13
Width: 999
VWidth: 0
Flags: HW
PickledData: "(dp1
S'com.typemytype.robofont.layerData'
p2
(dp3
S'back'
p4
(dp5
S'name'
p6
S'H'
sS'lib'
p7
(dp8
sS'unicodes'
p9
(tsS'width'
p10
I999
sS'contours'
p11
(tsS'components'
p12
(tsS'anchors'
p13
(tsss."
LayerCount: 2
Fore
SplineSet
149 0 m 2
 360 0 l 2
 375 0 386 4 386 47 c 2
 386 646 l 2
 386 666 392 669 399 669 c 2
 601 669 l 2
 608 669 614 666 614 646 c 2
 614 47 l 2
 614 4 626 0 641 0 c 2
 851 0 l 2
 866 0 877 4 877 47 c 2
 877 1391 l 2
 877 1434 866 1438 851 1438 c 2
 641 1438 l 2
 626 1438 615 1434 615 1391 c 2
 615 901 l 2
 615 881 609 874 602 874 c 2
 397 874 l 2
 390 874 384 881 384 901 c 2
 384 1391 l 2
 384 1434 373 1438 358 1438 c 2
 149 1438 l 2
 134 1438 122 1434 122 1391 c 2
 122 47 l 2
 122 4 134 0 149 0 c 2
EndSplineSet
EndChar

StartChar: I
Encoding: 41 73 14
Width: 506
VWidth: 0
Flags: HW
PickledData: "(dp1
S'com.typemytype.robofont.layerData'
p2
(dp3
S'back'
p4
(dp5
S'name'
p6
S'I'
sS'lib'
p7
(dp8
sS'unicodes'
p9
(tsS'width'
p10
I506
sS'contours'
p11
(tsS'components'
p12
(tsS'anchors'
p13
(tsss."
LayerCount: 2
Fore
SplineSet
149 0 m 2
 358 0 l 2
 372 0 384 4 384 47 c 2
 384 1391 l 2
 384 1434 372 1438 358 1438 c 2
 149 1438 l 2
 134 1438 122 1434 122 1391 c 2
 122 47 l 2
 122 4 134 0 149 0 c 2
EndSplineSet
EndChar

StartChar: J
Encoding: 42 74 15
Width: 583
VWidth: 0
Flags: HW
PickledData: "(dp1
S'com.typemytype.robofont.layerData'
p2
(dp3
S'back'
p4
(dp5
S'name'
p6
S'J'
sS'lib'
p7
(dp8
sS'unicodes'
p9
(tsS'width'
p10
I583
sS'contours'
p11
(tsS'components'
p12
(tsS'anchors'
p13
(tsss."
LayerCount: 2
Fore
SplineSet
87 -162 m 0
 263 -162 461 -139 461 434 c 2
 461 1401 l 2
 461 1421 454 1438 448 1438 c 2
 211 1438 l 2
 204 1438 199 1421 199 1401 c 2
 199 514 l 2
 199 114 156 109 88 100 c 0
 80 99 74 82 74 61 c 2
 74 -127 l 2
 74 -147 80 -162 87 -162 c 0
EndSplineSet
EndChar

StartChar: K
Encoding: 43 75 16
Width: 894
VWidth: 0
Flags: HW
PickledData: "(dp1
S'com.typemytype.robofont.layerData'
p2
(dp3
S'back'
p4
(dp5
S'name'
p6
S'K'
sS'lib'
p7
(dp8
sS'unicodes'
p9
(tsS'width'
p10
F894.19819111899994
sS'contours'
p11
(tsS'components'
p12
(tsS'anchors'
p13
(tsss."
LayerCount: 2
Fore
SplineSet
149 0 m 2
 358 0 l 2
 372 0 384 4 384 47 c 2
 384 655 l 1
 590 47 l 1
 599 9 615 0 632 0 c 2
 839 0 l 2
 847.59909556 0 856.198191119 12.2222222222 856.198191119 29.9784812314 c 0
 856.198191119 34.9361050655 855.52784828 40.3251349592 854 46 c 2
 655 694 l 2
 651 708 650 720 650 731 c 0
 650 756 657 772 660 782 c 2
 846 1390 l 2
 847.66939799 1396.67759196 848.719487169 1403.35518392 848.719487169 1409.51583944 c 0
 848.719487169 1425.49725749 841.653010051 1438 820 1438 c 2
 622 1438 l 2
 606 1438 589 1427 579 1393 c 2
 384 711 l 1
 384 1391 l 2
 384 1434 372 1438 358 1438 c 2
 149 1438 l 2
 134 1438 122 1434 122 1391 c 2
 122 47 l 2
 122 4 134 0 149 0 c 2
EndSplineSet
EndChar

StartChar: L
Encoding: 44 76 17
Width: 712
VWidth: 0
Flags: HW
PickledData: "(dp1
S'com.typemytype.robofont.layerData'
p2
(dp3
S'back'
p4
(dp5
S'name'
p6
S'L'
sS'lib'
p7
(dp8
sS'unicodes'
p9
(tsS'width'
p10
I712
sS'contours'
p11
(tsS'components'
p12
(tsS'anchors'
p13
(tsss."
LayerCount: 2
Fore
SplineSet
149 0 m 2
 654 0 l 2
 669 0 681 4 681 47 c 2
 681 165 l 2
 681 208 669 212 654 212 c 2
 397 212 l 2
 390 212 384 216 384 236 c 2
 384 1391 l 2
 384 1434 372 1438 358 1438 c 2
 149 1438 l 2
 134 1438 122 1434 122 1391 c 2
 122 47 l 2
 122 4 134 0 149 0 c 2
EndSplineSet
EndChar

StartChar: M
Encoding: 45 77 18
Width: 1124
VWidth: 0
Flags: HW
PickledData: "(dp1
S'com.typemytype.robofont.layerData'
p2
(dp3
S'back'
p4
(dp5
S'name'
p6
S'M'
sS'lib'
p7
(dp8
sS'unicodes'
p9
(tsS'width'
p10
I1124
sS'contours'
p11
(tsS'components'
p12
(tsS'anchors'
p13
(tsss."
LayerCount: 2
Fore
SplineSet
119 0 m 2
 278 0 l 2
 293 0 304 4 304 47 c 1
 334 898 l 2
 334 908 338 912 340 903 c 2
 485 37 l 1
 492.530612245 2.69387755102 504.962099125 -0.106622240733 517.607909969 -0.106622240733 c 0
 520.075385256 -0.106622240733 522.551020408 3.45556916415e-15 525 0 c 2
 593 0 l 2
 595.775510204 0 598.497709288 -0.106622240733 601.14483761 -0.106622240733 c 0
 614.711370262 -0.106622240733 626.306122449 2.69387755102 633 37 c 2
 784 903 l 2
 786 912 791 908 791 898 c 2
 821 47 l 1
 821 4 832 0 847 0 c 2
 1004 0 l 2
 1020 0 1031 4 1031 47 c 1
 981 1387 l 1
 981 1430 969 1438 955 1438 c 2
 741 1438 l 2
 725 1438 709 1437 702 1397 c 1
 568 772 l 2
 566 758 559 758 556 772 c 2
 426 1397 l 2
 418 1437 403 1438 387 1438 c 2
 168 1438 l 2
 153 1438 142 1430 142 1387 c 1
 93 47 l 1
 93 4 105 0 119 0 c 2
EndSplineSet
EndChar

StartChar: N
Encoding: 46 78 19
Width: 1019
VWidth: 0
Flags: HW
PickledData: "(dp1
S'com.typemytype.robofont.layerData'
p2
(dp3
S'back'
p4
(dp5
S'name'
p6
S'N'
sS'lib'
p7
(dp8
sS'unicodes'
p9
(tsS'width'
p10
I1019
sS'contours'
p11
(tsS'components'
p12
(tsS'anchors'
p13
(tsss."
LayerCount: 2
Fore
SplineSet
149 0 m 2
 323 0 l 2
 338 0 350 3 350 46 c 2
 350 918 l 2
 350 933 355 941 359 931 c 2
 671 39 l 2
 682 8 701 -1 716 -1 c 2
 872 -1 l 2
 886 -1 898 2 898 45 c 2
 898 1381 l 2
 898 1424 886 1438 872 1438 c 2
 702 1438 l 2
 688 1438 675 1424 675 1381 c 2
 675 651 l 2
 675 636 669 629 666 638 c 2
 419 1387 l 2
 408 1418 390 1438 374 1438 c 2
 149 1438 l 2
 134 1438 122 1424 122 1381 c 2
 122 46 l 2
 122 3 134 0 149 0 c 2
EndSplineSet
EndChar

StartChar: O
Encoding: 47 79 20
Width: 966
VWidth: 0
Flags: HW
PickledData: "(dp1
S'com.typemytype.robofont.guides'
p2
(tsS'com.typemytype.robofont.layerData'
p3
(dp4
S'back'
p5
(dp6
S'name'
p7
S'O'
sS'lib'
p8
(dp9
sS'unicodes'
p10
(tsS'width'
p11
I966
sS'contours'
p12
(tsS'components'
p13
(tsS'anchors'
p14
(tsss."
LayerCount: 2
Fore
SplineSet
483 -20 m 0
 755 -20 880 98 880 727 c 0
 880 1349 745 1460 483 1460 c 0
 222 1460 86 1349 86 727 c 0
 86 98 212 -20 483 -20 c 0
482 193 m 0
 376 193 348 304 348 727 c 0
 348 1150 374 1244 484 1244 c 0
 595 1244 618 1150 618 727 c 0
 618 304 589 193 482 193 c 0
EndSplineSet
EndChar

StartChar: OE
Encoding: 264 338 21
Width: 1301
VWidth: 0
Flags: HW
PickledData: "(dp1
S'com.typemytype.robofont.layerData'
p2
(dp3
S'back'
p4
(dp5
S'name'
p6
S'OE'
p7
sS'lib'
p8
(dp9
sS'unicodes'
p10
(tsS'width'
p11
I1301
sS'contours'
p12
(tsS'components'
p13
(tsS'anchors'
p14
(tsss."
LayerCount: 2
Fore
SplineSet
525 212 m 0
 436 212 348 354 348 721 c 0
 348 1088 436 1226 525 1226 c 0
 547 1226 580 1226 597 1226 c 0
 604 1226 609 1209 609 1189 c 2
 609 248 l 2
 609 228 604 212 597 212 c 0
 580 212 547 212 525 212 c 0
539 0 m 0
 557 0 542 0 1226 0 c 0
 1241 0 1252 34 1252 77 c 2
 1252 135 l 2
 1252 178 1241 212 1226 212 c 2
 884 212 l 2
 877 212 871 229 871 249 c 2
 871 582 l 2
 871 602 877 619 884 619 c 2
 1134 619 l 2
 1149 619 1161 653 1161 696 c 2
 1161 754 l 2
 1161 797 1149 831 1134 831 c 2
 884 831 l 2
 877 831 871 848 871 868 c 2
 871 1189 l 2
 871 1209 877 1226 884 1226 c 2
 1199 1226 l 2
 1215 1226 1226 1260 1226 1303 c 2
 1226 1361 l 2
 1226 1403 1214 1438 1199 1438 c 0
 541 1438 542 1438 510 1438 c 0
 329 1438 86 1291 86 721 c 0
 86 70 356 0 539 0 c 0
EndSplineSet
EndChar

StartChar: P
Encoding: 48 80 23
Width: 920
VWidth: 0
Flags: HW
PickledData: "(dp1
S'com.typemytype.robofont.layerData'
p2
(dp3
S'back'
p4
(dp5
S'name'
p6
S'P'
sS'lib'
p7
(dp8
sS'unicodes'
p9
(tsS'width'
p10
I920
sS'contours'
p11
(tsS'components'
p12
(tsS'anchors'
p13
(tsss."
LayerCount: 2
Fore
SplineSet
396 682 m 2
 390 682 384 685 384 705 c 2
 384 1199 l 2
 384 1219 390 1226 396 1226 c 2
 474 1226 l 2
 553 1226 600 1201 600 948 c 0
 600 729 592 682 486 682 c 2
 396 682 l 2
149 0 m 2
 357 0 l 2
 372 0 384 14 384 57 c 2
 384 447 l 2
 384 467 390 469 396 469 c 0
 403 469 483 469 521 469 c 0
 690 469 862 537 862 950 c 0
 862 1390 676 1438 490 1438 c 0
 356 1438 283 1438 149 1438 c 0
 134 1438 122 1432 122 1390 c 2
 122 57 l 2
 122 14 134 0 149 0 c 2
EndSplineSet
EndChar

StartChar: Q
Encoding: 49 81 24
Width: 966
VWidth: 0
Flags: HW
PickledData: "(dp1
S'com.typemytype.robofont.layerData'
p2
(dp3
S'back'
p4
(dp5
S'name'
p6
S'Q'
sS'lib'
p7
(dp8
sS'unicodes'
p9
(tsS'width'
p10
I966
sS'contours'
p11
(tsS'components'
p12
(tsS'anchors'
p13
(tsss."
LayerCount: 2
Fore
SplineSet
482 193 m 0
 376 193 348 298 348 721 c 0
 348 1144 374 1244 484 1244 c 0
 595 1244 618 1144 618 721 c 0
 618 298 589 193 482 193 c 0
688.092663938 -360.314856954 m 0
 688.092663938 -320.457326569 644.660315299 -111.37556817 625 -4 c 1
 799 47 880 214 880 721 c 0
 880 1343 745 1460 483 1460 c 0
 222 1460 86 1343 86 721 c 0
 86 149.793375015 189 6 412 -18 c 0
 420 -19 429 -19 437 -20 c 1
 505 -368 l 2
 514.941176471 -417.705882353 534.238754325 -431.155709343 552.607571748 -431.155709343 c 0
 558.259515571 -431.155709343 563.823529412 -429.882352941 569 -428 c 2
 668 -403 l 1
 682.822669786 -397.84428877 688.092663938 -381.474567014 688.092663938 -360.314856954 c 0
EndSplineSet
EndChar

StartChar: R
Encoding: 50 82 25
Width: 964
VWidth: 0
Flags: HW
PickledData: "(dp1
S'com.typemytype.robofont.layerData'
p2
(dp3
S'back'
p4
(dp5
S'name'
p6
S'R'
sS'lib'
p7
(dp8
sS'unicodes'
p9
(tsS'width'
p10
I964
sS'contours'
p11
(tsS'components'
p12
(tsS'anchors'
p13
(tsss."
LayerCount: 2
Fore
SplineSet
396 812 m 2
 390 812 384 829 384 849 c 2
 384 1200 l 2
 384 1220 390 1226 396 1226 c 2
 455 1226 l 2
 569 1226 588 1148 588 1021 c 0
 588 951 578 812 489 812 c 2
 396 812 l 2
149 0 m 2
 357 0 l 2
 372 0 384 4 384 47 c 2
 384 578 l 2
 384 598 390 605 396 605 c 2
 472 605 l 2
 521.532030359 605 562.3217046 599.849193927 575 533 c 0
 592 449 597 132 603 38 c 0
 604.915662651 4.15662650602 609.685585716 -1.95964581216 618.611626357 -1.95964581216 c 0
 623.664102192 -1.95964581216 630.048192771 2.44249065418e-15 638 0 c 2
 848 0 l 2
 858 0 862 21 862 47 c 0
 862 69 858 303 856 363 c 0
 844 618 799 680 712 723 c 0
 711 723 711 725 711 727 c 0
 711 729 711 731 712 732 c 0
 787 759 850 818 850 1032 c 0
 850 1381 714 1438 541 1438 c 0
 149 1438 l 2
 134 1438 122 1434 122 1391 c 2
 122 47 l 2
 122 4 134 0 149 0 c 2
EndSplineSet
EndChar

StartChar: S
Encoding: 51 83 26
Width: 803
VWidth: 0
Flags: HW
PickledData: "(dp1
S'com.typemytype.robofont.layerData'
p2
(dp3
S'back'
p4
(dp5
S'name'
p6
S'S'
sS'lib'
p7
(dp8
sS'unicodes'
p9
(tsS'width'
p10
F803.52470720099996
sS'contours'
p11
((dp12
S'points'
p13
((dp14
S'segmentType'
p15
S'curve'
p16
sS'x'
F434.72162165165122
sS'smooth'
p17
I01
sS'y'
F-20
s(dp18
S'y'
F-20
sS'x'
F650.72162165165128
sg17
I00
s(dp19
S'y'
F153
sS'x'
F828.72162165165128
sg17
I00
s(dp20
g15
S'curve'
p21
sS'x'
F796.72162165165128
sg17
I01
sS'y'
F427
s(dp22
S'y'
F681
sS'x'
F766.72162165165128
sg17
I00
s(dp23
S'y'
F721
sS'x'
F691.72162165165128
sg17
I00
s(dp24
g15
S'curve'
p25
sS'x'
F488.72162165165122
sg17
I01
sS'y'
F865
s(dp26
S'y'
F941
sS'x'
F381.72162165165122
sg17
I00
s(dp27
S'y'
F1027
sS'x'
F343.72162165165122
sg17
I00
s(dp28
g15
S'curve'
p29
sS'x'
F343.72162165165122
sg17
I01
sS'y'
F1085
s(dp30
S'y'
F1217
sS'x'
F343.72162165165122
sg17
I00
s(dp31
S'y'
F1244
sS'x'
F434.72162165165122
sg17
I00
s(dp32
g15
S'curve'
p33
sS'x'
F503.72162165165122
sg17
I01
sS'y'
F1244
s(dp34
S'y'
F1244
sS'x'
F557.72162165165128
sg17
I00
s(dp35
S'y'
F1233
sS'x'
F624.72162165165128
sg17
I00
s(dp36
g15
S'curve'
p37
sS'x'
F695.72162165165128
sg17
I01
sS'y'
F1166
s(dp38
S'y'
F1153
sS'x'
F709.72162165165128
sg17
I00
s(dp39
S'y'
F1166
sS'x'
F722.72162165165128
sg17
I00
s(dp40
g15
S'curve'
p41
sS'x'
F739.72162165165128
sg17
I01
sS'y'
F1203
s(dp42
g15
S'line'
p43
sS'x'
F778.72162165165128
sg17
I01
sS'y'
F1287
s(dp44
S'y'
F1319
sS'x'
F793.72162165165128
sg17
I00
s(dp45
S'y'
F1335
sS'x'
F773.72162165165128
sg17
I00
s(dp46
g15
S'curve'
p47
sS'x'
F760.72162165165128
sg17
I01
sS'y'
F1349
s(dp48
S'y'
F1440
sS'x'
F674.72162165165128
sg17
I00
s(dp49
S'y'
F1460
sS'x'
F547.72162165165128
sg17
I00
s(dp50
g15
S'curve'
p51
sS'x'
F464.72162165165122
sg17
I01
sS'y'
F1460
s(dp52
S'y'
F1460
sS'x'
F304.72162165165122
sg17
I00
s(dp53
S'y'
F1367
sS'x'
F76.721621651651233
sg17
I00
s(dp54
g15
S'curve'
p55
sS'x'
F94.721621651651233
sg17
I01
sS'y'
F1048
s(dp56
S'y'
F839
sS'x'
F105.72162165165123
sg17
I00
s(dp57
S'y'
F751
sS'x'
F183.72162165165122
sg17
I00
s(dp58
g15
S'curve'
p59
sS'x'
F346.72162165165122
sg17
I01
sS'y'
F652
s(dp60
S'y'
F570
sS'x'
F482.72162165165122
sg17
I00
s(dp61
S'y'
F520
sS'x'
F546.72162165165128
sg17
I00
s(dp62
g15
S'curve'
p63
sS'x'
F546.72162165165128
sg17
I01
sS'y'
F380
s(dp64
S'y'
F248
sS'x'
F546.72162165165128
sg17
I00
s(dp65
S'y'
F193
sS'x'
F469.72162165165122
sg17
I00
s(dp66
g15
S'curve'
p67
sS'x'
F388.72162165165122
sg17
I01
sS'y'
F193
s(dp68
S'y'
F193
sS'x'
F305.72162165165122
sg17
I00
s(dp69
S'y'
F214
sS'x'
F219.72162165165122
sg17
I00
s(dp70
g15
S'curve'
p71
sS'x'
F139.72162165165122
sg17
I01
sS'y'
F257
s(dp72
S'y'
F264
sS'x'
F125.72162165165123
sg17
I00
s(dp73
S'y'
F264
sS'x'
F106.72162165165123
sg17
I00
s(dp74
g15
S'curve'
p75
sS'x'
F98.721621651651233
sg17
I01
sS'y'
F225
s(dp76
g15
S'line'
p77
sS'x'
F75.721621651651233
sg17
I01
sS'y'
F124
s(dp78
S'y'
F89
sS'x'
F68.721621651651233
sg17
I00
s(dp79
S'y'
F71
sS'x'
F86.721621651651233
sg17
I00
s(dp80
g15
S'curve'
p81
sS'x'
F99.721621651651233
sg17
I01
sS'y'
F61
s(dp82
S'y'
F5
sS'x'
F173.72162165165122
sg17
I00
s(dp83
S'y'
F-20
sS'x'
F325.72162165165122
sg17
I00
stp84
s(dp85
g13
((dp86
g15
S'line'
p87
sS'x'
F44.721621651651233
sg17
I00
sS'y'
F186
s(dp88
S'y'
F51
sS'x'
F149.72162165165122
sg17
I00
s(dp89
S'y'
F-19
sS'x'
F290.72162165165122
sg17
I00
s(dp90
g15
S'curve'
p91
sS'x'
F423.72162165165122
sg17
I01
sS'y'
F-19
s(dp92
S'y'
F-19
sS'x'
F665.72162165165128
sg17
I00
s(dp93
S'y'
F186
sS'x'
F806.72162165165128
sg17
I00
s(dp94
g15
S'curve'
p95
sS'x'
F806.72162165165128
sg17
I01
sS'y'
F422
s(dp96
S'y'
F623
sS'x'
F806.72162165165128
sg17
I00
s(dp97
S'y'
F739
sS'x'
F728.72162165165128
sg17
I00
s(dp98
g15
S'curve'
p99
sS'x'
F604.72162165165128
sg17
I01
sS'y'
F809
s(dp100
g15
S'line'
p101
sS'x'
F474.72162165165122
sg17
I01
sS'y'
F884
s(dp102
S'y'
F934
sS'x'
F385.72162165165122
sg17
I00
s(dp103
S'y'
F964
sS'x'
F318.72162165165122
sg17
I00
s(dp104
g15
S'curve'
p105
sS'x'
F318.72162165165122
sg17
I01
sS'y'
F1052
s(dp106
S'y'
F1133
sS'x'
F318.72162165165122
sg17
I00
s(dp107
S'y'
F1181
sS'x'
F369.72162165165122
sg17
I00
s(dp108
g15
S'curve'
p109
sS'x'
F448.72162165165122
sg17
I01
sS'y'
F1181
s(dp110
S'y'
F1181
sS'x'
F529.72162165165128
sg17
I00
s(dp111
S'y'
F1139
sS'x'
F593.72162165165128
sg17
I00
s(dp112
g15
S'curve'
p113
sS'x'
F660.72162165165128
sg17
I00
sS'y'
F1067
s(dp114
g15
S'line'
p115
sS'x'
F776.72162165165128
sg17
I00
sS'y'
F1270
s(dp116
S'y'
F1393
sS'x'
F689.72162165165128
sg17
I00
s(dp117
S'y'
F1458
sS'x'
F565.72162165165128
sg17
I00
s(dp118
g15
S'curve'
p119
sS'x'
F448.72162165165122
sg17
I01
sS'y'
F1458
s(dp120
S'y'
F1458
sS'x'
F236.72162165165122
sg17
I00
s(dp121
S'y'
F1270
sS'x'
F85.721621651651233
sg17
I00
s(dp122
g15
S'curve'
p123
sS'x'
F85.721621651651233
sg17
I01
sS'y'
F1034
s(dp124
S'y'
F827
sS'x'
F85.721621651651233
sg17
I00
s(dp125
S'y'
F704
sS'x'
F185.72162165165122
sg17
I00
s(dp126
g15
S'curve'
p127
sS'x'
F291.72162165165122
sg17
I01
sS'y'
F645
s(dp128
g15
S'line'
p129
sS'x'
F423.72162165165122
sg17
I01
sS'y'
F567
s(dp130
S'y'
F514
sS'x'
F512.72162165165128
sg17
I00
s(dp131
S'y'
F486
sS'x'
F570.72162165165128
sg17
I00
s(dp132
g15
S'curve'
p133
sS'x'
F570.72162165165128
sg17
I01
sS'y'
F396
s(dp134
S'y'
F311
sS'x'
F570.72162165165128
sg17
I00
s(dp135
S'y'
F259
sS'x'
F523.72162165165128
sg17
I00
s(dp136
g15
S'curve'
p137
sS'x'
F427.72162165165122
sg17
I01
sS'y'
F259
s(dp138
S'y'
F259
sS'x'
F343.72162165165122
sg17
I00
s(dp139
S'y'
F320
sS'x'
F249.72162165165122
sg17
I00
s(dp140
g15
S'curve'
p141
sS'x'
F177.72162165165122
sg17
I00
sS'y'
F407
stp142
stp143
sS'components'
p144
(tsS'anchors'
p145
(tsss."
LayerCount: 2
Fore
SplineSet
414.16098746 1462 m 0
 209.807577616 1462 79.1937497095 1269.1348745 79.1937497095 1022.17727034 c 0
 79.1937497095 836.90024475 160.181245826 733.339492345 272.16098746 659 c 2
 393.16098746 579 l 2
 475.16098746 525 526.16098746 467 526.16098746 377 c 0
 526.16098746 292 482.16098746 210 394.16098746 210 c 0
 316.16098746 210 231.16098746 273 162.16098746 348 c 0
 155.947279819 354.335545046 148.976510164 357.167822739 141.588694821 357.167822739 c 0
 96.9180509734 357.167822739 37 253.618278336 37 194.851024395 c 0
 37 183.565798707 39.2095680447 173.931987182 44.1609874602 167 c 0
 140.16098746 31 269.16098746 -20 391.16098746 -20 c 0
 620.104333647 -20 756.524707201 165.742799377 756.524707201 417.84584643 c 0
 756.524707201 608.250643542 664.19303043 735.436464843 554.16098746 803 c 1
 434.16098746 878 l 2
 352.16098746 929 302.16098746 983 302.16098746 1071 c 0
 302.16098746 1152 354.16098746 1235 427.16098746 1235 c 0
 501.16098746 1235 575.16098746 1194 636.16098746 1122 c 0
 638.51967058 1118.88653828 641.732889798 1117.44654309 645.578091504 1117.44654309 c 0
 675.85412118 1117.44654309 745.310169295 1206.71964675 745.310169295 1271.30047105 c 0
 745.310169295 1285.45247856 741.974837819 1298.41874431 734.16098746 1309 c 0
 642.16098746 1430 522.16098746 1462 414.16098746 1462 c 0
EndSplineSet
EndChar

StartChar: T
Encoding: 52 84 27
Width: 713
VWidth: 0
Flags: HW
PickledData: "(dp1
S'com.typemytype.robofont.layerData'
p2
(dp3
S'back'
p4
(dp5
S'name'
p6
S'T'
sS'lib'
p7
(dp8
sS'unicodes'
p9
(tsS'width'
p10
I713
sS'contours'
p11
(tsS'components'
p12
(tsS'anchors'
p13
(tsss."
LayerCount: 2
Fore
SplineSet
254 0 m 2
 463 0 l 2
 478 0 490 5 490 48 c 2
 490 1201 l 2
 490 1221 495 1226 502 1226 c 2
 669 1226 l 2
 683 1226 695 1228 695 1271 c 2
 695 1388 l 2
 695 1431 683 1438 669 1438 c 2
 45 1438 l 2
 29 1438 18 1431 18 1388 c 2
 18 1271 l 2
 18 1228 29 1226 45 1226 c 2
 215 1226 l 2
 222 1226 228 1221 228 1201 c 2
 228 48 l 2
 228 5 240 0 254 0 c 2
EndSplineSet
EndChar

StartChar: Thorn
Encoding: 153 222 28
Width: 920
VWidth: 0
Flags: HW
PickledData: "(dp1
S'com.typemytype.robofont.layerData'
p2
(dp3
s."
LayerCount: 2
Fore
SplineSet
396 528 m 2
 390 528 384 531 384 551 c 2
 384 1005 l 2
 384 1025 390 1032 396 1032 c 2
 474 1032 l 2
 553 1032 600 1027 600 774 c 0
 600 555 592 528 486 528 c 2
 396 528 l 2
357 0 m 2
 372 0 384 14 384 57 c 2
 384 293 l 2
 384 313 390 315 396 315 c 2
 521 315 l 2
 690 315 862 363 862 776 c 0
 862 1216 676 1244 490 1244 c 2
 384 1244 l 1
 384 1403 l 2
 384 1446 372 1460 357 1460 c 2
 149 1460 l 2
 134 1460 122 1446 122 1403 c 2
 122 57 l 2
 122 14 134 0 149 0 c 2
 357 0 l 2
EndSplineSet
EndChar

StartChar: U
Encoding: 53 85 29
Width: 980
VWidth: 0
Flags: HW
PickledData: "(dp1
S'com.typemytype.robofont.layerData'
p2
(dp3
S'back'
p4
(dp5
S'name'
p6
S'U'
sS'lib'
p7
(dp8
sS'unicodes'
p9
(tsS'width'
p10
I980
sS'contours'
p11
((dp12
S'points'
p13
((dp14
S'segmentType'
p15
S'curve'
p16
sS'x'
F483
sS'smooth'
p17
I01
sS'y'
F-34
s(dp18
S'y'
F-34
sS'x'
F755
sg17
I00
s(dp19
S'y'
F92
sS'x'
F892
sg17
I00
s(dp20
g15
S'curve'
p21
sS'x'
F892
sg17
I01
sS'y'
F721
s(dp22
S'y'
F1343
sS'x'
F892
sg17
I00
s(dp23
S'y'
F1468
sS'x'
F745
sg17
I00
s(dp24
g15
S'curve'
p25
sS'x'
F483
sg17
I01
sS'y'
F1468
s(dp26
S'y'
F1468
sS'x'
F222
sg17
I00
s(dp27
S'y'
F1343
sS'x'
F74
sg17
I00
s(dp28
g15
S'curve'
p29
sS'x'
F74
sg17
I01
sS'y'
F721
s(dp30
S'y'
F92
sS'x'
F74
sg17
I00
s(dp31
S'y'
F-34
sS'x'
F212
sg17
I00
stp32
s(dp33
g13
((dp34
g15
S'curve'
p35
sS'x'
F482
sg17
I01
sS'y'
F195
s(dp36
S'y'
F195
sS'x'
F376
sg17
I00
s(dp37
S'y'
F298
sS'x'
F348
sg17
I00
s(dp38
g15
S'curve'
p39
sS'x'
F348
sg17
I01
sS'y'
F721
s(dp40
S'y'
F1144
sS'x'
F348
sg17
I00
s(dp41
S'y'
F1245
sS'x'
F374
sg17
I00
s(dp42
g15
S'curve'
p43
sS'x'
F484
sg17
I01
sS'y'
F1245
s(dp44
S'y'
F1245
sS'x'
F595
sg17
I00
s(dp45
S'y'
F1144
sS'x'
F618
sg17
I00
s(dp46
g15
S'curve'
p47
sS'x'
F618
sg17
I01
sS'y'
F721
s(dp48
S'y'
F298
sS'x'
F618
sg17
I00
s(dp49
S'y'
F195
sS'x'
F589
sg17
I00
stp50
stp51
sS'components'
p52
(tsS'anchors'
p53
(tsss."
LayerCount: 2
Fore
SplineSet
490 -20 m 0
 705 -20 879 22 879 565 c 2
 879 1391 l 2
 879 1434 868 1438 853 1438 c 2
 643 1438 l 2
 629 1438 617 1434 617 1391 c 2
 617 575 l 2
 617 221 585 192 489 192 c 0
 393 192 363 236 363 575 c 2
 363 1391 l 2
 363 1434 351 1438 337 1438 c 2
 128 1438 l 2
 113 1438 101 1434 101 1391 c 2
 101 565 l 2
 101 33 262 -20 490 -20 c 0
EndSplineSet
EndChar

StartChar: V
Encoding: 54 86 30
Width: 845
VWidth: 0
Flags: HW
PickledData: "(dp1
S'com.typemytype.robofont.layerData'
p2
(dp3
S'back'
p4
(dp5
S'name'
p6
S'V'
sS'lib'
p7
(dp8
sS'unicodes'
p9
(tsS'width'
p10
F845.14610163999998
sS'contours'
p11
(tsS'components'
p12
(tsS'anchors'
p13
(tsss."
LayerCount: 2
Fore
SplineSet
322.51371758 0 m 2
 528.51371758 0 l 2
 545.51371758 0 560.51371758 27 567.51371758 67 c 2
 809.51371758 1371 l 2
 810.627784359 1377.68440068 811.14610164 1384.71632189 811.14610164 1391.60904685 c 0
 811.14610164 1415.65129405 804.83995731 1438 795.51371758 1438 c 2
 627 1438 l 2
 610 1438 594 1411 587 1371 c 2
 447 573 l 1
 296.51371758 1371 l 2
 289 1411 274.51371758 1438 257.51371758 1438 c 2
 50.5137175798 1438 l 2
 40.9996792789 1438 34 1414.74217905 34 1390.15476951 c 0
 34 1383.73022543 34.4779002052 1377.21490425 35.5137175798 1371 c 2
 283.51371758 67 l 2
 290.51371758 27 305.51371758 0 322.51371758 0 c 2
EndSplineSet
EndChar

StartChar: W
Encoding: 55 87 31
Width: 1112
VWidth: 0
Flags: HW
PickledData: "(dp1
S'com.typemytype.robofont.layerData'
p2
(dp3
S'back'
p4
(dp5
S'name'
p6
S'W'
sS'lib'
p7
(dp8
sS'unicodes'
p9
(tsS'width'
p10
F1112.40621244
sS'contours'
p11
(tsS'components'
p12
(tsS'anchors'
p13
(tsss."
LayerCount: 2
Fore
SplineSet
259.489242243 0 m 2
 410.992828162 0 l 1
 424.992828162 3 440.992828162 31 444.992828162 70 c 1
 548.992828162 830 l 1
 652.992828162 71 l 2
 657.992828162 29 672.992828162 0 687.992828162 0 c 2
 854.489242243 0 l 2
 870.489242243 0 884.489242243 28 890.489242243 70 c 2
 1066.49641408 1368 l 2
 1067.81175564 1375.23437859 1068.40621244 1382.66099311 1068.40621244 1389.84788138 c 0
 1068.40621244 1415.44436352 1060.86573096 1438 1051.49641408 1438 c 2
 895.496414081 1438 l 2
 879.496414081 1438 865.496414081 1410 859.496414081 1368 c 2
 770.489242243 668 l 1
 674.496414081 1367 l 2
 668.496414081 1407 655.496414081 1435 640.496414081 1438 c 1
 501.496414081 1438 l 2
 485.496414081 1438 470.496414081 1410 464.496414081 1368 c 2
 366.489242243 680 l 1
 284.496414081 1366 l 2
 279.496414081 1409 265.496414081 1438 249.496414081 1438 c 2
 66.4964140806 1438 l 2
 55.344740275 1438 48 1414.52390989 48 1388.29316919 c 0
 48 1381.59339414 48.4791547255 1374.71391174 49.4964140806 1368 c 2
 222.489242243 70 l 2
 228.489242243 28 244.489242243 0 259.489242243 0 c 2
EndSplineSet
EndChar

StartChar: X
Encoding: 56 88 32
Width: 832
VWidth: 0
Flags: HW
PickledData: "(dp1
S'com.typemytype.robofont.layerData'
p2
(dp3
S'back'
p4
(dp5
S'name'
p6
S'X'
sS'lib'
p7
(dp8
sS'unicodes'
p9
(tsS'width'
p10
I832
sS'contours'
p11
(tsS'components'
p12
(tsS'anchors'
p13
(tsss."
LayerCount: 2
Fore
SplineSet
54 0 m 2
 221 0 l 2
 237 0 254 20 266 51 c 2
 388 367 l 1
 494 55 l 2
 505 21 522 0 539 0 c 2
 803 0 l 2
 810 0 814 16 814 33 c 0
 814 40 813 48 811 55 c 2
 562 818 l 1
 781 1387 l 2
 784 1393 785 1401 785 1408 c 0
 785 1423 781 1438 775 1438 c 2
 607 1438 l 2
 591 1438 573 1418 561 1387 c 2
 461 1126 l 1
 377 1383 l 2
 366 1416 349 1438 333 1438 c 2
 54 1438 l 2
 48 1438 43 1422 43 1406 c 0
 43 1398 45 1390 46 1383 c 1
 286 671 l 1
 48 51 l 2
 45 45 44 37 44 30 c 0
 44 15 48 0 54 0 c 2
EndSplineSet
EndChar

StartChar: Y
Encoding: 57 89 33
Width: 800
VWidth: 0
Flags: HW
PickledData: "(dp1
S'com.typemytype.robofont.layerData'
p2
(dp3
S'back'
p4
(dp5
S'name'
p6
S'Y'
sS'lib'
p7
(dp8
sS'unicodes'
p9
(tsS'width'
p10
I800
sS'contours'
p11
(tsS'components'
p12
(tsS'anchors'
p13
(tsss."
LayerCount: 2
Fore
SplineSet
299 0 m 2
 508 0 l 2
 522 0 535 7 535 50 c 2
 535 433 l 1
 771 1376 l 2
 772 1383 774 1391 774 1399 c 0
 774 1419 768 1438 760 1438 c 2
 579 1438 l 2
 564 1438 547 1413 538 1375 c 2
 422 890 l 1
 303 1376 l 2
 293 1414 277 1438 260 1438 c 2
 42 1438 l 2
 34 1438 29 1419 29 1400 c 0
 29 1392 30 1384 32 1377 c 2
 273 430 l 1
 273 50 l 2
 273 7 284 0 299 0 c 2
EndSplineSet
EndChar

StartChar: Z
Encoding: 58 90 34
Width: 770
VWidth: 0
Flags: HW
PickledData: "(dp1
S'com.typemytype.robofont.layerData'
p2
(dp3
S'back'
p4
(dp5
S'name'
p6
S'Z'
sS'lib'
p7
(dp8
sS'unicodes'
p9
(tsS'width'
p10
I770
sS'contours'
p11
((dp12
S'points'
p13
((dp14
S'segmentType'
p15
S'curve'
p16
sS'x'
F444
sS'smooth'
p17
I01
sS'y'
F215
s(dp18
S'y'
F215
sS'x'
F422
sg17
I00
s(dp19
S'y'
F216
sS'x'
F398
sg17
I00
s(dp20
g15
S'curve'
p21
sS'x'
F372
sg17
I01
sS'y'
F217
s(dp22
S'y'
F217
sS'x'
F365
sg17
I00
s(dp23
S'y'
F221
sS'x'
F359
sg17
I00
s(dp24
g15
S'curve'
p25
sS'x'
F359
sg17
I01
sS'y'
F241
s(dp26
S'y'
F445
sS'x'
F359
sg17
I00
s(dp27
S'y'
F994
sS'x'
F359
sg17
I00
s(dp28
g15
S'curve'
p29
sS'x'
F359
sg17
I01
sS'y'
F1198
s(dp30
S'y'
F1218
sS'x'
F359
sg17
I00
s(dp31
S'y'
F1225
sS'x'
F365
sg17
I00
s(dp32
g15
S'curve'
p33
sS'x'
F372
sg17
I01
sS'y'
F1225
s(dp34
S'y'
F1225
sS'x'
F394
sg17
I00
s(dp35
S'y'
F1225
sS'x'
F433
sg17
I00
s(dp36
g15
S'curve'
p37
sS'x'
F455
sg17
I01
sS'y'
F1225
s(dp38
S'y'
F1225
sS'x'
F521
sg17
I00
s(dp39
S'y'
F1163
sS'x'
F590
sg17
I00
s(dp40
g15
S'curve'
p41
sS'x'
F590
sg17
I01
sS'y'
F729
s(dp42
S'y'
F289
sS'x'
F590
sg17
I00
s(dp43
S'y'
F215
sS'x'
F535
sg17
I00
stp44
s(dp45
g13
((dp46
g15
S'curve'
p47
sS'x'
F130
sg17
I01
sS'y'
F0
s(dp48
S'y'
F0
sS'x'
F449
sg17
I00
s(dp49
S'y'
F0
sS'x'
F460
sg17
I00
s(dp50
g15
S'curve'
p51
sS'x'
F471
sg17
I01
sS'y'
F0
s(dp52
S'y'
F0
sS'x'
F710
sg17
I00
s(dp53
S'y'
F18
sS'x'
F865
sg17
I00
s(dp54
g15
S'curve'
p55
sS'x'
F865
sg17
I01
sS'y'
F733
s(dp56
S'y'
F1262
sS'x'
F865
sg17
I00
s(dp57
S'y'
F1438
sS'x'
F729
sg17
I00
s(dp58
g15
S'curve'
p59
sS'x'
F512
sg17
I01
sS'y'
F1438
s(dp60
g15
S'line'
p61
sS'x'
F130
sg17
I01
sS'y'
F1438
s(dp62
S'y'
F1438
sS'x'
F115
sg17
I00
s(dp63
S'y'
F1434
sS'x'
F103
sg17
I00
s(dp64
g15
S'curve'
p65
sS'x'
F103
sg17
I01
sS'y'
F1391
s(dp66
g15
S'line'
p67
sS'x'
F103
sg17
I01
sS'y'
F47
s(dp68
S'y'
F4
sS'x'
F103
sg17
I00
s(dp69
S'y'
F0
sS'x'
F115
sg17
I00
stp70
stp71
sS'components'
p72
(tsS'anchors'
p73
(tsss."
LayerCount: 2
Fore
SplineSet
110 0 m 2
 692 0 l 2
 707 0 719 4 719 47 c 2
 719 175 l 2
 719 218 707 212 692 212 c 2
 395 212 l 2
 392 212 390 219 390 226 c 0
 390 230 390 233 391 236 c 2
 684 1210 l 2
 693 1242 704 1277 704 1324 c 2
 704 1391 l 2
 704 1434 692 1438 678 1438 c 2
 122 1438 l 2
 108 1438 96 1434 96 1391 c 2
 96 1273 l 2
 96 1230 108 1226 122 1226 c 2
 384 1226 l 2
 386 1226 388 1219 388 1212 c 0
 388 1208 388 1205 386 1202 c 1
 105 248 l 2
 96 216 84 185 84 138 c 2
 84 47 l 2
 84 4 96 0 110 0 c 2
EndSplineSet
EndChar

StartChar: a
Encoding: 65 97 35
Width: 766
VWidth: 0
Flags: HW
PickledData: "(dp1
S'com.typemytype.robofont.layerData'
p2
(dp3
S'back'
p4
(dp5
S'name'
p6
S'a'
sS'lib'
p7
(dp8
sS'unicodes'
p9
(tsS'width'
p10
F766
sS'contours'
p11
(tsS'components'
p12
(tsS'anchors'
p13
(tsss."
LayerCount: 2
Fore
SplineSet
329 144 m 0
 285 144 272 189 272 250 c 0
 272 381 352 440 455 476 c 0
 457 477 462 478 463 478 c 0
 473 478 473 407 473 393 c 0
 473 278 402 144 329 144 c 0
287 -12 m 0
 412 -12 471 78 500 189 c 0
 501 193 503 194 506 194 c 0
 513.425039907 194 564.521273519 60.0881538092 570 46 c 0
 582 13 595 0 608 0 c 2
 654 0 l 2
 667 0 676 18 676 53 c 2
 676 578 l 2
 676 927 556 1017 396 1017 c 0
 230 1017 143 948 111 816 c 0
 108.457664734 805.467468185 107.234404694 793.483953622 107.234404694 782.396928335 c 0
 107.234404694 762.957225676 110.995098275 746.273618495 118 745 c 2
 118 745 261 706 263 706 c 0
 270 706 277 710 282 730 c 0
 300 804 330 842 378 842 c 0
 443 842 468 787 468 668 c 0
 468 662 468 626 468 619 c 0
 468 574 81 646 81 238 c 0
 81 62 165 -12 287 -12 c 0
EndSplineSet
EndChar

StartChar: acute
Encoding: 113 180 36
Width: 598
VWidth: 0
Flags: HW
LayerCount: 2
Fore
SplineSet
353 1171 m 0
 366 1171 384 1171 404 1171 c 0
 417 1171 420 1193 423 1210 c 2
 486 1557 l 2
 488 1569 490 1583 490 1594 c 0
 490 1610 486 1622 480 1622 c 2
 386 1622 l 2
 371 1622 363 1610 360 1567 c 2
 340 1238 l 2
 339 1224 338 1212 338 1203 c 0
 338 1176 343 1171 353 1171 c 0
EndSplineSet
EndChar

StartChar: ae
Encoding: 161 230 37
Width: 1069
VWidth: 0
Flags: HW
PickledData: "(dp1
S'com.typemytype.robofont.layerData'
p2
(dp3
s."
LayerCount: 2
Fore
SplineSet
994 455 m 2
 1007.51157063 455 1007 499.913546731 1007 520 c 0
 1007 936 877 1018 756 1018 c 0
 690 1018 617 971 579 876 c 1
 538 985 456 1017 379 1017 c 0
 253 1017 143 948 111 816 c 0
 108.457664734 805.467468185 107.234404694 793.483953622 107.234404694 782.396928335 c 0
 107.234404694 762.957225676 110.995098275 746.273618495 118 745 c 2
 118 745 261 706 263 706 c 0
 270 706 277 710 282 730 c 0
 300 804 330 842 378 842 c 0
 443 842 457 787 457 668 c 2
 457 619 l 2
 457 574 81 646 81 238 c 0
 81 62 165 -12 287 -12 c 0
 405 -12 501 72 554 219 c 1
 588 70 669 -10 770 -10 c 0
 943 -10 1000 94 1000 234 c 0
 1000 265 996 287 994 297 c 0
 992 307 986 314 970 314 c 2
 885 314 l 2
 872 314 864 308 862 290 c 0
 856 237 847 165 775 165 c 0
 719 165 665 199 665 421 c 0
 665 437 668 455 674 455 c 2
 994 455 l 2
329 144 m 0
 285 144 272 189 272 250 c 0
 272 381 341 440 444 476 c 0
 446 477 451 478 452 478 c 0
 462 478 462 407 462 393 c 0
 462 278 402 144 329 144 c 0
670 590 m 2
 665 590 665 618 665 632 c 0
 667 763 706 843 754 843 c 0
 802 843 835 759 838 627 c 0
 838 614 838 590 834 590 c 2
 670 590 l 2
EndSplineSet
EndChar

StartChar: ampersand
Encoding: 6 38 38
Width: 1264
VWidth: 0
Flags: HW
PickledData: "(dp1
S'org.robofab.postScriptHintData'
p2
(dp3
sS'com.typemytype.robofont.guides'
p4
(tsS'com.typemytype.robofont.layerData'
p5
(dp6
S'back'
p7
(dp8
S'name'
p9
S'ampersand'
p10
sS'lib'
p11
(dp12
sS'unicodes'
p13
(tsS'width'
p14
F1264.05815575
sS'contours'
p15
(tsS'components'
p16
(tsS'anchors'
p17
(tsss."
LayerCount: 2
Fore
SplineSet
532 194 m 0
 451 194 362 255 362 407 c 0
 362 501 407 636 499 637 c 0
 548.333333333 637 601.222222222 637.444444444 652.62962963 637.444444444 c 0
 678.333333333 637.444444444 703.666666667 637.333333333 728 637 c 0
 736 637 743 629 743 609 c 2
 743 475 l 2
 743 434 745 343 747 307 c 1
 731 284 687 194 532 194 c 0
287 737 m 1
 197.940555556 710.174866131 99.7460562223 583.408037477 99.7460562223 395.408968275 c 0
 99.7460562223 92.2307732275 268.69971283 -20.2991146204 487.283286598 -20.2991146204 c 0
 493.812304718 -20.2991146204 500.385602497 -20.1987158048 507 -20 c 0
 684 -15 737 79 787 121 c 1
 842 18 983 -21 1062 -21 c 0
 1114 -21 1162 -5 1202 18 c 0
 1219 28 1231 66 1230 108 c 1
 1230 192 l 2
 1229.15623538 225.750584656 1220.48114476 249.534027121 1207.57898038 249.534027121 c 0
 1205.18995557 249.534027121 1202.65600152 248.71858922 1200 247 c 0
 1172 229 1137 214 1104 214 c 0
 1050 214 1005 255 1005 393 c 2
 1005 608 l 2
 1005 628 1011 637 1019 637 c 2
 1168 637 l 2
 1186 637 1199 670 1199 713 c 2
 1199 777 l 2
 1199 820 1186 852 1168 852 c 2
 1019 852 l 2
 1011 852 1005 862 1005 882 c 2
 1005 1354 l 2
 1005 1397 991 1408 974 1408 c 2
 785 1408 l 2
 767 1408 755 1397 754 1354 c 2
 743 882 l 2
 743 862 736 852 728 852 c 2
 489 852 l 2
 397 852 360 974 360 1059 c 0
 361 1185 450 1225 509 1225 c 0
 594 1225 601 1207 611 1204 c 0
 615 1202 618 1201 621 1201 c 0
 631 1201 637 1214 638 1245 c 1
 647 1355 l 2
 648 1360 648 1364 648 1368 c 0
 648 1398 641 1415 626 1425 c 0
 598.963725234 1441.41488111 548.364639459 1459.69282061 464.236133359 1459.69282061 c 0
 236.671095657 1459.69282061 98 1315.79524718 98 1036 c 0
 98 858 206 758 287 737 c 1
EndSplineSet
EndChar

StartChar: asciicircum
Encoding: 62 94 40
Width: 1299
VWidth: 0
Flags: HW
PickledData: "(dp1
S'org.robofab.postScriptHintData'
p2
(dp3
sS'com.typemytype.robofont.layerData'
p4
(dp5
s."
LayerCount: 2
Fore
SplineSet
189 201 m 2
 346 201 l 2
 392 201 421 229 441 270 c 1
 610 895 l 1
 613 902 620 905 626 905 c 0
 632 905 638 902 642 895 c 1
 823 270 l 1
 842 229 872 201 918 201 c 2
 1071 201 l 2
 1098 201 1117 223 1117 247 c 0
 1117 255 1116 262 1112 269 c 1
 819 1139 l 1
 797 1180 767 1207 720 1207 c 2
 544 1207 l 2
 497 1207 466 1180 444 1140 c 1
 149 268 l 1
 145 261 143 253 143 246 c 0
 143 223 162 201 189 201 c 2
EndSplineSet
EndChar

StartChar: asciitilde
Encoding: 94 126 41
Width: 1128
VWidth: 0
Flags: HW
PickledData: "(dp1
S'org.robofab.postScriptHintData'
p2
(dp3
sS'com.typemytype.robofont.layerData'
p4
(dp5
s."
LayerCount: 2
Fore
SplineSet
731 829 m 0
 770 829 803 813 843 768 c 0
 849 761 856 758 862 758 c 0
 895 758 932 830 932 876 c 0
 932 887 930 896 925 903 c 0
 870 975 807 1007 747 1007 c 0
 647 1007 486 909 401 909 c 0
 366 909 316 938 273 995 c 0
 268 1002 261 1006 253 1006 c 0
 244 1006 234 1000 226 982 c 2
 192 911 l 2
 187 902 185 894 185 886 c 0
 185 870 194 855 203 842 c 0
 258 762 314 730 380 730 c 0
 477 730 641 829 731 829 c 0
EndSplineSet
EndChar

StartChar: asterisk
Encoding: 10 42 42
Width: 709
VWidth: 0
Flags: HW
PickledData: "(dp1
S'com.typemytype.robofont.layerData'
p2
(dp3
S'back'
p4
(dp5
S'name'
p6
S'asterisk'
p7
sS'lib'
p8
(dp9
sS'unicodes'
p10
(tsS'width'
p11
I709
sS'contours'
p12
(tsS'components'
p13
(tsS'anchors'
p14
(tsss."
LayerCount: 2
Fore
SplineSet
247 422 m 0
 258 422 267 425 269 431 c 2
 353 667 l 1
 472 467 l 2
 481 453 493 447 506 447 c 0
 531 447 558 470 558 494 c 0
 558 502 555 510 549 517 c 0
 524 548 388 698 388 698 c 1
 564 743 l 2
 592 750 604 770 604 790 c 0
 604 818 582 848 555 848 c 0
 550 848 543 846 537 843 c 2
 379 743 l 1
 379 743 400 999 400 1001 c 0
 400 1035 379 1046 355 1046 c 0
 331 1046 309 1031 309 997 c 0
 309 911 326 829 336 743 c 1
 302 765 171 878 141 878 c 0
 115 878 99 846 99 813 c 0
 99 784 114 759 135 753 c 2
 321 698 l 1
 296 660 184 513 184 460 c 0
 184 436 221 422 247 422 c 0
EndSplineSet
EndChar

StartChar: at
Encoding: 32 64 43
Width: 1477
VWidth: 0
Flags: HW
PickledData: "(dp1
S'org.robofab.postScriptHintData'
p2
(dp3
sS'com.typemytype.robofont.layerData'
p4
(dp5
S'back'
p6
(dp7
S'name'
p8
S'at'
p9
sS'lib'
p10
(dp11
sS'unicodes'
p12
(tsS'width'
p13
I1477
sS'contours'
p14
(tsS'components'
p15
(tsS'anchors'
p16
(tsss."
LayerCount: 2
Fore
SplineSet
765 341 m 0
 630 341 583 500 583 647 c 0
 583 789 618 958 764 958 c 0
 874 958 952 853 952 652 c 0
 952 436 876 341 765 341 c 0
778 -185 m 0
 874 -185 991 -161 1067 -119 c 0
 1076.53803228 -113.728982162 1080.46893761 -102.220823108 1080.46893761 -88.1758611405 c 0
 1080.46893761 -49.5397441958 1050.72226503 8.2933361387 1026.12287131 8.2933361387 c 0
 1024.0378533 8.2933361387 1021.98981372 7.87785899263 1020 7 c 0
 960 -19 865 -47 788 -47 c 0
 411 -47 259 303 259 652 c 0
 259 1033 436 1377 772 1377 c 0
 1105 1377 1270 1089 1270 715 c 0
 1270 420 1209 348 1174 348 c 0
 1140 348 1110 381 1110 474 c 2
 1110 1013 l 2
 1110 1047 1090 1074 1066 1074 c 2
 1056 1074 l 2
 1029 1074 1009 1062 1004 1024 c 1
 992 899 l 2
 991 891 990 886 988 886 c 0
 986 886 984 890 982 898 c 0
 940.88574264 1018.25920278 875.406512481 1119.57083737 723.271393961 1119.57083737 c 0
 545.243567209 1119.57083737 429 943.719961676 429 661 c 0
 429 361.959932974 561.993418162 188.420697171 741.873680242 188.420697171 c 0
 898.965271408 188.420697171 951.953950384 282.692221486 990 403 c 0
 993 412 998 427 1003 427 c 0
 1008 427 1012 410 1014 389 c 0
 1019 293 1096 223 1177 223 c 0
 1276 223 1415 361 1415 715 c 0
 1414 1175 1181 1519 769 1519 c 0
 358 1519 101 1151 101 657 c 0
 101 193 366 -185 778 -185 c 0
EndSplineSet
EndChar

StartChar: b
Encoding: 66 98 44
Width: 808
VWidth: 0
Flags: HW
PickledData: "(dp1
S'com.typemytype.robofont.layerData'
p2
(dp3
S'back'
p4
(dp5
S'name'
p6
S'b'
sS'lib'
p7
(dp8
sS'unicodes'
p9
(tsS'width'
p10
I808
sS'contours'
p11
((dp12
S'points'
p13
((dp14
S'segmentType'
p15
S'curve'
p16
sS'x'
F463
sS'smooth'
p17
I01
sS'y'
F154
s(dp18
S'y'
F154
sS'x'
F397
sg17
I00
s(dp19
S'y'
F209
sS'x'
F361
sg17
I00
s(dp20
g15
S'curve'
p21
sS'x'
F361
sg17
I01
sS'y'
F508
s(dp22
S'y'
F772
sS'x'
F361
sg17
I00
s(dp23
S'y'
F849
sS'x'
F396
sg17
I00
s(dp24
g15
S'curve'
p25
sS'x'
F463
sg17
I01
sS'y'
F849
s(dp26
S'y'
F849
sS'x'
F530
sg17
I00
s(dp27
S'y'
F772
sS'x'
F564
sg17
I00
s(dp28
g15
S'curve'
p29
sS'x'
F564
sg17
I01
sS'y'
F508
s(dp30
S'y'
F209
sS'x'
F564
sg17
I00
s(dp31
S'y'
F154
sS'x'
F528
sg17
I00
stp32
s(dp33
g13
((dp34
g15
S'curve'
p35
sS'x'
F463
sg17
I01
sS'y'
F-31
s(dp36
S'y'
F-31
sS'x'
F595
sg17
I00
s(dp37
S'y'
F0
sS'x'
F791
sg17
I00
s(dp38
g15
S'curve'
p39
sS'x'
F791
sg17
I01
sS'y'
F508
s(dp40
S'y'
F1006
sS'x'
F791
sg17
I00
s(dp41
S'y'
F1043
sS'x'
F582
sg17
I00
s(dp42
g15
S'curve'
p43
sS'x'
F463
sg17
I01
sS'y'
F1043
s(dp44
S'y'
F1043
sS'x'
F344
sg17
I00
s(dp45
S'y'
F1006
sS'x'
F135
sg17
I00
s(dp46
g15
S'curve'
p47
sS'x'
F135
sg17
I01
sS'y'
F508
s(dp48
S'y'
F0
sS'x'
F135
sg17
I00
s(dp49
S'y'
F-31
sS'x'
F331
sg17
I00
stp50
stp51
sS'components'
p52
(tsS'anchors'
p53
(tsss."
LayerCount: 2
Fore
SplineSet
423 165 m 0
 356 165 315 315 315 514 c 0
 315 709 349 842 416 842 c 0
 480 842 511 700 511 514 c 0
 511 287 487 165 423 165 c 0
469 -10 m 0
 599 -10 727 133 727 498 c 0
 727 885 601 1017 484 1017 c 0
 423 1017 369 986 332 904 c 0
 330 900 326 896 322 896 c 0
 319 896 315 901 315 915 c 2
 315 1346 l 2
 315 1389 303 1423 289 1423 c 2
 135 1423 l 2
 120 1423 108 1389 108 1346 c 2
 108 67 l 2
 108 24 115 0 129 0 c 2
 170 0 l 2
 184 0 191 25 199 63 c 1
 217 137 226 155 230 178 c 0
 231 183 235 185 238 185 c 0
 240 185 242 184 243 181 c 0
 290 19 381 -10 469 -10 c 0
EndSplineSet
EndChar

StartChar: backslash
Encoding: 60 92 45
Width: 622
VWidth: 0
Flags: HW
LayerCount: 2
Fore
SplineSet
338 -207 m 2
 522 -205 l 2
 526.099019514 -205 529.525960588 -192.9025881 529.525960588 -179.176242315 c 0
 529.525960588 -176.159137941 529.360392195 -173.063333654 529 -170 c 2
 294 1612 l 2
 292 1633 285 1647 278 1647 c 2
 95 1647 l 2
 90.0627460668 1647 86.4797408225 1634.8117618 86.4797408225 1621.02187904 c 0
 86.4797408225 1618.05360075 86.6457513111 1615.01111386 87 1612 c 2
 322 -172 l 2
 325 -193 331 -207 338 -207 c 2
EndSplineSet
EndChar

StartChar: bar
Encoding: 92 124 46
Width: 356
VWidth: 0
Flags: HW
LayerCount: 2
Fore
SplineSet
150 -150 m 2
 205 -150 l 2
 220 -150 232 -116 232 -73 c 2
 232 1478 l 2
 232 1521 220 1555 205 1555 c 2
 150 1555 l 2
 135 1555 123 1521 123 1478 c 2
 123 -73 l 2
 123 -116 135 -150 150 -150 c 2
EndSplineSet
EndChar

StartChar: braceleft
Encoding: 91 123 47
Width: 541
VWidth: 0
Flags: HW
PickledData: "(dp1
S'com.typemytype.robofont.layerData'
p2
(dp3
S'back'
p4
(dp5
S'name'
p6
S'braceleft'
p7
sS'lib'
p8
(dp9
sS'unicodes'
p10
(tsS'width'
p11
I541
sS'contours'
p12
(tsS'components'
p13
(tsS'anchors'
p14
(tsss."
LayerCount: 2
Fore
SplineSet
352 -123 m 0
 380 -123 424 -123 455 -123 c 0
 469 -123 481 -88 481 -46 c 2
 481 -16 l 2
 481 36 476 68 455 68 c 0
 398 68 398 162 398 353 c 0
 398 502 398 663 330 695 c 0
 322 699 323 722 330 725 c 0
 403 760 401 945 402 1104 c 0
 403 1280 403 1352 455 1352 c 0
 476 1352 481 1384 481 1436 c 2
 481 1466 l 2
 481 1508 469 1543 455 1543 c 0
 424 1543 380 1543 352 1543 c 0
 249 1543 190 1421 190 1124 c 0
 190 958 170 839 109 837 c 0
 86 836 83 812 83 756 c 2
 83 674 l 2
 83 618 84 584 109 583 c 0
 166 581 189 503 189 327 c 0
 189 32 243 -123 352 -123 c 0
EndSplineSet
EndChar

StartChar: braceright
Encoding: 93 125 48
Width: 541
VWidth: 0
Flags: HW
PickledData: "(dp1
S'com.typemytype.robofont.layerData'
p2
(dp3
S'back'
p4
(dp5
S'name'
p6
S'braceright'
p7
sS'lib'
p8
(dp9
sS'unicodes'
p10
(tsS'width'
p11
I541
sS'contours'
p12
(tsS'components'
p13
(tsS'anchors'
p14
(tsss."
LayerCount: 2
Fore
SplineSet
211 1543 m 0
 183 1543 139 1543 108 1543 c 0
 94 1543 82 1508 82 1466 c 2
 82 1436 l 2
 82 1384 87 1352 108 1352 c 0
 165 1352 165 1258 165 1067 c 0
 165 918 165 757 233 725 c 0
 241 721 240 698 233 695 c 0
 160 660 162 475 161 316 c 0
 160 140 160 68 108 68 c 0
 87 68 82 36 82 -16 c 2
 82 -46 l 2
 82 -88 94 -123 108 -123 c 0
 139 -123 183 -123 211 -123 c 0
 314 -123 373 -1 373 296 c 0
 373 462 393 581 454 583 c 0
 477 584 480 608 480 664 c 2
 480 746 l 2
 480 802 479 836 454 837 c 0
 397 839 374 917 374 1093 c 0
 374 1388 320 1543 211 1543 c 0
EndSplineSet
EndChar

StartChar: bracketleft
Encoding: 59 91 49
Width: 664
VWidth: 0
Flags: HW
PickledData: "(dp1
S'com.typemytype.robofont.layerData'
p2
(dp3
S'back'
p4
(dp5
S'name'
p6
S'bracketleft'
p7
sS'lib'
p8
(dp9
sS'unicodes'
p10
(tsS'width'
p11
I664
sS'contours'
p12
(tsS'components'
p13
(tsS'anchors'
p14
(tsss."
LayerCount: 2
Fore
SplineSet
151 -162 m 2
 525 -162 l 2
 541 -162 553 -148 553 -105 c 2
 553 35 l 2
 553 78 541 94 525 94 c 2
 399 94 l 2
 392 94 386 109 386 129 c 2
 386 1145 l 2
 386 1165 392 1182 399 1182 c 2
 526 1182 l 2
 541 1182 553 1186 553 1229 c 2
 553 1391 l 2
 553 1434 541 1438 525 1438 c 2
 151 1438 l 2
 135 1438 123 1434 124 1391 c 1
 124 -105 l 1
 123 -148 136 -162 151 -162 c 2
EndSplineSet
EndChar

StartChar: bracketright
Encoding: 61 93 50
Width: 664
VWidth: 0
Flags: HW
PickledData: "(dp1
S'com.typemytype.robofont.layerData'
p2
(dp3
S'back'
p4
(dp5
S'name'
p6
S'bracketright'
p7
sS'lib'
p8
(dp9
sS'unicodes'
p10
(tsS'width'
p11
I664
sS'contours'
p12
(tsS'components'
p13
(tsS'anchors'
p14
(tsss."
LayerCount: 2
Fore
SplineSet
139 -162 m 2
 513 -162 l 2
 529 -162 541 -158 540 -115 c 1
 540 1381 l 1
 541 1424 528 1438 513 1438 c 2
 139 1438 l 2
 123 1438 111 1424 111 1381 c 2
 111 1241 l 2
 111 1198 123 1182 139 1182 c 2
 265 1182 l 2
 272 1182 278 1167 278 1147 c 2
 278 131 l 2
 278 111 272 94 265 94 c 2
 138 94 l 2
 123 94 111 90 111 47 c 2
 111 -115 l 2
 111 -158 123 -162 139 -162 c 2
EndSplineSet
EndChar

StartChar: breve
Encoding: 350 728 51
Width: 1680
VWidth: 0
Flags: HW
PickledData: "(dp1
S'org.robofab.postScriptHintData'
p2
(dp3
sS'com.typemytype.robofont.layerData'
p4
(dp5
s."
LayerCount: 2
Fore
SplineSet
834 1502 m 1
 737 1502 l 1
 737 1421.91519001 683.650390625 1399.31347656 630.100585938 1399.31347656 c 0
 576.151367188 1399.31347656 522 1422.51002925 522 1502 c 1
 421 1502 l 1
 421.705506538 1350.28491661 524.232421875 1291.44726562 626.943359375 1291.44726562 c 0
 729.673828125 1291.44726562 832.58923309 1350.31184961 834 1502 c 1
EndSplineSet
EndChar

StartChar: brokenbar
Encoding: 101 166 52
Width: 356
VWidth: 0
Flags: HW
PickledData: "(dp1
S'com.typemytype.robofont.layerData'
p2
(dp3
S'back'
p4
(dp5
S'name'
p6
S'brokenbar'
p7
sS'lib'
p8
(dp9
sS'unicodes'
p10
(tsS'width'
p11
I356
sS'contours'
p12
((dp13
S'points'
p14
((dp15
S'segmentType'
p16
S'curve'
p17
sS'x'
I151
sS'smooth'
p18
I01
sS'y'
I-149
s(dp19
g16
S'line'
p20
sS'x'
I206
sg18
I01
sS'y'
I-149
s(dp21
S'y'
I-149
sS'x'
I221
sg18
I00
s(dp22
S'y'
I-125
sS'x'
I233
sg18
I00
s(dp23
g16
S'curve'
p24
sS'x'
I233
sg18
I01
sS'y'
I-82
s(dp25
g16
S'line'
p26
sS'x'
I233
sg18
I01
sS'y'
I471
s(dp27
S'y'
I514
sS'x'
I233
sg18
I00
s(dp28
S'y'
I538
sS'x'
I221
sg18
I00
s(dp29
g16
S'curve'
p30
sS'x'
I206
sg18
I01
sS'y'
I538
s(dp31
g16
S'line'
p32
sS'x'
I151
sg18
I01
sS'y'
I538
s(dp33
S'y'
I538
sS'x'
I136
sg18
I00
s(dp34
S'y'
I514
sS'x'
I124
sg18
I00
s(dp35
g16
S'curve'
p36
sS'x'
I124
sg18
I01
sS'y'
I471
s(dp37
g16
S'line'
p38
sS'x'
I124
sg18
I01
sS'y'
I-82
s(dp39
S'y'
I-125
sS'x'
I124
sg18
I00
s(dp40
S'y'
I-149
sS'x'
I136
sg18
I00
stp41
s(dp42
g14
((dp43
g16
S'curve'
p44
sS'x'
I150
sg18
I01
sS'y'
I868
s(dp45
g16
S'line'
p46
sS'x'
I205
sg18
I01
sS'y'
I868
s(dp47
S'y'
I868
sS'x'
I220
sg18
I00
s(dp48
S'y'
I892
sS'x'
I232
sg18
I00
s(dp49
g16
S'curve'
p50
sS'x'
I232
sg18
I01
sS'y'
I935
s(dp51
g16
S'line'
p52
sS'x'
I232
sg18
I01
sS'y'
I1488
s(dp53
S'y'
I1531
sS'x'
I232
sg18
I00
s(dp54
S'y'
I1555
sS'x'
I220
sg18
I00
s(dp55
g16
S'curve'
p56
sS'x'
I205
sg18
I01
sS'y'
I1555
s(dp57
g16
S'line'
p58
sS'x'
I150
sg18
I01
sS'y'
I1555
s(dp59
S'y'
I1555
sS'x'
I135
sg18
I00
s(dp60
S'y'
I1531
sS'x'
I123
sg18
I00
s(dp61
g16
S'curve'
p62
sS'x'
I123
sg18
I01
sS'y'
I1488
s(dp63
g16
S'line'
p64
sS'x'
I123
sg18
I01
sS'y'
I935
s(dp65
S'y'
I892
sS'x'
I123
sg18
I00
s(dp66
S'y'
I868
sS'x'
I135
sg18
I00
stp67
stp68
sS'components'
p69
(tsS'anchors'
p70
(tsss."
LayerCount: 2
Fore
SplineSet
150 868 m 2
 205 868 l 2
 220 868 232 892 232 935 c 2
 232 1488 l 2
 232 1531 220 1555 205 1555 c 2
 150 1555 l 2
 135 1555 123 1531 123 1488 c 2
 123 935 l 2
 123 892 135 868 150 868 c 2
151 -149 m 2
 206 -149 l 2
 221 -149 233 -125 233 -82 c 2
 233 471 l 2
 233 514 221 538 206 538 c 2
 151 538 l 2
 136 538 124 514 124 471 c 2
 124 -82 l 2
 124 -125 136 -149 151 -149 c 2
EndSplineSet
EndChar

StartChar: c
Encoding: 67 99 53
Width: 624
VWidth: 0
Flags: HW
PickledData: "(dp1
S'com.typemytype.robofont.layerData'
p2
(dp3
S'back'
p4
(dp5
S'name'
p6
S'c'
sS'lib'
p7
(dp8
sS'unicodes'
p9
(tsS'width'
p10
F624.09526889699998
sS'contours'
p11
((dp12
S'points'
p13
((dp14
S'segmentType'
p15
S'curve'
p16
sS'x'
F391
sS'smooth'
p17
I01
sS'y'
F-41
s(dp18
S'y'
F-41
sS'x'
F523
sg17
I00
s(dp19
S'y'
F0
sS'x'
F719
sg17
I00
s(dp20
g15
S'curve'
p21
sS'x'
F719
sg17
I01
sS'y'
F508
s(dp22
S'y'
F1006
sS'x'
F719
sg17
I00
s(dp23
S'y'
F1053
sS'x'
F510
sg17
I00
s(dp24
g15
S'curve'
p25
sS'x'
F391
sg17
I01
sS'y'
F1053
s(dp26
S'y'
F1053
sS'x'
F272
sg17
I00
s(dp27
S'y'
F1006
sS'x'
F63
sg17
I00
s(dp28
g15
S'curve'
p29
sS'x'
F63
sg17
I01
sS'y'
F508
s(dp30
S'y'
F0
sS'x'
F63
sg17
I00
s(dp31
S'y'
F-41
sS'x'
F259
sg17
I00
stp32
s(dp33
g13
((dp34
g15
S'curve'
p35
sS'x'
F391
sg17
I01
sS'y'
F144
s(dp36
S'y'
F144
sS'x'
F325
sg17
I00
s(dp37
S'y'
F209
sS'x'
F289
sg17
I00
s(dp38
g15
S'curve'
p39
sS'x'
F289
sg17
I01
sS'y'
F508
s(dp40
S'y'
F772
sS'x'
F289
sg17
I00
s(dp41
S'y'
F859
sS'x'
F324
sg17
I00
s(dp42
g15
S'curve'
p43
sS'x'
F391
sg17
I01
sS'y'
F859
s(dp44
S'y'
F859
sS'x'
F458
sg17
I00
s(dp45
S'y'
F772
sS'x'
F492
sg17
I00
s(dp46
g15
S'curve'
p47
sS'x'
F492
sg17
I01
sS'y'
F508
s(dp48
S'y'
F209
sS'x'
F492
sg17
I00
s(dp49
S'y'
F144
sS'x'
F456
sg17
I00
stp50
stp51
sS'components'
p52
(tsS'anchors'
p53
(tsss."
LayerCount: 2
Fore
SplineSet
427 -10 m 0
 473 -10 518 -1 547 6 c 0
 556 8 562 18 562 31 c 2
 562 163 l 2
 562 176 556 188 547 190 c 1
 526 184 491 176 457 176 c 0
 368 176 307 177 307 510 c 0
 307 809 377 832 459 832 c 0
 496 832 525 822 547 814 c 0
 556 811 563 819 562 833 c 1
 562 975 l 2
 562 983 556 990 547 992 c 0
 512 1002 455 1017 400 1017 c 0
 236 1017 82 920 82 510 c 0
 82 48 253 -10 427 -10 c 0
EndSplineSet
EndChar

StartChar: caron
Encoding: 349 711 54
Width: 327
VWidth: 0
Flags: HW
PickledData: "(dp1
S'com.typemytype.robofont.layerData'
p2
(dp3
S'back'
p4
(dp5
S'name'
p6
S'caron'
p7
sS'lib'
p8
(dp9
sS'unicodes'
p10
(tsS'width'
p11
I327
sS'contours'
p12
(tsS'components'
p13
(tsS'anchors'
p14
(tsss."
LayerCount: 2
Fore
SplineSet
259 1607 m 2
 242 1607 228 1584 213 1549 c 1
 172 1423 l 2
 168 1410 164 1403 161 1403 c 0
 157 1403 153 1410 149 1423 c 2
 108 1549 l 1
 93 1584 79 1607 60 1607 c 2
 32 1607 l 2
 14 1607 9 1592 9 1573 c 0
 9 1558 12 1541 15 1527 c 1
 94 1297 l 1
 108 1247 127 1217 145 1217 c 2
 176 1217 l 2
 193 1217 212 1247 226 1297 c 1
 306 1527 l 1
 309 1539 312 1554 312 1568 c 0
 312 1589 306 1607 288 1607 c 2
 259 1607 l 2
EndSplineSet
EndChar

StartChar: cedilla
Encoding: 116 184 56
Width: 716
VWidth: 0
Flags: HW
PickledData: "(dp1
S'org.robofab.postScriptHintData'
p2
(dp3
sS'com.typemytype.robofont.layerData'
p4
(dp5
S'back'
p6
(dp7
S'name'
p8
S'cedilla'
p9
sS'lib'
p10
(dp11
sS'unicodes'
p12
(tsS'width'
p13
I716
sS'contours'
p14
(tsS'components'
p15
(tsS'anchors'
p16
(tsss."
LayerCount: 2
Fore
SplineSet
245 -311 m 2
 211.208020599 -311 208 -368.821758704 208 -402 c 0
 208 -510 289 -580 403 -580 c 0
 547 -580 611 -493 611 -315 c 0
 611 -204 555 -94 447 -94 c 2
 363 -94 l 2
 350 -94 347 -101 347 -111 c 2
 347 -182 l 2
 347 -193 363 -192 363 -192 c 1
 402 -192 l 2
 452 -192 483 -269 483 -345 c 0
 483 -449 457 -486 410 -486 c 0
 360 -486 338 -444 338 -395 c 0
 338 -379.172662323 342.120396453 -360.094265031 342.120396453 -344.122287303 c 0
 342.120396453 -325.434919848 336.479893077 -311 312 -311 c 2
 245 -311 l 2
EndSplineSet
EndChar

StartChar: cent
Encoding: 97 162 57
Width: 624
VWidth: 0
Flags: HW
PickledData: "(dp1
S'com.typemytype.robofont.layerData'
p2
(dp3
s."
LayerCount: 2
Fore
SplineSet
403 180 m 1
 344 192 307 250 307 510 c 0
 307 737 348 805 403 825 c 1
 403 180 l 1
562 975 m 2
 562 996.845417426 514.90517112 1000.54638783 492 1006 c 1
 492 1168 l 2
 492 1211 480 1225 465 1225 c 2
 430 1225 l 2
 415 1225 403 1211 403 1168 c 2
 403 1017 l 1
 400 1017 l 2
 236 1017 82 920 82 510 c 0
 82 69 238 -4 403 -10 c 1
 403 -113 l 2
 403 -156 415 -170 430 -170 c 2
 465 -170 l 2
 480 -170 492 -156 492 -113 c 2
 492 -5 l 1
 522.386414481 -0.659083645631 562 -1.89352161083 562 31 c 2
 562 163 l 2
 562 176 556 188 547 190 c 1
 533 186 514 181 492 178 c 1
 492 829 l 1
 507.71563798 826.856958457 532.038260646 814.647314664 547.508690489 814.647314664 c 0
 556.871137242 814.647314664 562.991495794 819.119058882 562 833 c 1
 562 975 l 2
EndSplineSet
EndChar

StartChar: circumflex
Encoding: 348 710 58
Width: 327
VWidth: 0
Flags: HW
PickledData: "(dp1
S'com.typemytype.robofont.layerData'
p2
(dp3
S'back'
p4
(dp5
S'name'
p6
S'circumflex'
p7
sS'lib'
p8
(dp9
sS'unicodes'
p10
(tsS'width'
p11
I327
sS'contours'
p12
(tsS'components'
p13
(tsS'anchors'
p14
(tsss."
LayerCount: 2
Fore
SplineSet
62 1217 m 2
 79 1217 93 1240 108 1275 c 1
 149 1401 l 2
 153 1414 157 1421 160 1421 c 0
 164 1421 168 1414 172 1401 c 2
 213 1275 l 1
 228 1240 242 1217 261 1217 c 2
 289 1217 l 2
 307 1217 312 1232 312 1251 c 0
 312 1266 309 1283 306 1297 c 1
 227 1527 l 1
 213 1577 194 1607 176 1607 c 2
 145 1607 l 2
 128 1607 109 1577 95 1527 c 1
 15 1297 l 1
 12 1285 9 1270 9 1256 c 0
 9 1235 15 1217 33 1217 c 2
 62 1217 l 2
EndSplineSet
EndChar

StartChar: colon
Encoding: 26 58 59
Width: 368
VWidth: 0
Flags: HW
PickledData: "(dp1
S'com.typemytype.robofont.layerData'
p2
(dp3
S'back'
p4
(dp5
S'name'
p6
S'colon'
p7
sS'lib'
p8
(dp9
sS'unicodes'
p10
(tsS'width'
p11
I368
sS'contours'
p12
(tsS'components'
p13
(tsS'anchors'
p14
(tsss."
LayerCount: 2
Fore
SplineSet
131 0 m 2
 242 0 l 2
 257 0 269 14 269 57 c 2
 269 293 l 2
 269 336 257 350 242 350 c 2
 131 350 l 2
 116 350 104 336 104 293 c 2
 104 57 l 2
 104 14 116 0 131 0 c 2
131 656 m 2
 242 656 l 2
 257 656 269 670 269 713 c 2
 269 949 l 2
 269 992 257 1006 242 1006 c 2
 131 1006 l 2
 116 1006 104 992 104 949 c 2
 104 713 l 2
 104 670 116 656 131 656 c 2
EndSplineSet
EndChar

StartChar: comma
Encoding: 12 44 60
Width: 459
VWidth: 0
Flags: HW
PickledData: "(dp1
S'com.typemytype.robofont.layerData'
p2
(dp3
S'back'
p4
(dp5
S'name'
p6
S'comma'
p7
sS'lib'
p8
(dp9
sS'unicodes'
p10
(tsS'width'
p11
I459
sS'contours'
p12
((dp13
S'points'
p14
((dp15
S'segmentType'
p16
S'curve'
p17
sS'x'
F74
sS'smooth'
p18
I01
sS'y'
F0
s(dp19
g16
S'line'
p20
sS'x'
F228
sg18
I01
sS'y'
F0
s(dp21
S'y'
F0
sS'x'
F243
sg18
I00
s(dp22
S'y'
F4
sS'x'
F255
sg18
I00
s(dp23
g16
S'curve'
p24
sS'x'
F255
sg18
I01
sS'y'
F47
s(dp25
g16
S'line'
p26
sS'x'
F255
sg18
I01
sS'y'
F233
s(dp27
S'y'
F276
sS'x'
F255
sg18
I00
s(dp28
S'y'
F280
sS'x'
F243
sg18
I00
s(dp29
g16
S'curve'
p30
sS'x'
F228
sg18
I01
sS'y'
F280
s(dp31
g16
S'line'
p32
sS'x'
F74
sg18
I01
sS'y'
F280
s(dp33
S'y'
F280
sS'x'
F59
sg18
I00
s(dp34
S'y'
F276
sS'x'
F47
sg18
I00
s(dp35
g16
S'curve'
p36
sS'x'
F47
sg18
I01
sS'y'
F233
s(dp37
g16
S'line'
p38
sS'x'
F47
sg18
I01
sS'y'
F47
s(dp39
S'y'
F4
sS'x'
F47
sg18
I00
s(dp40
S'y'
F0
sS'x'
F59
sg18
I00
stp41
stp42
sS'components'
p43
(tsS'anchors'
p44
(tsss."
LayerCount: 2
Fore
SplineSet
131 -342 m 0
 179 -319 300 -212 300 25 c 2
 300 245 l 2
 300 288 288 302 274 302 c 2
 126 302 l 2
 111 302 105 288 105 245 c 2
 105 60 l 2
 105 22 112 0 126 0 c 2
 177 0 l 2
 182 0 183 -11 183 -27 c 0
 183 -91 164 -166 129 -201 c 0
 107 -223 105 -222 105 -276 c 2
 105 -297 l 2
 105 -327.857142857 115.285714286 -343.285714286 125.781341108 -343.285714286 c 0
 127.530612245 -343.285714286 129.285714286 -342.857142857 131 -342 c 0
EndSplineSet
EndChar

StartChar: copyright
Encoding: 104 169 61
Width: 1517
VWidth: 0
Flags: HW
PickledData: "(dp1
S'org.robofab.postScriptHintData'
p2
(dp3
sS'com.typemytype.robofont.layerData'
p4
(dp5
S'back'
p6
(dp7
S'name'
p8
S'copyright'
p9
sS'lib'
p10
(dp11
sS'unicodes'
p12
(tsS'width'
p13
F1517
sS'contours'
p14
(tsS'components'
p15
(tsS'anchors'
p16
(tsss."
LayerCount: 2
Fore
SplineSet
754.074684636 1117.15012523 m 0
 619.155047092 1117.15012523 467 1014.95514318 467 730 c 0
 467 448 625 337 768 337 c 0
 835 337 884 351 941 380 c 0
 953.712240552 386.5111476 958.637636459 401.097541498 958.637636459 417.827636915 c 0
 958.637636459 452.614464369 937.342817339 496.669528726 920.47698272 496.669528726 c 0
 919.293204943 496.669528726 918.131245865 496.452498346 917 496 c 0
 887 484 869 461 786 461 c 0
 699 461 603 515 603 729 c 0
 603 905.511896489 670.85045825 995.25464725 781.71952366 995.25464725 c 0
 829.569060961 995.25464725 875.285074393 972.571828504 913 949 c 0
 915.703350263 947.361605901 918.346302984 946.602331588 920.902470169 946.602331588 c 0
 939.02137365 946.602331588 952.779813534 984.751407321 952.779813534 1018.36708315 c 0
 952.779813534 1037.89996427 948.134467076 1055.90220576 937 1064 c 0
 888.553195494 1099.1476817 823.863533777 1117.15012523 754.074684636 1117.15012523 c 0
758 -18 m 0
 1200 -18 1421 333 1421 722 c 0
 1421 1111 1200 1461 758 1461 c 0
 317 1461 96 1111 96 722 c 0
 96 333 317 -18 758 -18 c 0
761 116 m 0
 379 116 236 439 236 718 c 0
 236 1008 379 1323 761 1323 c 0
 1142 1323 1285 1008 1285 718 c 0
 1285 439 1142 116 761 116 c 0
EndSplineSet
EndChar

StartChar: currency
Encoding: 99 164 62
Width: 1326
VWidth: 0
Flags: HW
PickledData: "(dp1
S'org.robofab.postScriptHintData'
p2
(dp3
sS'com.typemytype.robofont.layerData'
p4
(dp5
s."
LayerCount: 2
Fore
SplineSet
662 548 m 0
 383 548 278 753 278 931 c 0
 278 1118 383 1318 662 1318 c 0
 942 1318 1047 1118 1047 931 c 0
 1047 753 942 548 662 548 c 0
662 426 m 0
 796 426 885 459 971 515 c 1
 1002 484 l 2
 1022 463 1040 445 1059 445 c 0
 1067 445 1075 449 1084 457 c 2
 1116 490 l 2
 1126 500 1130 509 1130 518 c 0
 1130 537 1113 554 1092 575 c 2
 1068 599 l 1
 1145 689 1185 805 1185 931 c 0
 1185 1059 1144 1177 1065 1268 c 1
 1092 1295 l 2
 1113 1316 1131 1334 1131 1352 c 0
 1131 1360 1127 1368 1119 1377 c 2
 1086 1409 l 2
 1076 1419 1067 1423 1058 1423 c 0
 1039 1423 1022 1406 1001 1385 c 2
 968 1352 l 1
 883 1407 794 1440 662 1440 c 0
 530 1440 443 1407 358 1352 c 1
 324 1386 l 2
 304 1406 287 1423 268 1423 c 0
 259 1423 249 1419 239 1409 c 2
 207 1377 l 2
 198 1369 194 1360 194 1352 c 0
 194 1334 212 1316 233 1295 c 2
 260 1268 l 1
 181 1177 140 1059 140 931 c 0
 140 805 180 688 258 599 c 1
 233 574 l 2
 213 554 196 537 196 518 c 0
 196 509 200 499 210 489 c 2
 242 457 l 2
 250 448 259 445 267 445 c 0
 285 445 303 463 324 484 c 2
 355 515 l 1
 440 459 528 426 662 426 c 0
EndSplineSet
EndChar

StartChar: d
Encoding: 68 100 63
Width: 844
VWidth: 0
Flags: HW
PickledData: "(dp1
S'com.typemytype.robofont.layerData'
p2
(dp3
S'back'
p4
(dp5
S'name'
p6
S'd'
sS'lib'
p7
(dp8
sS'unicodes'
p9
(tsS'width'
p10
I844
sS'contours'
p11
((dp12
S'points'
p13
((dp14
S'segmentType'
p15
S'curve'
p16
sS'x'
F330
sS'smooth'
p17
I01
sS'y'
F154
s(dp18
S'y'
F154
sS'x'
F264
sg17
I00
s(dp19
S'y'
F209
sS'x'
F228
sg17
I00
s(dp20
g15
S'curve'
p21
sS'x'
F228
sg17
I01
sS'y'
F508
s(dp22
S'y'
F772
sS'x'
F228
sg17
I00
s(dp23
S'y'
F849
sS'x'
F263
sg17
I00
s(dp24
g15
S'curve'
p25
sS'x'
F330
sg17
I01
sS'y'
F849
s(dp26
S'y'
F849
sS'x'
F397
sg17
I00
s(dp27
S'y'
F772
sS'x'
F431
sg17
I00
s(dp28
g15
S'curve'
p29
sS'x'
F431
sg17
I01
sS'y'
F508
s(dp30
S'y'
F209
sS'x'
F431
sg17
I00
s(dp31
S'y'
F154
sS'x'
F395
sg17
I00
stp32
s(dp33
g13
((dp34
g15
S'curve'
p35
sS'x'
F330
sg17
I01
sS'y'
F-31
s(dp36
S'y'
F-31
sS'x'
F462
sg17
I00
s(dp37
S'y'
F0
sS'x'
F658
sg17
I00
s(dp38
g15
S'curve'
p39
sS'x'
F658
sg17
I01
sS'y'
F508
s(dp40
S'y'
F1006
sS'x'
F658
sg17
I00
s(dp41
S'y'
F1043
sS'x'
F449
sg17
I00
s(dp42
g15
S'curve'
p43
sS'x'
F330
sg17
I01
sS'y'
F1043
s(dp44
S'y'
F1043
sS'x'
F211
sg17
I00
s(dp45
S'y'
F1006
sS'x'
F2
sg17
I00
s(dp46
g15
S'curve'
p47
sS'x'
F2
sg17
I01
sS'y'
F508
s(dp48
S'y'
F0
sS'x'
F2
sg17
I00
s(dp49
S'y'
F-31
sS'x'
F198
sg17
I00
stp50
stp51
sS'components'
p52
(tsS'anchors'
p53
(tsss."
LayerCount: 2
Fore
SplineSet
410 165 m 0
 345 165 306 210 306 514 c 0
 306 779 345 842 409 842 c 0
 476 842 509 762 509 514 c 0
 509 236 476 165 410 165 c 0
354 -10 m 0
 443 -10 542 11 579 200 c 1
 582 207 584 210 587 210 c 0
 590 210 593 206 594 197 c 1
 625 64 l 1
 633 25 649 0 666 0 c 2
 709 0 l 2
 724 0 736 24 736 67 c 2
 736 1366 l 2
 736 1409 724 1423 709 1423 c 2
 536 1423 l 2
 521 1423 510 1409 510 1366 c 2
 510 911 l 2
 510 901 507 897 504 897 c 0
 501 897 497 901 494 906 c 0
 459 987 411 1017 341 1017 c 0
 223 1017 80 915 80 498 c 0
 80 83 226 -10 354 -10 c 0
EndSplineSet
EndChar

StartChar: degree
Encoding: 111 176 64
Width: 1333
VWidth: 0
Flags: HW
PickledData: "(dp1
S'org.robofab.postScriptHintData'
p2
(dp3
sS'com.typemytype.robofont.layerData'
p4
(dp5
s."
LayerCount: 2
Fore
SplineSet
666 129 m 0
 1020 129 1201 372 1201 646 c 0
 1201 921 1020 1165 666 1165 c 0
 312 1165 132 921 132 646 c 0
 132 372 312 129 666 129 c 0
667 261 m 0
 388 261 283 466 283 644 c 0
 283 831 388 1031 667 1031 c 0
 947 1031 1052 831 1052 644 c 0
 1052 466 947 261 667 261 c 0
EndSplineSet
EndChar

StartChar: dieresis
Encoding: 103 168 65
Width: 244
VWidth: 0
Flags: HW
LayerCount: 2
Fore
SplineSet
257 0 m 2
 307 0 l 2
 322 0 334 34 334 77 c 2
 334 213 l 2
 334 256 322 290 307 290 c 2
 257 290 l 2
 242 290 230 256 230 213 c 2
 230 77 l 2
 230 34 242 0 257 0 c 2
26 0 m 2
 76 0 l 2
 91 0 103 34 103 77 c 2
 103 213 l 2
 103 256 91 290 76 290 c 2
 26 290 l 2
 11 290 -1 256 -1 213 c 2
 -1 77 l 2
 -1 34 11 0 26 0 c 2
EndSplineSet
EndChar

StartChar: divide
Encoding: 178 247 66
Width: 1279
VWidth: 0
Flags: HW
PickledData: "(dp1
S'org.robofab.postScriptHintData'
p2
(dp3
sS'com.typemytype.robofont.layerData'
p4
(dp5
s."
LayerCount: 2
Fore
SplineSet
577 750 m 2
 713 750 l 2
 756 750 790 784 790 827 c 2
 790 957 l 2
 790 1000 756 1034 713 1034 c 2
 577 1034 l 2
 534 1034 500 1000 500 957 c 2
 500 827 l 2
 500 784 534 750 577 750 c 2
187 437 m 2
 1091 437 l 2
 1134 437 1158 461 1158 504 c 0
 1158 566 l 2
 1158 609 1134 633 1091 633 c 2
 187 633 l 2
 144 633 120 609 120 566 c 2
 120 504 l 2
 120 461 144 437 187 437 c 2
577 10 m 2
 713 10 l 2
 756 10 790 44 790 87 c 2
 790 217 l 2
 790 260 756 294 713 294 c 2
 577 294 l 2
 534 294 500 260 500 217 c 2
 500 87 l 2
 500 44 534 10 577 10 c 2
EndSplineSet
EndChar

StartChar: dotaccent
Encoding: 351 729 68
Width: 434
VWidth: 0
Flags: HW
PickledData: "(dp1
S'com.typemytype.robofont.layerData'
p2
(dp3
s."
LayerCount: 2
Fore
SplineSet
130 0 m 2
 302 0 l 2
 317 0 329 4 329 47 c 2
 329 233 l 2
 329 276 317 280 302 280 c 2
 130 280 l 2
 115 280 103 276 103 233 c 2
 103 47 l 2
 103 4 115 0 130 0 c 2
EndSplineSet
EndChar

StartChar: dotlessi
Encoding: 234 305 69
Width: 407
VWidth: 0
Flags: HW
PickledData: "(dp1
S'com.typemytype.robofont.guides'
p2
(tsS'com.typemytype.robofont.layerData'
p3
(dp4
s."
LayerCount: 2
Fore
SplineSet
135 0 m 2
 290 0 l 2
 304 0 316 34 316 77 c 2
 316 929 l 2
 316 972 304 1006 290 1006 c 2
 135 1006 l 2
 120 1006 109 972 109 929 c 2
 109 77 l 2
 109 34 120 0 135 0 c 2
EndSplineSet
EndChar

StartChar: uni0237
Encoding: 347 567 70
Width: 451
VWidth: 0
Flags: HW
PickledData: "(dp1
S'com.typemytype.robofont.layerData'
p2
(dp3
s."
LayerCount: 2
Fore
SplineSet
31 -358 m 0
 63 -358 94 -358 139 -358 c 0
 242 -358 356 -333 356 -8 c 2
 356 929 l 2
 356 972 345 1006 330 1006 c 2
 175 1006 l 2
 160 1006 149 972 149 929 c 2
 149 -20 l 2
 149 -132 108 -140 70 -140 c 0
 56 -140 40 -140 30 -140 c 0
 15 -140 4 -166 4 -207 c 0
 4 -258 4 -232 4 -283 c 0
 4 -327 16 -358 31 -358 c 0
EndSplineSet
EndChar

StartChar: e
Encoding: 69 101 71
Width: 721
VWidth: 0
Flags: HW
PickledData: "(dp1
S'com.typemytype.robofont.layerData'
p2
(dp3
S'back'
p4
(dp5
S'name'
p6
S'e'
sS'lib'
p7
(dp8
sS'unicodes'
p9
(tsS'width'
p10
I721
sS'contours'
p11
((dp12
S'points'
p13
((dp14
S'segmentType'
p15
S'curve'
p16
sS'x'
F391
sS'smooth'
p17
I01
sS'y'
F154
s(dp18
S'y'
F154
sS'x'
F325
sg17
I00
s(dp19
S'y'
F209
sS'x'
F289
sg17
I00
s(dp20
g15
S'curve'
p21
sS'x'
F289
sg17
I01
sS'y'
F508
s(dp22
S'y'
F772
sS'x'
F289
sg17
I00
s(dp23
S'y'
F849
sS'x'
F324
sg17
I00
s(dp24
g15
S'curve'
p25
sS'x'
F391
sg17
I01
sS'y'
F849
s(dp26
S'y'
F849
sS'x'
F458
sg17
I00
s(dp27
S'y'
F772
sS'x'
F492
sg17
I00
s(dp28
g15
S'curve'
p29
sS'x'
F492
sg17
I01
sS'y'
F508
s(dp30
S'y'
F209
sS'x'
F492
sg17
I00
s(dp31
S'y'
F154
sS'x'
F456
sg17
I00
stp32
s(dp33
g13
((dp34
g15
S'curve'
p35
sS'x'
F391
sg17
I01
sS'y'
F-31
s(dp36
S'y'
F-31
sS'x'
F523
sg17
I00
s(dp37
S'y'
F0
sS'x'
F719
sg17
I00
s(dp38
g15
S'curve'
p39
sS'x'
F719
sg17
I01
sS'y'
F508
s(dp40
S'y'
F1006
sS'x'
F719
sg17
I00
s(dp41
S'y'
F1043
sS'x'
F510
sg17
I00
s(dp42
g15
S'curve'
p43
sS'x'
F391
sg17
I01
sS'y'
F1043
s(dp44
S'y'
F1043
sS'x'
F272
sg17
I00
s(dp45
S'y'
F1006
sS'x'
F63
sg17
I00
s(dp46
g15
S'curve'
p47
sS'x'
F63
sg17
I01
sS'y'
F508
s(dp48
S'y'
F0
sS'x'
F63
sg17
I00
s(dp49
S'y'
F-31
sS'x'
F259
sg17
I00
stp50
stp51
sS'components'
p52
(tsS'anchors'
p53
(tsss."
LayerCount: 2
Fore
SplineSet
304 590 m 2
 299 590 299 618 299 632 c 0
 301 763 340 843 388 843 c 0
 436 843 469 759 472 627 c 0
 472 614 472 590 468 590 c 2
 304 590 l 2
646 455 m 2
 659.511570631 455 659 499.913546731 659 520 c 0
 659 936 511 1018 390 1018 c 0
 255 1018 82 961 82 504 c 0
 82 37 268 -10 404 -10 c 0
 577 -10 652 94 652 234 c 0
 652 265 648 287 646 297 c 0
 644 307 638 314 622 314 c 2
 519 314 l 2
 506 314 498 308 496 290 c 0
 490 237 481 165 409 165 c 0
 353 165 299 199 299 421 c 0
 299 437 302 455 308 455 c 2
 646 455 l 2
EndSplineSet
EndChar

StartChar: eight
Encoding: 24 56 73
Width: 879
VWidth: 0
Flags: HW
LayerCount: 2
Fore
SplineSet
533 877 m 0
 519.819145044 875.390124586 507.296338624 874.569907414 495.432599372 874.569907414 c 0
 389.38670019 874.569907414 336 940.104926279 336 1093 c 0
 336 1230 391 1273 441 1273 c 0
 491 1273 548 1211 548 1074 c 0
 548 1009 546 878 533 877 c 0
442 217 m 0
 382 217 325 299 325 486 c 0
 325 570 330 669 340 708 c 1
 406 658 551 725 551 466 c 0
 551 279 500 217 442 217 c 0
442 -41 m 0
 600 -41 766 55 766 446 c 0
 766 639 736 735 672 805 c 1
 712 846 736 959 736 1083 c 0
 736 1407 578 1475 441 1475 c 0
 304 1475 143 1404 143 1073 c 0
 143 948 173 856 216 805 c 1
 157 762 113 638 113 446 c 0
 113 21 283 -41 442 -41 c 0
EndSplineSet
EndChar

StartChar: equal
Encoding: 29 61 74
Width: 631
VWidth: 0
Flags: HW
PickledData: "(dp1
S'com.typemytype.robofont.layerData'
p2
(dp3
S'back'
p4
(dp5
S'name'
p6
S'equal'
p7
sS'lib'
p8
(dp9
sS'unicodes'
p10
(tsS'width'
p11
I489
sS'contours'
p12
(tsS'components'
p13
(tsS'anchors'
p14
(tsss."
LayerCount: 2
Fore
SplineSet
75 610 m 2
 557 610 l 2
 571 610 583 614 583 657 c 2
 583 718 l 2
 583 761 571 765 557 765 c 2
 75 765 l 2
 60 765 48 761 48 718 c 2
 48 657 l 2
 48 614 60 610 75 610 c 2
75 323 m 2
 557 323 l 2
 571 323 583 327 583 370 c 2
 583 431 l 2
 583 474 571 478 557 478 c 2
 75 478 l 2
 60 478 48 474 48 431 c 2
 48 370 l 2
 48 327 60 323 75 323 c 2
EndSplineSet
EndChar

StartChar: exclam
Encoding: 1 33 75
Width: 464
VWidth: 0
Flags: HW
LayerCount: 2
Fore
SplineSet
233 0 m 0
 312 0 350 97 350 193 c 0
 350 289 311 385 233 385 c 0
 156 385 115 291 115 193 c 0
 115 96 155 0 233 0 c 0
204 530 m 2
 262 530 l 2
 278 530 286 565 288 607 c 2
 335 1459 l 2
 335.293841678 1463.21173071 335.43418481 1467.33711849 335.43418481 1471.35267153 c 0
 335.43418481 1508.33422695 323.530791612 1536 310 1536 c 2
 156 1536 l 2
 142.030689254 1536 129.795970888 1506.51192955 129.795970888 1467.72833861 c 0
 129.795970888 1464.86679224 129.862574766 1461.95464253 130 1459 c 2
 177 607 l 2
 179 565 189 530 204 530 c 2
EndSplineSet
EndChar

StartChar: f
Encoding: 70 102 77
Width: 524
VWidth: 0
Flags: HW
PickledData: "(dp1
S'com.typemytype.robofont.layerData'
p2
(dp3
S'back'
p4
(dp5
S'name'
p6
S'f'
sS'lib'
p7
(dp8
sS'unicodes'
p9
(tsS'width'
p10
I524
sS'contours'
p11
(tsS'components'
p12
(tsS'anchors'
p13
(tsss."
LayerCount: 2
Fore
SplineSet
150 0 m 2
 315 0 l 2
 329 0 341 9 341 52 c 2
 341 777 l 2
 341 797 343 814 349 814 c 2
 484 814 l 2
 499 814 507 823 507 866 c 2
 507 951 l 2
 507 994 499 1006 484 1006 c 2
 343 1006 l 1
 343 1006 341 1009 341 1012 c 2
 341 1106 l 2
 341 1233 377 1279 430 1279 c 0
 452 1279 499 1279 501 1279 c 0
 513 1279 514 1293 514 1330 c 2
 514 1423 l 2
 514 1451 500 1462 488 1465 c 0
 467 1470 409 1475 363 1475 c 0
 239 1475 124 1414 124 1044 c 0
 124 1022 124 1006 117 1006 c 2
 65 1006 l 2
 50 1006 42 988 42 945 c 2
 42 866 l 2
 42 823 50 814 65 814 c 2
 117 814 l 2
 124 814 124 797 124 777 c 2
 124 52 l 2
 124 9 136 0 150 0 c 2
EndSplineSet
EndChar

StartChar: five
Encoding: 21 53 78
Width: 810
VWidth: 0
Flags: HW
PickledData: "(dp1
S'org.robofab.postScriptHintData'
p2
(dp3
sS'com.typemytype.robofont.layerData'
p4
(dp5
s."
LayerCount: 2
Fore
SplineSet
130 264 m 0
 109.108111653 264 110 114.325911791 110 114 c 0
 110 84 115 68 128 58 c 0
 166 25 302 -20 383 -21 c 1
 587 -21 730 79 730 463 c 0
 730 759 639 943 466 943 c 0
 346 943 295 883 273 843 c 1
 269 1153 l 2
 268.949489743 1155.52551286 268.924492346 1157.96173071 268.924492346 1160.31123087 c 0
 268.924492346 1204.47703843 277.757653858 1218 292 1218 c 2
 661 1218 l 2
 669 1218 674 1231 676 1261 c 2
 680 1368 l 1
 680 1381 l 2
 680 1410 675 1438 663 1438 c 2
 132 1438 l 2
 108 1438 101 1394 101 1320 c 1
 123 692 l 2
 124 652 123 612 146 612 c 2
 208 612 l 2
 259 612 221 749 354 749 c 0
 489.905882353 749 497.100899654 586.712387543 497.100899654 484.439684103 c 0
 497.100899654 472.328442907 497 461.058823529 497 451 c 0
 497 293 471 195 332 195 c 0
 220 195 151 254 137 261 c 0
 134 263 132 264 130 264 c 0
EndSplineSet
EndChar

StartChar: four
Encoding: 20 52 79
Width: 919
VWidth: 0
Flags: HW
PickledData: "(dp1
S'org.robofab.postScriptHintData'
p2
(dp3
sS'com.typemytype.robofont.layerData'
p4
(dp5
s."
LayerCount: 2
Fore
SplineSet
566 -1 m 2
 710 -1 l 2
 735 -1 749 25 749 67 c 2
 749 286 l 1
 854 286 l 2
 878 286 893 312 893 353 c 2
 893 447 l 2
 893 488 878 514 854 514 c 2
 749 514 l 1
 749 1370 l 2
 749 1412 735 1438 710 1438 c 2
 566 1438 l 2
 542 1438 527 1412 527 1370 c 2
 527 514 l 1
 349 514 l 2
 339 514 332 525 332 540 c 0
 332 542 332 544 332 547 c 2
 416 1370 l 2
 417 1375 417 1380 417 1384 c 0
 417 1417 398 1438 377 1438 c 2
 261 1438 l 2
 237 1438 230 1411 222 1370 c 1
 73 353 l 2
 72 348 71 345 71 340 c 0
 71 307 90 286 111 286 c 2
 527 286 l 1
 527 67 l 2
 527 25 542 -1 566 -1 c 2
EndSplineSet
EndChar

StartChar: fraction
Encoding: 395 8260 80
Width: 606
VWidth: 0
Flags: HW
LayerCount: 2
Fore
SplineSet
206 -207 m 2
 213 -207 221 -194 224 -174 c 2
 525 1614 l 2
 525.701428863 1617.50714432 526.020189154 1621.17828945 526.020189154 1624.74502061 c 0
 526.020189154 1636.43314146 522.597142274 1647 518 1647 c 2
 405 1647 l 2
 398 1647 390 1634 387 1614 c 2
 85 -172 l 2
 84.6396078054 -174.702941459 84.4740394117 -177.503294819 84.4740394117 -180.278187369 c 0
 84.4740394117 -192.9025881 87.9009804864 -205 92 -205 c 2
 206 -207 l 2
EndSplineSet
EndChar

StartChar: g
Encoding: 71 103 81
Width: 783
VWidth: 0
Flags: HW
PickledData: "(dp1
S'com.typemytype.robofont.layerData'
p2
(dp3
S'back'
p4
(dp5
S'name'
p6
S'g'
sS'lib'
p7
(dp8
sS'unicodes'
p9
(tsS'width'
p10
I783
sS'contours'
p11
(tsS'components'
p12
(tsS'anchors'
p13
(tsss."
LayerCount: 2
Fore
SplineSet
407 481 m 0
 356 481 305 536 305 682 c 0
 305 829 355 881 407 881 c 0
 457 881 507 816 507 670 c 0
 507 543 460 481 407 481 c 0
281.889970185 -100.892395168 m 0
 281.889970185 -31.4765214172 341.933495925 72 349 72 c 2
 479 72 l 2
 543 72 610 49 610 -44 c 0
 610 -132 510 -189 390 -189 c 0
 299.991247741 -189 281.889970185 -142.559755921 281.889970185 -100.892395168 c 0
372 -319 m 0
 502 -319 777 -281 777 -25 c 0
 777 145 676 199 451 199 c 2
 323 199 l 2
 257 199 217 220 217 284 c 0
 217 330 242 381 249 381 c 1
 280 362 371 343 414 343 c 0
 609 343 732 461 732 674 c 0
 732 858 635 920 586 953 c 0
 568.566764014 964.622157324 559.589776296 968.085622713 566 998 c 2
 632 1287 l 2
 634 1295 629 1332 621 1332 c 2
 514 1332 l 2
 499 1332 483 1330 483 1287 c 2
 483 1019 l 2
 483 1004 476 1004 461 1007 c 0
 445 1010 421 1017 386 1017 c 0
 174 1017 60 875 60 672 c 0
 60 559 122 471 148 450 c 1
 153 444 156 437 156 430 c 0
 156 424 153 417 147 409 c 0
 110 363 65 312 65 208 c 0
 65 110 122 117 185 95 c 1
 189 92 189 85 189 78 c 0
 189 73 189 67 186 63 c 0
 125 -20 93 -78 93 -152 c 0
 93 -264 206 -319 372 -319 c 0
EndSplineSet
EndChar

StartChar: germandbls
Encoding: 154 223 82
Width: 943
VWidth: 0
Flags: HW
PickledData: "(dp1
S'org.robofab.postScriptHintData'
p2
(dp3
sS'com.typemytype.robofont.layerData'
p4
(dp5
s."
LayerCount: 2
Fore
SplineSet
324 86 m 2
 324 955 l 2
 324 1215 389 1242 477 1242 c 0
 606 1242 631 1163 631 1025 c 0
 631 925 596 845 455 844 c 1
 432 844 l 2
 417 844 413 828 413 806 c 2
 413 704 l 2
 413 685 418 670 432 670 c 2
 471 670 l 2
 614 670 696 595 696 448 c 0
 696 285 640 193 484 193 c 2
 459 193 l 2
 446 193 439 176 439 158 c 2
 439 42 l 2
 439 19 444 0 459 0 c 2
 478 0 l 2
 713 0 895 106 895 434 c 0
 895 600 822 696 708 761 c 0
 701 765 699 778 706 783 c 0
 774 835 818 929 818 1040 c 0
 818 1339 661 1438 459 1438 c 0
 212 1438 126 1232 126 969 c 2
 126 77 l 2
 126 34 135 0 156 0 c 2
 288 0 l 2
 316 0 324 35 324 86 c 2
EndSplineSet
EndChar

StartChar: grave
Encoding: 64 96 83
Width: 598
VWidth: 0
Flags: HW
LayerCount: 2
Fore
SplineSet
424 1171 m 2
 475 1171 l 2
 485 1171 490 1176 490 1203 c 0
 490 1212 490 1224 489 1238 c 2
 467 1567 l 2
 464 1610 458 1622 443 1622 c 2
 348 1622 l 2
 341 1622 338 1610 338 1594 c 0
 338 1583 340 1569 342 1557 c 2
 405 1210 l 2
 408 1193 412 1171 424 1171 c 2
EndSplineSet
EndChar

StartChar: greater
Encoding: 30 62 84
Width: 918
VWidth: 0
Flags: HW
PickledData: "(dp1
S'com.typemytype.robofont.layerData'
p2
(dp3
S'back'
p4
(dp5
S'name'
p6
S'greater'
p7
sS'lib'
p8
(dp9
sS'unicodes'
p10
(tsS'width'
p11
I578
sS'contours'
p12
(tsS'components'
p13
(tsS'anchors'
p14
(tsss."
LayerCount: 2
Fore
SplineSet
126 1160 m 0
 119 1160 111 1141 111 1114 c 2
 111 954 l 2
 111 908 120 864 135 844 c 2
 307 686 l 2
 310.124023438 683.130859375 311 676 311 670 c 0
 311 664 311.3203125 656.994140625 308 654 c 2
 135 498 l 2
 121 479 111 435 111 389 c 2
 111 246 l 2
 111 219 119 200 127 200 c 0
 129 200 130.439453125 201.490234375 134 205 c 2
 411 478 l 2
 430.013671875 495.846679688 434 544 434 591 c 2
 434 755 l 2
 434 802 430.208984375 850.333007812 412 869 c 2
 134 1154 l 2
 131 1158 128 1160 126 1160 c 0
521 1160 m 0
 514 1160 506 1141 506 1114 c 2
 506 954 l 2
 506 908 515 864 530 844 c 2
 702 686 l 2
 705.124023438 683.130859375 706 676 706 670 c 0
 706 664 706.3203125 656.994140625 703 654 c 2
 530 498 l 2
 516 479 506 435 506 389 c 2
 506 246 l 2
 506 219 514 200 522 200 c 0
 524 200 525.439453125 201.490234375 529 205 c 2
 806 478 l 2
 825.013671875 495.846679688 829 544 829 591 c 2
 829 755 l 2
 829 802 825.208984375 850.333007812 807 869 c 2
 529 1154 l 2
 526 1158 523 1160 521 1160 c 0
EndSplineSet
EndChar

StartChar: guillemotleft
Encoding: 106 171 85
Width: 1384
VWidth: 0
Flags: HW
PickledData: "(dp1
S'org.robofab.postScriptHintData'
p2
(dp3
sS'com.typemytype.robofont.layerData'
p4
(dp5
s."
LayerCount: 2
Fore
SplineSet
644 213 m 2
 644 295 l 2
 644 344 619 361 583 397 c 1
 367 623 l 2
 360 630 356 637 356 644 c 0
 356 650 359 657 367 665 c 2
 583 884 l 2
 619 920 644 936 644 985 c 2
 644 1063 l 2
 644 1085 625 1107 598 1107 c 0
 588 1107 577 1103 566 1097 c 1
 269 799 l 2
 229 759 196 728 196 678 c 2
 196 606 l 2
 196 556 229 528 268 488 c 2
 566 179 l 1
 578 173 589 169 598 169 c 0
 625 169 644 191 644 213 c 2
1048 213 m 2
 1048 295 l 2
 1048 344 1023 361 987 397 c 1
 771 623 l 2
 764 630 760 637 760 644 c 0
 760 650 763 657 771 665 c 2
 987 884 l 2
 1023 920 1048 936 1048 985 c 2
 1048 1063 l 2
 1048 1085 1029 1107 1002 1107 c 0
 992 1107 981 1103 970 1097 c 1
 673 799 l 2
 633 759 600 728 600 678 c 2
 600 606 l 2
 600 556 633 528 672 488 c 2
 970 179 l 1
 982 173 993 169 1002 169 c 0
 1029 169 1048 191 1048 213 c 2
EndSplineSet
EndChar

StartChar: guillemotright
Encoding: 118 187 86
Width: 1384
VWidth: 0
Flags: HW
PickledData: "(dp1
S'org.robofab.postScriptHintData'
p2
(dp3
sS'com.typemytype.robofont.layerData'
p4
(dp5
s."
LayerCount: 2
Fore
SplineSet
600 1063 m 2
 600 981 l 2
 600 932 625 915 661 879 c 1
 877 653 l 2
 884 646 888 639 888 632 c 0
 888 626 885 619 877 611 c 2
 661 392 l 2
 625 356 600 340 600 291 c 2
 600 213 l 2
 600 191 619 169 646 169 c 0
 656 169 667 173 678 179 c 1
 975 477 l 2
 1015 517 1048 548 1048 598 c 2
 1048 670 l 2
 1048 720 1015 748 976 788 c 2
 678 1097 l 1
 666 1103 655 1107 646 1107 c 0
 619 1107 600 1085 600 1063 c 2
196 1063 m 2
 196 981 l 2
 196 932 221 915 257 879 c 1
 473 653 l 2
 480 646 484 639 484 632 c 0
 484 626 481 619 473 611 c 2
 257 392 l 2
 221 356 196 340 196 291 c 2
 196 213 l 2
 196 191 215 169 242 169 c 0
 252 169 263 173 274 179 c 1
 571 477 l 2
 611 517 644 548 644 598 c 2
 644 670 l 2
 644 720 611 748 572 788 c 2
 274 1097 l 1
 262 1103 251 1107 242 1107 c 0
 215 1107 196 1085 196 1063 c 2
EndSplineSet
EndChar

StartChar: h
Encoding: 72 104 87
Width: 864
VWidth: 0
Flags: HW
PickledData: "(dp1
S'com.typemytype.robofont.layerData'
p2
(dp3
S'back'
p4
(dp5
S'name'
p6
S'h'
sS'lib'
p7
(dp8
sS'unicodes'
p9
(tsS'width'
p10
I864
sS'contours'
p11
((dp12
S'points'
p13
((dp14
S'segmentType'
p15
S'curve'
p16
sS'x'
F92
sS'smooth'
p17
I01
sS'y'
F0
s(dp18
g15
S'line'
p19
sS'x'
F267
sg17
I01
sS'y'
F0
s(dp20
S'y'
F0
sS'x'
F281
sg17
I00
s(dp21
S'y'
F14
sS'x'
F293
sg17
I00
s(dp22
g15
S'curve'
p23
sS'x'
F293
sg17
I01
sS'y'
F57
s(dp24
g15
S'line'
p25
sS'x'
F293
sg17
I01
sS'y'
F595
s(dp26
S'y'
F758
sS'x'
F293
sg17
I00
s(dp27
S'y'
F859
sS'x'
F347
sg17
I00
s(dp28
g15
S'curve'
p29
sS'x'
F415
sg17
I01
sS'y'
F859
s(dp30
S'y'
F859
sS'x'
F479
sg17
I00
s(dp31
S'y'
F756
sS'x'
F495
sg17
I00
s(dp32
g15
S'curve'
p33
sS'x'
F495
sg17
I01
sS'y'
F595
s(dp34
g15
S'line'
p35
sS'x'
F495
sg17
I01
sS'y'
F57
s(dp36
S'y'
F14
sS'x'
F495
sg17
I00
s(dp37
S'y'
F0
sS'x'
F506
sg17
I00
s(dp38
g15
S'curve'
p39
sS'x'
F521
sg17
I01
sS'y'
F0
s(dp40
g15
S'line'
p41
sS'x'
F701
sg17
I01
sS'y'
F0
s(dp42
S'y'
F0
sS'x'
F716
sg17
I00
s(dp43
S'y'
F14
sS'x'
F727
sg17
I00
s(dp44
g15
S'curve'
p45
sS'x'
F727
sg17
I01
sS'y'
F57
s(dp46
g15
S'line'
p47
sS'x'
F727
sg17
I01
sS'y'
F581
s(dp48
S'y'
F948
sS'x'
F727
sg17
I00
s(dp49
S'y'
F1043
sS'x'
F628
sg17
I00
s(dp50
g15
S'curve'
p51
sS'x'
F474
sg17
I01
sS'y'
F1043
s(dp52
S'y'
F1043
sS'x'
F391
sg17
I00
s(dp53
S'y'
F971
sS'x'
F280
sg17
I00
s(dp54
g15
S'curve'
p55
sS'x'
F235
sg17
I01
sS'y'
F810
s(dp56
S'y'
F803
sS'x'
F233
sg17
I00
s(dp57
S'y'
F799
sS'x'
F231
sg17
I00
s(dp58
g15
S'curve'
p59
sS'x'
F228
sg17
I01
sS'y'
F799
s(dp60
S'y'
F799
sS'x'
F225
sg17
I00
s(dp61
S'y'
F804
sS'x'
F222
sg17
I00
s(dp62
g15
S'curve'
p63
sS'x'
F220
sg17
I01
sS'y'
F812
s(dp64
g15
S'line'
p65
sS'x'
F191
sg17
I01
sS'y'
F942
s(dp66
S'y'
F981
sS'x'
F182
sg17
I00
s(dp67
S'y'
F1006
sS'x'
F165
sg17
I00
s(dp68
g15
S'curve'
p69
sS'x'
F150
sg17
I01
sS'y'
F1006
s(dp70
g15
S'line'
p71
sS'x'
F92
sg17
I01
sS'y'
F1006
s(dp72
S'y'
F1006
sS'x'
F78
sg17
I00
s(dp73
S'y'
F972
sS'x'
F66
sg17
I00
s(dp74
g15
S'curve'
p75
sS'x'
F66
sg17
I01
sS'y'
F929
s(dp76
g15
S'line'
p77
sS'x'
F66
sg17
I01
sS'y'
F57
s(dp78
S'y'
F14
sS'x'
F66
sg17
I00
s(dp79
S'y'
F0
sS'x'
F78
sg17
I00
stp80
stp81
sS'components'
p82
(tsS'anchors'
p83
(tsss."
LayerCount: 2
Fore
SplineSet
136 0 m 2
 315 0 l 2
 329 0 341 4 341 47 c 2
 341 574 l 2
 341 757 383 841 450 841 c 0
 514 841 538 765 538 574 c 2
 538 47 l 2
 538 4 549 0 564 0 c 2
 744 0 l 2
 759 0 770 4 770 47 c 2
 770 561 l 2
 770 913 666 1017 544 1017 c 0
 485 1017 400 985 355 896 c 0
 353 892 350 889 348 889 c 0
 344 889 341 894 341 909 c 2
 341 1385 l 2
 341 1428 329 1436 315 1436 c 2
 136 1436 l 2
 121 1436 109 1428 109 1385 c 2
 109 47 l 2
 109 4 121 0 136 0 c 2
EndSplineSet
EndChar

StartChar: hungarumlaut
Encoding: 355 733 88
Width: 599
VWidth: 0
Flags: HW
LayerCount: 2
Fore
SplineSet
353 1171 m 0
 366 1171 371 1171 391 1171 c 0
 403 1171 406 1193 410 1210 c 2
 486 1557 l 2
 488 1569 491 1583 491 1594 c 0
 491 1610 487 1622 480 1622 c 2
 386 1622 l 2
 371 1622 364 1610 361 1567 c 2
 340 1238 l 2
 339 1224 339 1212 339 1203 c 0
 339 1176 343 1171 353 1171 c 0
176 1171 m 0
 189 1171 194 1171 213 1171 c 0
 227 1171 229 1193 232 1210 c 2
 309 1557 l 2
 311 1569 313 1583 313 1594 c 0
 313 1610 310 1622 304 1622 c 2
 209 1622 l 2
 194 1622 186 1610 183 1567 c 2
 163 1238 l 2
 162 1224 161 1212 161 1203 c 0
 161 1176 166 1171 176 1171 c 0
EndSplineSet
EndChar

StartChar: hyphen
Encoding: 13 45 89
Width: 616
VWidth: 0
Flags: HW
PickledData: "(dp1
S'com.typemytype.robofont.layerData'
p2
(dp3
S'back'
p4
(dp5
S'name'
p6
S'hyphen'
p7
sS'lib'
p8
(dp9
sS'unicodes'
p10
(tsS'width'
p11
I616
sS'contours'
p12
(tsS'components'
p13
(tsS'anchors'
p14
(tsss."
LayerCount: 2
Fore
SplineSet
127 526 m 2
 486 526 l 2
 501 526 512 530 512 573 c 2
 512 671 l 2
 512 714 501 718 486 718 c 2
 127 718 l 2
 112 718 100 714 100 671 c 2
 100 573 l 2
 100 530 112 526 127 526 c 2
EndSplineSet
EndChar

StartChar: i
Encoding: 73 105 90
Width: 407
VWidth: 0
Flags: HW
PickledData: "(dp1
S'com.typemytype.robofont.guides'
p2
(tsS'com.typemytype.robofont.layerData'
p3
(dp4
S'back'
p5
(dp6
S'name'
p7
S'i'
sS'lib'
p8
(dp9
sS'unicodes'
p10
(tsS'width'
p11
I407
sS'contours'
p12
(tsS'components'
p13
(tsS'anchors'
p14
(tsss."
LayerCount: 2
Fore
SplineSet
135 1152 m 2
 290 1152 l 2
 304 1152 316 1166 316 1209 c 2
 316 1381 l 2
 316 1424 304 1438 290 1438 c 2
 135 1438 l 2
 120 1438 109 1424 109 1381 c 2
 109 1209 l 2
 109 1166 120 1152 135 1152 c 2
135 0 m 2
 290 0 l 2
 304 0 316 34 316 77 c 2
 316 929 l 2
 316 972 304 1006 290 1006 c 2
 135 1006 l 2
 120 1006 109 972 109 929 c 2
 109 77 l 2
 109 34 120 0 135 0 c 2
EndSplineSet
EndChar

StartChar: j
Encoding: 74 106 91
Width: 451
VWidth: 0
Flags: HW
PickledData: "(dp1
S'com.typemytype.robofont.layerData'
p2
(dp3
S'back'
p4
(dp5
S'name'
p6
S'j'
sS'lib'
p7
(dp8
sS'unicodes'
p9
(tsS'width'
p10
I451
sS'contours'
p11
(tsS'components'
p12
(tsS'anchors'
p13
(tsss."
LayerCount: 2
Fore
SplineSet
175 1152 m 2
 330 1152 l 2
 344 1152 356 1166 356 1209 c 2
 356 1381 l 2
 356 1424 344 1438 330 1438 c 2
 175 1438 l 2
 160 1438 148 1424 148 1381 c 2
 148 1209 l 2
 148 1166 160 1152 175 1152 c 2
31 -358 m 0
 63 -358 94 -358 139 -358 c 0
 242 -358 356 -333 356 -8 c 2
 356 929 l 2
 356 972 345 1006 330 1006 c 2
 175 1006 l 2
 160 1006 149 972 149 929 c 2
 149 -20 l 2
 149 -132 108 -140 70 -140 c 0
 56 -140 40 -140 30 -140 c 0
 15 -140 4 -166 4 -207 c 0
 4 -258 4 -232 4 -283 c 0
 4 -327 16 -358 31 -358 c 0
EndSplineSet
EndChar

StartChar: k
Encoding: 75 107 92
Width: 746
VWidth: 0
Flags: HW
PickledData: "(dp1
S'com.typemytype.robofont.layerData'
p2
(dp3
S'back'
p4
(dp5
S'name'
p6
S'k'
sS'lib'
p7
(dp8
sS'unicodes'
p9
(tsS'width'
p10
I746
sS'contours'
p11
(tsS'components'
p12
(tsS'anchors'
p13
(tsss."
LayerCount: 2
Fore
SplineSet
136 0 m 2
 291 0 l 2
 305 0 317 14 317 57 c 2
 317 277 l 2
 317 300 320 323 326 338 c 2
 354 416 l 1
 355 422 359 425 362 425 c 0
 366 425 368 421 371 413 c 2
 475 37 l 1
 486 2 494 0 509 0 c 2
 704 0 l 2
 710 0 715 16 715 32 c 0
 715 40 713 48 711 54 c 2
 535 541 l 2
 532 547 532 555 532 563 c 0
 532 573 533 583 536 589 c 2
 694 961 l 2
 697 966 698 973 698 981 c 0
 698 994 695 1006 690 1006 c 2
 495 1006 l 2
 479 1006 462 988 451 960 c 2
 327 660 l 2
 326 658 324 656 324 656 c 1
 320 656 317 664 317 675 c 2
 317 1418 l 2
 317 1461 305 1475 291 1475 c 2
 136 1475 l 2
 121 1475 109 1461 109 1418 c 2
 109 57 l 2
 109 14 121 0 136 0 c 2
EndSplineSet
EndChar

StartChar: l
Encoding: 76 108 93
Width: 408
VWidth: 0
Flags: HW
PickledData: "(dp1
S'com.typemytype.robofont.layerData'
p2
(dp3
S'back'
p4
(dp5
S'name'
p6
S'l'
sS'lib'
p7
(dp8
sS'unicodes'
p9
(tsS'width'
p10
I408
sS'contours'
p11
(tsS'components'
p12
(tsS'anchors'
p13
(tsss."
LayerCount: 2
Fore
SplineSet
137 0 m 2
 292 0 l 2
 306 0 318 4 318 47 c 2
 318 1418 l 2
 318 1461 306 1475 292 1475 c 2
 137 1475 l 2
 122 1475 110 1461 110 1418 c 2
 110 47 l 2
 110 4 122 0 137 0 c 2
EndSplineSet
EndChar

StartChar: less
Encoding: 28 60 94
Width: 918
VWidth: 0
Flags: HW
PickledData: "(dp1
S'com.typemytype.robofont.layerData'
p2
(dp3
S'back'
p4
(dp5
S'name'
p6
S'less'
p7
sS'lib'
p8
(dp9
sS'unicodes'
p10
(tsS'width'
p11
I576
sS'contours'
p12
(tsS'components'
p13
(tsS'anchors'
p14
(tsss."
LayerCount: 2
Fore
SplineSet
814 200 m 0
 821 200 829 219 829 246 c 2
 829 406 l 2
 829 452 820 496 805 516 c 2
 633 674 l 2
 629.875976562 676.869140625 629 684 629 690 c 0
 629 696 628.6796875 703.005859375 632 706 c 2
 805 862 l 2
 819 881 829 925 829 971 c 2
 829 1114 l 2
 829 1141 821 1160 813 1160 c 0
 811 1160 809.560546875 1158.50976562 806 1155 c 2
 529 882 l 2
 509.986328125 864.153320312 506 816 506 769 c 2
 506 605 l 2
 506 558 509.791015625 509.666992188 528 491 c 2
 806 206 l 2
 809 202 812 200 814 200 c 0
419 200 m 0
 426 200 434 219 434 246 c 2
 434 406 l 2
 434 452 425 496 410 516 c 2
 238 674 l 2
 234.875976562 676.869140625 234 684 234 690 c 0
 234 696 233.6796875 703.005859375 237 706 c 2
 410 862 l 2
 424 881 434 925 434 971 c 2
 434 1114 l 2
 434 1141 426 1160 418 1160 c 0
 416 1160 414.560546875 1158.50976562 411 1155 c 2
 134 882 l 2
 114.986328125 864.153320312 111 816 111 769 c 2
 111 605 l 2
 111 558 114.791015625 509.666992188 133 491 c 2
 411 206 l 2
 414 202 417 200 419 200 c 0
EndSplineSet
EndChar

StartChar: logicalnot
Encoding: 107 172 95
Width: 1270
VWidth: 0
Flags: HW
PickledData: "(dp1
S'org.robofab.postScriptHintData'
p2
(dp3
sS'com.typemytype.robofont.layerData'
p4
(dp5
s."
LayerCount: 2
Fore
SplineSet
941 200 m 2
 1068 200 l 2
 1111 200 1131 234 1131 277 c 2
 1131 722 l 2
 1131 765 1097 792 1054 792 c 2
 189 792 l 2
 146 792 126 772 126 729 c 2
 126 640 l 2
 126 597 146 577 189 577 c 2
 842 577 l 2
 862 577 879 560 879 540 c 2
 879 277 l 2
 879 234 898 200 941 200 c 2
EndSplineSet
EndChar

StartChar: m
Encoding: 77 109 96
Width: 1151
VWidth: 0
Flags: HW
PickledData: "(dp1
S'com.typemytype.robofont.layerData'
p2
(dp3
S'back'
p4
(dp5
S'name'
p6
S'm'
sS'lib'
p7
(dp8
sS'unicodes'
p9
(tsS'width'
p10
I1151
sS'contours'
p11
(tsS'components'
p12
(tsS'anchors'
p13
(tsss."
LayerCount: 2
Fore
SplineSet
135 0 m 2
 297 0 l 2
 311 0 323 34 323 77 c 2
 323 552 l 2
 323 738 332 842 403 842 c 0
 452 842 478 795 478 577 c 2
 478 77 l 2
 478 34 489 0 505 0 c 2
 664 0 l 2
 679 0 690 34 690 77 c 2
 690 569 l 2
 690 835 735 842 770 842 c 0
 825 842 845 799 845 597 c 2
 845 77 l 2
 845 34 856 0 871 0 c 2
 1031 0 l 2
 1046 0 1057 34 1057 77 c 2
 1057 599 l 2
 1057 962 953 1017 833 1017 c 0
 770 1017 682 963 649 847 c 0
 647 840 644 837 640 837 c 0
 637 837 633 840 631 847 c 0
 595 964 522 1017 454 1017 c 0
 378 1017 305 982 265 822 c 0
 263 814 261 811 258 811 c 0
 255 811 252 815 250 823 c 2
 226 942 l 1
 217 981 200 1006 185 1006 c 2
 135 1006 l 2
 121 1006 109 972 109 929 c 2
 109 77 l 2
 109 34 121 0 135 0 c 2
EndSplineSet
EndChar

StartChar: macron
Encoding: 110 175 97
Width: 1079
VWidth: 0
Flags: HW
PickledData: "(dp1
S'org.robofab.postScriptHintData'
p2
(dp3
sS'com.typemytype.robofont.layerData'
p4
(dp5
s."
LayerCount: 2
Fore
SplineSet
368 1087 m 6
 723 1087 l 6
 753 1087 767 1106 767 1136 c 6
 767 1179 l 6
 767 1209 753 1228 723 1228 c 6
 368 1228 l 6
 338 1228 325 1209 325 1179 c 6
 325 1136 l 6
 325 1106 338 1087 368 1087 c 6
EndSplineSet
EndChar

StartChar: minus
Encoding: 418 8722 98
Width: 1284
VWidth: 0
Flags: HW
PickledData: "(dp1
S'org.robofab.postScriptHintData'
p2
(dp3
sS'com.typemytype.robofont.layerData'
p4
(dp5
s."
LayerCount: 2
Fore
SplineSet
198 565 m 2
 1086 565 l 2
 1129 565 1156 592 1156 635 c 2
 1156 715 l 2
 1156 758 1129 785 1086 785 c 2
 198 785 l 2
 155 785 128 758 128 715 c 2
 128 635 l 2
 128 592 155 565 198 565 c 2
EndSplineSet
EndChar

StartChar: mu
Encoding: 419 956 99
Width: 818
VWidth: 0
Flags: HW
PickledData: "(dp1
S'com.typemytype.robofont.layerData'
p2
(dp3
s."
LayerCount: 2
Fore
SplineSet
353 -10 m 0
 437 -10 533 59 566 192 c 0
 568 199 570 203 573 203 c 0
 575 203 579 198 581 190 c 2
 611 44 l 2
 620 5 636 0 652 0 c 2
 689 0 l 2
 704 0 716 14 716 57 c 2
 716 959 l 2
 716 1002 704 1006 689 1006 c 2
 534 1006 l 2
 519 1006 507 1002 507 959 c 2
 507 407 l 2
 507 274 475 165 408 165 c 0
 344 165 311 228 311 359 c 2
 311 959 l 2
 311 1002 299 1006 285 1006 c 2
 121 1006 l 2
 105 1006 94 1002 94 959 c 2
 94 372 l 2
 94 67 223 -10 353 -10 c 0
EndSplineSet
EndChar

StartChar: multiply
Encoding: 146 215 100
Width: 801
VWidth: 0
Flags: HW
PickledData: "(dp1
S'com.typemytype.robofont.layerData'
p2
(dp3
s."
LayerCount: 2
Fore
SplineSet
585 304 m 0
 593 304 600 309 606 315 c 2
 678 387 l 2
 684 393 689 399 689 407 c 0
 689 415 683 426 668 441 c 2
 516 593 l 1
 668 745 l 2
 683 760 688 771 688 779 c 0
 688 787 683 794 677 800 c 2
 605 872 l 2
 599 878 593 883 585 883 c 0
 577 883 566 877 551 862 c 2
 399 710 l 1
 247 862 l 2
 232 877 221 883 213 883 c 0
 205 883 199 878 193 872 c 2
 121 800 l 2
 115 794 110 787 110 779 c 0
 110 771 115 760 130 745 c 2
 282 593 l 1
 130 441 l 2
 115 426 109 415 109 407 c 0
 109 399 114 393 120 387 c 2
 192 315 l 2
 198 309 205 304 213 304 c 0
 221 304 232 309 247 324 c 2
 399 476 l 1
 551 324 l 2
 566 309 577 304 585 304 c 0
EndSplineSet
EndChar

StartChar: n
Encoding: 78 110 101
Width: 869
VWidth: 0
Flags: HW
PickledData: "(dp1
S'com.typemytype.robofont.layerData'
p2
(dp3
S'back'
p4
(dp5
S'name'
p6
S'n'
sS'lib'
p7
(dp8
sS'unicodes'
p9
(tsS'width'
p10
I869
sS'contours'
p11
((dp12
S'points'
p13
((dp14
S'segmentType'
p15
S'curve'
p16
sS'x'
F507
sS'smooth'
p17
I01
sS'y'
F-31
s(dp18
S'y'
F-31
sS'x'
F639
sg17
I00
s(dp19
S'y'
F0
sS'x'
F835
sg17
I00
s(dp20
g15
S'curve'
p21
sS'x'
F835
sg17
I01
sS'y'
F508
s(dp22
S'y'
F1006
sS'x'
F835
sg17
I00
s(dp23
S'y'
F1043
sS'x'
F626
sg17
I00
s(dp24
g15
S'curve'
p25
sS'x'
F507
sg17
I01
sS'y'
F1043
s(dp26
S'y'
F1043
sS'x'
F388
sg17
I00
s(dp27
S'y'
F1006
sS'x'
F179
sg17
I00
s(dp28
g15
S'curve'
p29
sS'x'
F179
sg17
I01
sS'y'
F508
s(dp30
S'y'
F0
sS'x'
F179
sg17
I00
s(dp31
S'y'
F-31
sS'x'
F375
sg17
I00
stp32
s(dp33
g13
((dp34
g15
S'curve'
p35
sS'x'
F507
sg17
I01
sS'y'
F154
s(dp36
S'y'
F154
sS'x'
F441
sg17
I00
s(dp37
S'y'
F209
sS'x'
F405
sg17
I00
s(dp38
g15
S'curve'
p39
sS'x'
F405
sg17
I01
sS'y'
F508
s(dp40
S'y'
F772
sS'x'
F405
sg17
I00
s(dp41
S'y'
F849
sS'x'
F440
sg17
I00
s(dp42
g15
S'curve'
p43
sS'x'
F507
sg17
I01
sS'y'
F849
s(dp44
S'y'
F849
sS'x'
F574
sg17
I00
s(dp45
S'y'
F772
sS'x'
F608
sg17
I00
s(dp46
g15
S'curve'
p47
sS'x'
F608
sg17
I01
sS'y'
F508
s(dp48
S'y'
F209
sS'x'
F608
sg17
I00
s(dp49
S'y'
F154
sS'x'
F572
sg17
I00
stp50
stp51
sS'components'
p52
(tsS'anchors'
p53
(tsss."
LayerCount: 2
Fore
SplineSet
135 0 m 2
 315 0 l 2
 329 0 341 4 341 47 c 2
 341 578 l 2
 341 741 395 842 463 842 c 0
 527 842 543 739 543 578 c 2
 543 47 l 2
 543 4 554 0 569 0 c 2
 749 0 l 2
 764 0 775 4 775 47 c 2
 775 555 l 2
 775 922 676 1017 522 1017 c 0
 439 1017 333 1001 280 843 c 0
 279 839 276 836 273 836 c 0
 270 836 267 839 265 845 c 2
 239 962 l 2
 230 1001 213 1006 198 1006 c 2
 135 1006 l 2
 121 1006 109 992 109 949 c 2
 109 47 l 2
 109 4 121 0 135 0 c 2
EndSplineSet
EndChar

StartChar: nine
Encoding: 25 57 102
Width: 941
VWidth: 0
Flags: HW
PickledData: "(dp1
S'com.typemytype.robofont.layerData'
p2
(dp3
S'back'
p4
(dp5
S'name'
p6
S'nine'
p7
sS'lib'
p8
(dp9
sS'unicodes'
p10
(tsS'width'
p11
I941
sS'contours'
p12
((dp13
S'points'
p14
((dp15
S'segmentType'
p16
S'curve'
p17
sS'x'
F423
sS'smooth'
p18
I01
sS'y'
F-34
s(dp19
S'y'
F-34
sS'x'
F695
sg18
I00
s(dp20
S'y'
F92
sS'x'
F820
sg18
I00
s(dp21
g16
S'curve'
p22
sS'x'
F820
sg18
I01
sS'y'
F721
s(dp23
S'y'
F1343
sS'x'
F820
sg18
I00
s(dp24
S'y'
F1468
sS'x'
F685
sg18
I00
s(dp25
g16
S'curve'
p26
sS'x'
F423
sg18
I01
sS'y'
F1468
s(dp27
S'y'
F1468
sS'x'
F162
sg18
I00
s(dp28
S'y'
F1343
sS'x'
F26
sg18
I00
s(dp29
g16
S'curve'
p30
sS'x'
F26
sg18
I01
sS'y'
F721
s(dp31
S'y'
F92
sS'x'
F26
sg18
I00
s(dp32
S'y'
F-34
sS'x'
F152
sg18
I00
stp33
s(dp34
g14
((dp35
g16
S'curve'
p36
sS'x'
F422
sg18
I01
sS'y'
F195
s(dp37
S'y'
F195
sS'x'
F316
sg18
I00
s(dp38
S'y'
F298
sS'x'
F288
sg18
I00
s(dp39
g16
S'curve'
p40
sS'x'
F288
sg18
I01
sS'y'
F721
s(dp41
S'y'
F1144
sS'x'
F288
sg18
I00
s(dp42
S'y'
F1245
sS'x'
F314
sg18
I00
s(dp43
g16
S'curve'
p44
sS'x'
F424
sg18
I01
sS'y'
F1245
s(dp45
S'y'
F1245
sS'x'
F535
sg18
I00
s(dp46
S'y'
F1144
sS'x'
F558
sg18
I00
s(dp47
g16
S'curve'
p48
sS'x'
F558
sg18
I01
sS'y'
F721
s(dp49
S'y'
F298
sS'x'
F558
sg18
I00
s(dp50
S'y'
F195
sS'x'
F529
sg18
I00
stp51
stp52
sS'components'
p53
(tsS'anchors'
p54
(tsss."
LayerCount: 2
Fore
SplineSet
453 720 m 0
 385 720 367 824 367 969 c 0
 367 1196 403 1244 461 1244 c 0
 521 1244 564 1187 564 932 c 2
 564 761 l 1
 524 735 486 720 453 720 c 0
447 -34 m 0
 735 -34 827 198 827 778 c 0
 827 1308 677 1468 467 1468 c 0
 260 1468 111 1380 111 989 c 0
 111 708 212 502 436 502 c 0
 482 502 521 527 564 546 c 1
 564 530 l 2
 564 310 543 196 432 196 c 0
 318 196 207 256 195 263 c 0
 192 265 189 266 187 266 c 0
 178 266 173 253 171 222 c 2
 163 117 l 2
 163 112 163 108 163 104 c 0
 163 74 168 63 181 53 c 0
 219 20 365 -34 447 -34 c 0
EndSplineSet
EndChar

StartChar: numbersign
Encoding: 3 35 103
Width: 761
VWidth: 0
Flags: HW
PickledData: "(dp1
S'com.typemytype.robofont.layerData'
p2
(dp3
S'back'
p4
(dp5
S'name'
p6
S'numbersign'
p7
sS'lib'
p8
(dp9
sS'unicodes'
p10
(tsS'width'
p11
I761
sS'contours'
p12
(tsS'components'
p13
(tsS'anchors'
p14
(tsss."
LayerCount: 2
Fore
SplineSet
303 536 m 1
 325 807 l 1
 446 807 l 1
 425 536 l 1
 303 536 l 1
129 -134 m 2
 229 -134 l 2
 236 -134 243 -120 244 -99 c 2
 286 381 l 1
 408 381 l 1
 367 -99 l 2
 365 -116 370 -134 375 -134 c 2
 470 -134 l 2
 478 -134 485 -120 486 -99 c 2
 528 381 l 1
 611 381 l 2
 626 381 635 395 635 438 c 2
 635 479 l 2
 635 522 626 536 611 536 c 2
 546 536 l 1
 567 807 l 1
 642 807 l 2
 656 807 665 821 665 864 c 2
 665 909 l 2
 665 952 656 966 642 966 c 2
 584 966 l 1
 630 1472 l 2
 632 1489 628 1507 621 1507 c 2
 527 1507 l 2
 519 1507 512 1493 511 1472 c 2
 464 966 l 1
 342 966 l 1
 388 1472 l 2
 389 1489 385 1507 379 1507 c 2
 281 1507 l 2
 274 1507 266 1493 264 1472 c 2
 218 966 l 1
 138 966 l 2
 124 966 115 952 115 909 c 2
 115 864 l 2
 115 821 124 807 138 807 c 2
 200 807 l 1
 179 536 l 1
 108 536 l 2
 93 536 84 522 84 479 c 2
 84 438 l 2
 84 395 93 381 108 381 c 2
 161 381 l 1
 121 -99 l 2
 119 -116 123 -134 129 -134 c 2
EndSplineSet
EndChar

StartChar: o
Encoding: 79 111 104
Width: 819
VWidth: 0
Flags: HW
PickledData: "(dp1
S'com.typemytype.robofont.guides'
p2
(tsS'com.typemytype.robofont.layerData'
p3
(dp4
S'back'
p5
(dp6
S'name'
p7
S'o'
sS'lib'
p8
(dp9
sS'unicodes'
p10
(tsS'width'
p11
I819
sS'contours'
p12
(tsS'components'
p13
(tsS'anchors'
p14
(tsss."
LayerCount: 2
Fore
SplineSet
410 -10 m 0
 542 -10 737 0 737 508 c 0
 737 1006 529 1017 410 1017 c 0
 291 1017 82 1006 82 508 c 0
 82 0 278 -10 410 -10 c 0
410 165 m 0
 344 165 308 209 308 508 c 0
 308 782 343 842 410 842 c 0
 477 842 511 782 511 508 c 0
 511 209 475 165 410 165 c 0
EndSplineSet
EndChar

StartChar: ogonek
Encoding: 353 731 105
Width: 716
VWidth: 0
Flags: HW
PickledData: "(dp1
S'org.robofab.postScriptHintData'
p2
(dp3
sS'com.typemytype.robofont.layerData'
p4
(dp5
s."
LayerCount: 2
Fore
SplineSet
413 -371 m 2
 479 -371 l 2
 492 -371 495 -364 495 -354 c 2
 495 -283 l 2
 495 -272 479 -273 479 -273 c 1
 460 -273 l 2
 371 -273 359 -196 359 -120 c 0
 359 -31 385 0 432 0 c 1
 435 45 l 1
 293 45 182 -22 182 -194 c 0
 182 -276 255 -371 413 -371 c 2
EndSplineSet
EndChar

StartChar: one
Encoding: 17 49 106
Width: 608
VWidth: 0
Flags: HW
PickledData: "(dp1
S'com.typemytype.robofont.layerData'
p2
(dp3
S'back'
p4
(dp5
S'name'
p6
S'one'
p7
sS'lib'
p8
(dp9
sS'unicodes'
p10
(tsS'width'
p11
I608
sS'contours'
p12
(tsS'components'
p13
(tsS'anchors'
p14
(tsss."
LayerCount: 2
Fore
SplineSet
213 0 m 2
 431 0 l 2
 446 0 458 24 458 67 c 2
 458 1381 l 2
 458 1419.77272611 448.243433488 1436.59317757 435.328358855 1436.59317757 c 0
 433.920267054 1436.59317757 432.474630426 1436.39323478 431 1436 c 2
 105 1355 l 2
 91 1352 79 1339 79 1296 c 2
 79 1167 l 2
 79 1128.22727389 87.943519303 1111.40682243 100.698734715 1111.40682243 c 0
 102.089397546 1111.40682243 103.525369574 1111.60676522 105 1112 c 2
 174 1128 l 2
 181 1129 187 1112 187 1092 c 2
 187 67 l 2
 187 24 199 0 213 0 c 2
EndSplineSet
EndChar

StartChar: onehalf
Encoding: 120 189 107
Width: 1129
VWidth: 0
Flags: HW
PickledData: "(dp1
S'org.robofab.postScriptHintData'
p2
(dp3
sS'com.typemytype.robofont.layerData'
p4
(dp5
s."
LayerCount: 2
Fore
SplineSet
181 418 m 2
 316 418 l 2
 327 418 336 435 336 466 c 2
 336 1401 l 2
 336 1432 327 1443 316 1440 c 2
 104 1383 l 2
 94 1381 86 1371 86 1341 c 2
 86 1249 l 2
 86 1218 94 1207 104 1210 c 2
 153 1221 l 2
 158 1222 163 1210 163 1195 c 2
 163 466 l 2
 163 435 171 418 181 418 c 2
1164 -1 m 2
 1172 -1 1175 9 1175 40 c 2
 1175 91 l 2
 1175 124 1171 136 1165 136 c 2
 970 136 l 2
 963 136 953 141 953 164 c 0
 953 175 955 179 956 183 c 0
 1044 504 1149 532 1198 746 c 0
 1205 777 1206 805 1206 829 c 0
 1206 1013 1064 1040 960 1040 c 1
 907 1039 828 1018 802 984 c 0
 797 976 794 961 794 936 c 0
 794 933 797 900 804 853 c 1
 804 838 809 832 816 832 c 0
 819 832 822 835 826 839 c 0
 831 845 889 884 954 884 c 0
 992 884 1044 852 1044 793 c 0
 1044 785 1043 776 1041 766 c 0
 1005 619 814 460 782 105 c 0
 781 97 780 69 780 62 c 0
 780 23 788 -1 801 -1 c 2
 1164 -1 l 2
480 -19 m 2
 487 -19 495 -6 498 14 c 1
 794 1443 l 2
 794.701428863 1446.50714432 795.020189154 1450.17828945 795.020189154 1453.74502061 c 0
 795.020189154 1465.43314146 791.597142274 1476 787 1476 c 2
 674 1476 l 2
 667 1476 659 1463 656 1443 c 1
 359 14 l 2
 358.639607805 11.2970585408 358.474039412 8.49670518113 358.474039412 5.72181263106 c 0
 358.474039412 -6.90258809957 361.900980486 -19 366 -19 c 2
 480 -19 l 2
EndSplineSet
EndChar

StartChar: onequarter
Encoding: 119 188 108
Width: 1384
VWidth: 0
Flags: HW
PickledData: "(dp1
S'org.robofab.postScriptHintData'
p2
(dp3
sS'com.typemytype.robofont.layerData'
p4
(dp5
s."
LayerCount: 2
Fore
SplineSet
1069 0 m 2
 1163 0 l 2
 1181 0 1191 18 1191 48 c 2
 1191 204 l 1
 1265 204 l 2
 1282 204 1293 222 1293 251 c 2
 1293 308 l 2
 1293 338 1282 356 1265 356 c 2
 1191 356 l 1
 1191 975 l 2
 1191 1005 1181 1024 1163 1024 c 2
 1069 1024 l 2
 1052 1024 1042 1005 1042 975 c 2
 1042 356 l 1
 919 356 l 2
 912 356 907 364 907 375 c 0
 907 376 907 377 907 380 c 2
 954 975 l 2
 954 979 954 982 954 985 c 0
 954 1009 941 1024 926 1024 c 2
 849 1024 l 2
 832 1024 827 1005 822 975 c 1
 746 251 l 2
 745 248 744 246 744 242 c 0
 744 219 758 204 773 204 c 2
 1042 204 l 1
 1042 48 l 2
 1042 18 1052 0 1069 0 c 2
181 418 m 2
 316 418 l 2
 327 418 336 435 336 466 c 2
 336 1401 l 2
 336 1432 327 1443 316 1440 c 2
 104 1383 l 2
 94 1381 86 1371 86 1341 c 2
 86 1249 l 2
 86 1218 94 1207 104 1210 c 2
 153 1221 l 2
 158 1222 163 1210 163 1195 c 2
 163 466 l 2
 163 435 171 418 181 418 c 2
480 -19 m 2
 487 -19 495 -6 498 14 c 1
 794 1443 l 2
 794.701428863 1446.50714432 795.020189154 1450.17828945 795.020189154 1453.74502061 c 0
 795.020189154 1465.43314146 791.597142274 1476 787 1476 c 2
 674 1476 l 2
 667 1476 659 1463 656 1443 c 1
 359 14 l 2
 358.639607805 11.2970585408 358.474039412 8.49670518113 358.474039412 5.72181263106 c 0
 358.474039412 -6.90258809957 361.900980486 -19 366 -19 c 2
 480 -19 l 2
EndSplineSet
EndChar

StartChar: onesuperior
Encoding: 65536 -1 109
Width: 496
VWidth: 0
Flags: HW
PickledData: "(dp1
S'org.robofab.postScriptHintData'
p2
(dp3
sS'com.typemytype.robofont.layerData'
p4
(dp5
s."
LayerCount: 2
Fore
SplineSet
181 418 m 2
 316 418 l 2
 327 418 336 435 336 466 c 2
 336 1401 l 2
 336 1428.751516 328.787388383 1440.47500619 319.384123382 1440.47500619 c 0
 318.283413933 1440.47500619 317.15268787 1440.31436942 316 1440 c 2
 104 1383 l 2
 94 1381 86 1371 86 1341 c 2
 86 1249 l 2
 86 1218 94 1207 104 1210 c 2
 153 1221 l 2
 158 1222 163 1210 163 1195 c 2
 163 466 l 2
 163 435 171 418 181 418 c 2
EndSplineSet
EndChar

StartChar: ordfeminine
Encoding: 105 170 110
Width: 766
VWidth: 0
Flags: HW
PickledData: "(dp1
S'com.typemytype.robofont.layerData'
p2
(dp3
S'back'
p4
(dp5
S'name'
p6
S'ordfeminine'
p7
sS'lib'
p8
(dp9
sS'unicodes'
p10
(tsS'width'
p11
F766
sS'contours'
p12
((dp13
S'points'
p14
((dp15
S'segmentType'
p16
S'curve'
p17
sS'x'
F359
sS'smooth'
p18
I01
sS'y'
F663
s(dp19
S'y'
F663
sS'x'
F471
sg18
I00
s(dp20
S'y'
F670
sS'x'
F636
sg18
I00
s(dp21
g16
S'curve'
p22
sS'x'
F636
sg18
I01
sS'y'
F1065
s(dp23
S'y'
F1451
sS'x'
F636
sg18
I00
s(dp24
S'y'
F1460
sS'x'
F460
sg18
I00
s(dp25
g16
S'curve'
p26
sS'x'
F359
sg18
I01
sS'y'
F1460
s(dp27
S'y'
F1460
sS'x'
F257
sg18
I00
s(dp28
S'y'
F1451
sS'x'
F80
sg18
I00
s(dp29
g16
S'curve'
p30
sS'x'
F80
sg18
I01
sS'y'
F1065
s(dp31
S'y'
F670
sS'x'
F80
sg18
I00
s(dp32
S'y'
F663
sS'x'
F246
sg18
I00
stp33
s(dp34
g14
((dp35
g16
S'curve'
p36
sS'x'
F359
sg18
I01
sS'y'
F798
s(dp37
S'y'
F798
sS'x'
F302
sg18
I00
s(dp38
S'y'
F833
sS'x'
F272
sg18
I00
s(dp39
g16
S'curve'
p40
sS'x'
F272
sg18
I01
sS'y'
F1065
s(dp41
S'y'
F1278
sS'x'
F272
sg18
I00
s(dp42
S'y'
F1324
sS'x'
F302
sg18
I00
s(dp43
g16
S'curve'
p44
sS'x'
F359
sg18
I01
sS'y'
F1324
s(dp45
S'y'
F1324
sS'x'
F415
sg18
I00
s(dp46
S'y'
F1278
sS'x'
F444
sg18
I00
s(dp47
g16
S'curve'
p48
sS'x'
F444
sg18
I01
sS'y'
F1065
s(dp49
S'y'
F833
sS'x'
F444
sg18
I00
s(dp50
S'y'
F798
sS'x'
F414
sg18
I00
stp51
stp52
sS'components'
p53
(tsS'anchors'
p54
(tsss."
LayerCount: 2
Fore
SplineSet
331 783 m 0
 297 783 287 818 287 865 c 0
 287 967 349 1013 429 1041 c 0
 430 1041 434 1042 435 1042 c 0
 443 1042 443 987 443 976 c 0
 443 887 388 783 331 783 c 0
299 662 m 0
 396 662 441 732 464 818 c 0
 465 821 466 822 468 822 c 0
 474.602047425 822 513.949257604 718.342078708 518 707 c 0
 527 682 537 672 548 672 c 2
 583 672 l 2
 593 672 600 686 600 713 c 2
 600 1120 l 2
 600 1390 507 1460 383 1460 c 0
 255 1460 187 1407 162 1304 c 0
 157 1282 159 1251 168 1249 c 2
 168 1249 279 1219 280 1219 c 0
 286 1219 291 1222 295 1237 c 0
 309 1295 332 1324 369 1324 c 0
 420 1324 439 1282 439 1189 c 0
 439 1185 439 1157 439 1151 c 0
 439 1117 139 1172 139 856 c 0
 139 720 204 662 299 662 c 0
EndSplineSet
EndChar

StartChar: ordmasculine
Encoding: 117 186 111
Width: 716
VWidth: 0
Flags: HW
PickledData: "(dp1
S'com.typemytype.robofont.guides'
p2
(tsS'com.typemytype.robofont.layerData'
p3
(dp4
s."
LayerCount: 2
Fore
SplineSet
359 663 m 0
 471 663 636 670 636 1065 c 0
 636 1451 460 1460 359 1460 c 0
 257 1460 80 1451 80 1065 c 0
 80 670 246 663 359 663 c 0
359 798 m 0
 302 798 272 833 272 1065 c 0
 272 1278 302 1324 359 1324 c 0
 415 1324 444 1278 444 1065 c 0
 444 833 414 798 359 798 c 0
EndSplineSet
EndChar

StartChar: oslash
Encoding: 179 248 112
Width: 819
VWidth: 0
Flags: HW
PickledData: "(dp1
S'com.typemytype.robofont.guides'
p2
(tsS'com.typemytype.robofont.layerData'
p3
(dp4
S'back'
p5
(dp6
S'name'
p7
S'oslash'
p8
sS'lib'
p9
(dp10
sS'unicodes'
p11
(tsS'width'
p12
I819
sS'contours'
p13
(tsS'components'
p14
(tsS'anchors'
p15
(tsss."
LayerCount: 2
Fore
SplineSet
195 -92 m 2
 195.251984252 -92.062996063 195.511905512 -92.0942440944 195.778763779 -92.0942440944 c 0
 199.748015748 -92.0942440944 205.251984252 -85.1810511811 209 -73 c 1
 686 1046 l 2
 689.125 1051.625 690.6875 1058.8125 690.6875 1063.41210938 c 0
 690.6875 1066.171875 690.125 1068 689 1068 c 2
 635 1084 l 2
 634.830678732 1084.05644042 634.651800901 1084.08421115 634.463905882 1084.08421115 c 0
 631.322714929 1084.08421115 625.661357464 1076.32271493 620 1065 c 2
 144 -53 l 2
 141.83772234 -60.2075922006 140.194938533 -67.9346782544 140.194938533 -72.0625283318 c 0
 140.194938533 -73.6617643083 140.44151844 -74.7207592201 141 -75 c 2
 195 -92 l 2
EndSplineSet
Refer: 104 111 N 1 0 0 1 0 0 2
EndChar

StartChar: p
Encoding: 80 112 113
Width: 830
VWidth: 0
Flags: HW
PickledData: "(dp1
S'com.typemytype.robofont.layerData'
p2
(dp3
S'back'
p4
(dp5
S'name'
p6
S'p'
sS'lib'
p7
(dp8
sS'unicodes'
p9
(tsS'width'
p10
I830
sS'contours'
p11
(tsS'components'
p12
(tsS'anchors'
p13
(tsss."
LayerCount: 2
Fore
SplineSet
424 165 m 0
 355 165 316 269 316 496 c 0
 316 721 354 841 422 841 c 0
 486 841 522 713 522 496 c 0
 522 272 487 165 424 165 c 0
132 -299 m 2
 292 -299 l 2
 306 -299 316 -269 316 -226 c 2
 316 107 l 2
 316 118 320 122 325 122 c 0
 328 122 332 120 333 116 c 0
 364 33 430 -10 491 -10 c 0
 639 -10 748 123 748 512 c 0
 748 879 611 1016 480 1016 c 0
 397 1016 296 969 258 806 c 0
 256 799 254 796 251 796 c 0
 249 796 246 799 244 807 c 2
 214 942 l 2
 205 980 188 1005 173 1005 c 2
 135 1005 l 2
 121 1005 109 971 109 928 c 2
 109 -226 l 2
 109 -269 118 -299 132 -299 c 2
EndSplineSet
EndChar

StartChar: paragraph
Encoding: 114 182 114
Width: 1423
VWidth: 0
Flags: HW
PickledData: "(dp1
S'org.robofab.postScriptHintData'
p2
(dp3
sS'com.typemytype.robofont.layerData'
p4
(dp5
s."
LayerCount: 2
Fore
SplineSet
730 -1 m 2
 792 -1 l 2
 835 -1 855 33 855 76 c 2
 855 730 l 1
 948 730 l 2
 958 730 967 721 967 709 c 2
 967 76 l 2
 967 33 986 -1 1029 -1 c 2
 1081 -1 l 2
 1124 -1 1144 33 1144 76 c 2
 1144 1334 l 2
 1144 1377 1128 1404 1085 1412 c 0
 1035 1421 887 1438 772 1438 c 0
 398 1438 252 1339 252 1091 c 0
 252 831 482 730 641 730 c 2
 668 730 l 1
 668 76 l 2
 668 33 687 -1 730 -1 c 2
EndSplineSet
EndChar

StartChar: parenleft
Encoding: 8 40 115
Width: 483
VWidth: 0
Flags: HW
LayerCount: 2
Fore
SplineSet
346 -143 m 0
 346.522841827 -143.120655806 347.045683654 -143.179845246 347.567679766 -143.179845246 c 0
 360.024655687 -143.179845246 372 -109.471693121 372 -73 c 2
 372 27 l 2
 372 96 368 117 347 147 c 0
 301 213 279 456 279 698 c 0
 279 941 302 1185 347 1251 c 0
 368 1282 372 1303 372 1372 c 2
 372 1470 l 2
 372 1506.47169312 360.024655687 1540.17984525 347.567679766 1540.17984525 c 0
 347.045683654 1540.17984525 346.522841827 1540.12065581 346 1540 c 0
 189 1499 111 1098 111 698 c 0
 111 297 189 -103 346 -143 c 0
EndSplineSet
EndChar

StartChar: parenright
Encoding: 9 41 116
Width: 486
VWidth: 0
Flags: HW
LayerCount: 2
Fore
SplineSet
138 -143 m 0
 295 -103 373 297 373 698 c 0
 373 1098 295 1499 138 1540 c 0
 137.477158173 1540.12065581 136.954316346 1540.17984525 136.432320234 1540.17984525 c 0
 123.975344313 1540.17984525 112 1506.47169312 112 1470 c 2
 112 1372 l 2
 112 1303 117 1282 138 1251 c 0
 183 1185 206 941 206 698 c 0
 206 456 183 213 137 147 c 0
 116 117 112 96 112 27 c 2
 112 -73 l 2
 112 -109.471693121 123.975344313 -143.179845246 136.432320234 -143.179845246 c 0
 136.954316346 -143.179845246 137.477158173 -143.120655806 138 -143 c 0
EndSplineSet
EndChar

StartChar: percent
Encoding: 5 37 117
Width: 1033
VWidth: 0
Flags: HW
PickledData: "(dp1
S'com.typemytype.robofont.layerData'
p2
(dp3
S'back'
p4
(dp5
S'name'
p6
S'percent'
p7
sS'lib'
p8
(dp9
sS'unicodes'
p10
(tsS'width'
p11
I1033
sS'contours'
p12
(tsS'components'
p13
(tsS'anchors'
p14
(tsss."
LayerCount: 2
Fore
SplineSet
833 0 m 0
 954 0 1026 139 1026 437 c 0
 1026 733 956 868 833 868 c 0
 709 868 639 733 639 437 c 0
 639 139 711 0 833 0 c 0
833 140 m 0
 774 140 756 245 756 429 c 0
 756 617 775 728 833 728 c 0
 890 728 910 617 910 429 c 0
 910 245 891 140 833 140 c 0
186 592 m 0
 307 592 379 731 379 1029 c 0
 379 1325 309 1460 186 1460 c 0
 62 1460 -8 1325 -8 1029 c 0
 -8 731 64 592 186 592 c 0
186 732 m 0
 127 732 109 837 109 1021 c 0
 109 1209 128 1320 186 1320 c 0
 243 1320 263 1209 263 1021 c 0
 263 837 244 732 186 732 c 0
362 -82 m 2
 419 -82 l 2
 434 -82 448 -54 455 -12 c 2
 678 1466 l 2
 679.402857726 1473.71571749 680.040378308 1481.65010274 680.040378308 1489.27910784 c 0
 680.040378308 1514.27923522 673.194284548 1536 664 1536 c 2
 607 1536 l 2
 591 1536 576 1508 570 1466 c 2
 346 -12 l 2
 344.973635432 -18.7740061471 344.495051462 -25.7165601704 344.495051462 -32.4730293554 c 0
 344.495051462 -58.6311277483 351.668547876 -82 362 -82 c 2
EndSplineSet
EndChar

StartChar: period
Encoding: 14 46 118
Width: 434
VWidth: 0
Flags: HW
PickledData: "(dp1
S'com.typemytype.robofont.layerData'
p2
(dp3
S'back'
p4
(dp5
S'name'
p6
S'period'
p7
sS'lib'
p8
(dp9
sS'unicodes'
p10
(tsS'width'
p11
I434
sS'contours'
p12
(tsS'components'
p13
(tsS'anchors'
p14
(tsss."
LayerCount: 2
Fore
SplineSet
130 0 m 2
 302 0 l 2
 317 0 329 4 329 47 c 2
 329 233 l 2
 329 276 317 280 302 280 c 2
 130 280 l 2
 115 280 103 276 103 233 c 2
 103 47 l 2
 103 4 115 0 130 0 c 2
EndSplineSet
EndChar

StartChar: periodcentered
Encoding: 115 183 119
Width: 434
VWidth: 0
Flags: HW
PickledData: "(dp1
S'com.typemytype.robofont.layerData'
p2
(dp3
s."
LayerCount: 2
Fore
SplineSet
130 0 m 2
 302 0 l 2
 317 0 329 4 329 47 c 2
 329 233 l 2
 329 276 317 280 302 280 c 2
 130 280 l 2
 115 280 103 276 103 233 c 2
 103 47 l 2
 103 4 115 0 130 0 c 2
EndSplineSet
EndChar

StartChar: plus
Encoding: 11 43 120
Width: 801
VWidth: 0
Flags: HW
PickledData: "(dp1
S'com.typemytype.robofont.layerData'
p2
(dp3
S'back'
p4
(dp5
S'name'
p6
S'plus'
p7
sS'lib'
p8
(dp9
sS'unicodes'
p10
(tsS'width'
p11
I801
sS'contours'
p12
(tsS'components'
p13
(tsS'anchors'
p14
(tsss."
LayerCount: 2
Fore
SplineSet
349 250 m 2
 451 250 l 2
 469 250 482 254 482 295 c 2
 482 509 l 2
 482 529 489 531 499 531 c 2
 668 531 l 2
 684 531 699 535 699 576 c 2
 699 623 l 2
 699 665 684 668 668 668 c 2
 499 668 l 2
 489 668 482 670 482 690 c 2
 482 891 l 2
 482 932 469 936 451 936 c 2
 349 936 l 2
 330 936 316 932 316 891 c 2
 316 690 l 2
 316 670 310 668 301 668 c 2
 129 668 l 2
 112 668 98 665 98 623 c 2
 98 576 l 2
 98 535 112 531 129 531 c 2
 301 531 l 2
 310 531 316 529 316 509 c 2
 316 295 l 2
 316 254 330 250 349 250 c 2
EndSplineSet
EndChar

StartChar: plusminus
Encoding: 112 177 121
Width: 802
VWidth: 0
Flags: HW
PickledData: "(dp1
S'org.robofab.postScriptHintData'
p2
(dp3
sS'com.typemytype.robofont.layerData'
p4
(dp5
s."
LayerCount: 2
Fore
SplineSet
667 193 m 0
 683 193 698 197 698 238 c 2
 698 285 l 2
 698 327 683 330 667 330 c 0
 488 330 309 330 128 330 c 0
 111 330 97 327 97 285 c 2
 97 238 l 2
 97 197 111 193 128 193 c 0
 309 193 488 193 667 193 c 0
349 440 m 2
 451 440 l 2
 469 440 482 444 482 485 c 2
 482 699 l 2
 482 719 489 721 499 721 c 2
 668 721 l 2
 684 721 699 725 699 766 c 2
 699 813 l 2
 699 855 684 858 668 858 c 2
 499 858 l 2
 489 858 482 860 482 880 c 2
 482 1081 l 2
 482 1122 469 1126 451 1126 c 2
 349 1126 l 2
 330 1126 316 1122 316 1081 c 2
 316 880 l 2
 316 860 310 858 301 858 c 2
 129 858 l 2
 112 858 98 855 98 813 c 2
 98 766 l 2
 98 725 112 721 129 721 c 2
 301 721 l 2
 310 721 316 719 316 699 c 2
 316 485 l 2
 316 444 330 440 349 440 c 2
EndSplineSet
EndChar

StartChar: q
Encoding: 81 113 122
Width: 816
VWidth: 0
Flags: HW
PickledData: "(dp1
S'com.typemytype.robofont.layerData'
p2
(dp3
S'back'
p4
(dp5
S'name'
p6
S'q'
sS'lib'
p7
(dp8
sS'unicodes'
p9
(tsS'width'
p10
I816
sS'contours'
p11
(tsS'components'
p12
(tsS'anchors'
p13
(tsss."
LayerCount: 2
Fore
SplineSet
398 165 m 0
 335 165 308 272 308 496 c 0
 308 713 336 842 400 842 c 0
 468 842 501 721 501 496 c 0
 501 269 467 165 398 165 c 0
525 -299 m 2
 685 -299 l 2
 699 -299 708 -295 708 -252 c 2
 708 943 l 2
 708 986 696 1006 682 1006 c 2
 644 1006 l 2
 629 1006 612 996 603 958 c 1
 573 800 l 2
 571 792 568 789 566 789 c 0
 563 789 561 792 559 799 c 0
 521 962 425 1017 342 1017 c 0
 211 1017 82 879 82 512 c 0
 82 123 183 -10 331 -10 c 0
 392 -10 453 33 484 116 c 0
 485 120 489 122 492 122 c 0
 497 122 501 118 501 107 c 2
 501 -252 l 2
 501 -295 511 -299 525 -299 c 2
EndSplineSet
EndChar

StartChar: question
Encoding: 31 63 123
Width: 802
VWidth: 0
Flags: HW
PickledData: "(dp1
S'org.robofab.postScriptHintData'
p2
(dp3
sS'com.typemytype.robofont.layerData'
p4
(dp5
S'back'
p6
(dp7
S'name'
p8
S'question'
p9
sS'lib'
p10
(dp11
sS'unicodes'
p12
(tsS'width'
p13
I802
sS'contours'
p14
(tsS'components'
p15
(tsS'anchors'
p16
(tsss."
LayerCount: 2
Fore
SplineSet
421 0 m 2
 456 0 481 31 481 74 c 2
 481 228 l 2
 481 271 456 302 421 302 c 2
 277 302 l 2
 242 302 217 271 217 228 c 2
 217 74 l 2
 217 31 242 0 277 0 c 2
 421 0 l 2
309 532 m 0
 322 532 336 545 341 551 c 0
 363 575 415 624 467 660 c 0
 562 726 729 822 729 1046 c 2
 729 1066 l 1
 717 1417 527 1475 380 1475 c 0
 279 1475 163 1426 108 1378 c 0
 97 1368 88 1346 88 1322 c 0
 88 1314 89 1305 91 1297 c 2
 110 1213 l 2
 117 1182 127 1163 139 1163 c 0
 142 1163 145 1164 149 1167 c 0
 213 1216 280 1246 377 1246 c 0
 437 1246 514 1204 520 1056 c 1
 520 1038 l 2
 520 944 485 896 429 855 c 0
 346 795 310 764 265 709 c 0
 254 695 249 678 249 659 c 0
 249 614.185871611 267.632574568 588.734850863 287 550 c 0
 293 537 300 532 309 532 c 0
EndSplineSet
EndChar

StartChar: quotedbl
Encoding: 2 34 125
Width: 616
VWidth: 0
Flags: HW
PickledData: "(dp1
S'com.typemytype.robofont.layerData'
p2
(dp3
S'back'
p4
(dp5
S'name'
p6
S'quotedbl'
p7
sS'lib'
p8
(dp9
sS'unicodes'
p10
(tsS'width'
p11
I616
sS'contours'
p12
(tsS'components'
p13
(tsS'anchors'
p14
(tsss."
LayerCount: 2
Fore
SplineSet
444 674 m 2
 475 674 l 2
 490 674 499 709 501 751 c 2
 547 1459 l 2
 547.294832191 1463.22592807 547.435129234 1467.36493011 547.435129234 1471.39327596 c 0
 547.435129234 1508.3544758 535.624116443 1536 523 1536 c 2
 396 1536 l 2
 382.103310057 1536 370.781526665 1506.81772575 370.781526665 1468.33244279 c 0
 370.781526665 1465.2769526 370.852891992 1462.16282216 371 1459 c 2
 417 751 l 2
 420 709 429 674 444 674 c 2
151 674 m 2
 182 674 l 2
 197 674 205 709 208 751 c 2
 254 1459 l 2
 254.158176505 1462.40079486 254.235038638 1465.74529515 254.235038638 1469.02113355 c 0
 254.235038638 1507.16533281 243.813676212 1536 230 1536 c 2
 103 1536 l 2
 89.4692083875 1536 77.5658151898 1508.33422695 77.5658151898 1471.35267153 c 0
 77.5658151898 1467.33711849 77.7061583225 1463.21173071 78 1459 c 2
 124 751 l 2
 126 709 136 674 151 674 c 2
EndSplineSet
EndChar

StartChar: quoteleft
Encoding: 382 8216 126
Width: 365
VWidth: 0
Flags: HW
PickledData: "(dp1
S'com.typemytype.robofont.layerData'
p2
(dp3
S'back'
p4
(dp5
S'name'
p6
S'quoteleft'
p7
sS'lib'
p8
(dp9
sS'unicodes'
p10
(tsS'width'
p11
I365
sS'contours'
p12
(tsS'components'
p13
(tsS'anchors'
p14
(tsss."
LayerCount: 2
Fore
SplineSet
257 1474 m 0
 209 1451 88 1344 88 1107 c 2
 88 886 l 2
 88 843 100 829 114 829 c 2
 262 829 l 2
 277 829 283 843 283 886 c 2
 283 1072 l 2
 283 1110 276 1132 262 1132 c 2
 211 1132 l 2
 206 1132 205 1143 205 1159 c 0
 205 1223 224 1298 259 1333 c 0
 281 1355 283 1354 283 1408 c 2
 283 1429 l 2
 283 1459.85714286 272.714285714 1475.28571429 262.218658892 1475.28571429 c 0
 260.469387755 1475.28571429 258.714285714 1474.85714286 257 1474 c 0
EndSplineSet
EndChar

StartChar: quoteright
Encoding: 383 8217 127
Width: 360
VWidth: 0
Flags: HW
PickledData: "(dp1
S'com.typemytype.robofont.layerData'
p2
(dp3
S'back'
p4
(dp5
S'name'
p6
S'quoteright'
p7
sS'lib'
p8
(dp9
sS'unicodes'
p10
(tsS'width'
p11
I360
sS'contours'
p12
(tsS'components'
p13
(tsS'anchors'
p14
(tsss."
LayerCount: 2
Fore
SplineSet
114 815 m 0
 162 838 283 945 283 1182 c 2
 283 1403 l 2
 283 1446 271 1460 257 1460 c 2
 109 1460 l 2
 94 1460 88 1446 88 1403 c 2
 88 1217 l 2
 88 1179 95 1157 109 1157 c 2
 160 1157 l 2
 165 1157 166 1146 166 1130 c 0
 166 1066 147 991 112 956 c 0
 90 934 88 935 88 881 c 2
 88 860 l 2
 88 829.142857143 98.2857142857 813.714285714 108.781341108 813.714285714 c 0
 110.530612245 813.714285714 112.285714286 814.142857143 114 815 c 0
EndSplineSet
EndChar

StartChar: r
Encoding: 82 114 128
Width: 547
VWidth: 0
Flags: HW
PickledData: "(dp1
S'com.typemytype.robofont.layerData'
p2
(dp3
S'back'
p4
(dp5
S'name'
p6
S'r'
sS'lib'
p7
(dp8
sS'unicodes'
p9
(tsS'width'
p10
I547
sS'contours'
p11
(tsS'components'
p12
(tsS'anchors'
p13
(tsss."
LayerCount: 2
Fore
SplineSet
135 0 m 2
 290 0 l 2
 304 0 316 34 316 77 c 2
 316 77 316 471 316 491 c 0
 316 593 325 725 412 760 c 0
 427 766 480 770 481 770 c 0
 493 770 496 774 496 806 c 2
 496 956 l 2
 496 991 488 1018 442 1018 c 0
 437 1018 430 1018 425 1018 c 0
 373 1016 309 983 258 809 c 1
 257 802 255 799 252 799 c 0
 249 799 246 803 244 811 c 2
 214 942 l 2
 205 981 199 1006 183 1006 c 2
 128 1006 l 2
 114 1006 109 972 109 929 c 2
 109 77 l 2
 109 34 121 0 135 0 c 2
EndSplineSet
EndChar

StartChar: registered
Encoding: 109 174 129
Width: 1517
VWidth: 0
Flags: HW
PickledData: "(dp1
S'org.robofab.postScriptHintData'
p2
(dp3
sS'com.typemytype.robofont.layerData'
p4
(dp5
s."
LayerCount: 2
Fore
SplineSet
758 -18 m 0
 1200 -18 1421 333 1421 722 c 0
 1421 1111 1200 1461 758 1461 c 0
 317 1461 96 1111 96 722 c 0
 96 333 317 -18 758 -18 c 0
761 116 m 0
 379 116 236 439 236 718 c 0
 236 1008 379 1323 761 1323 c 0
 1142 1323 1285 1008 1285 718 c 0
 1285 439 1142 116 761 116 c 0
659 767 m 2
 655 767 650 776 650 786 c 2
 650 969 l 2
 650 979 655 987 659 987 c 2
 805 987 l 2
 854 987 889 959 889 870 c 0
 889 822 876 767 844 767 c 2
 659 767 l 2
924 702 m 1
 924 703.333333333 924 704.666666667 924 706 c 1
 972 721 1007 765 1007 873 c 0
 1007 1084 905 1096 783 1096 c 2
 547 1096 l 2
 537 1096 528 1080 528 1058 c 2
 528 410 l 2
 528 390 537 372 547 372 c 2
 632 372 l 2
 642 372 650 390 650 410 c 2
 650 641 l 2
 650 651 655 660 659 660 c 2
 807 660 l 2
 839 660 853 647 871 614 c 0
 881 595 902 496 902 410 c 1
 904 385 907 372 921 372 c 2
 1014 372 l 2
 1020 372 1022 383 1022 396 c 0
 1022 406 1020 435 1018 465 c 0
 1012 593 978 679 924 702 c 1
EndSplineSet
EndChar

StartChar: ring
Encoding: 352 730 130
Width: 1629
VWidth: 0
Flags: HW
PickledData: "(dp1
S'org.robofab.postScriptHintData'
p2
(dp3
sS'com.typemytype.robofont.layerData'
p4
(dp5
S'back'
p6
(dp7
S'name'
p8
S'ring'
p9
sS'lib'
p10
(dp11
sS'unicodes'
p12
(tsS'width'
p13
I1717
sS'contours'
p14
(tsS'components'
p15
(tsS'anchors'
p16
(tsss."
LayerCount: 2
Fore
SplineSet
845.849609375 1608.70019531 m 0
 949.349609375 1608.70019531 1088.84960938 1669 1088.84960938 1831 c 0
 1088.84960938 1997.5 960.150390625 2053.29980469 845.849609375 2053.29980469 c 0
 729.75 2053.29980469 600.150390625 1997.5 600.150390625 1831 c 0
 600.150390625 1668.09960938 739.650390625 1608.70019531 845.849609375 1608.70019531 c 0
845.849609375 1702.29980469 m 0
 770.25 1702.29980469 709.049804688 1745.5 710.849609375 1831 c 1
 709.049804688 1923.70019531 774.75 1959.70019531 845.849609375 1959.70019531 c 0
 913.349609375 1959.70019531 979.049804688 1923.70019531 979.049804688 1831 c 0
 979.049804688 1744.59960938 916.950195312 1702.29980469 845.849609375 1702.29980469 c 0
EndSplineSet
EndChar

StartChar: s
Encoding: 83 115 131
Width: 624
VWidth: 0
Flags: HW
PickledData: "(dp1
S'com.typemytype.robofont.layerData'
p2
(dp3
S'back'
p4
(dp5
S'name'
p6
S's'
sS'lib'
p7
(dp8
sS'unicodes'
p9
(tsS'width'
p10
I624
sS'contours'
p11
((dp12
S'points'
p13
((dp14
S'segmentType'
p15
S'line'
p16
sS'x'
F40
sS'smooth'
p17
I00
sS'y'
F126
s(dp18
S'y'
F45
sS'x'
F107
sg17
I00
s(dp19
S'y'
F-10
sS'x'
F206
sg17
I00
s(dp20
g15
S'curve'
p21
sS'x'
F293
sg17
I01
sS'y'
F-10
s(dp22
S'y'
F-10
sS'x'
F470
sg17
I00
s(dp23
S'y'
F128
sS'x'
F565
sg17
I00
s(dp24
g15
S'curve'
p25
sS'x'
F565
sg17
I01
sS'y'
F306
s(dp26
S'y'
F486
sS'x'
F565
sg17
I00
s(dp27
S'y'
F555
sS'x'
F470
sg17
I00
s(dp28
g15
S'curve'
p29
sS'x'
F386
sg17
I01
sS'y'
F600
s(dp30
S'y'
F638
sS'x'
F318
sg17
I00
s(dp31
S'y'
F661
sS'x'
F257
sg17
I00
s(dp32
g15
S'curve'
p33
sS'x'
F257
sg17
I01
sS'y'
F725
s(dp34
S'y'
F774
sS'x'
F257
sg17
I00
s(dp35
S'y'
F802
sS'x'
F281
sg17
I00
s(dp36
g15
S'curve'
p37
sS'x'
F332
sg17
I01
sS'y'
F802
s(dp38
S'y'
F802
sS'x'
F378
sg17
I00
s(dp39
S'y'
F770
sS'x'
F424
sg17
I00
s(dp40
g15
S'curve'
p41
sS'x'
F471
sg17
I00
sS'y'
F719
s(dp42
g15
S'line'
p43
sS'x'
F559
sg17
I00
sS'y'
F892
s(dp44
S'y'
F956
sS'x'
F502
sg17
I00
s(dp45
S'y'
F1017
sS'x'
F428
sg17
I00
s(dp46
g15
S'curve'
p47
sS'x'
F326
sg17
I01
sS'y'
F1017
s(dp48
S'y'
F1017
sS'x'
F173
sg17
I00
s(dp49
S'y'
F892
sS'x'
F73
sg17
I00
s(dp50
g15
S'curve'
p51
sS'x'
F73
sg17
I01
sS'y'
F711
s(dp52
S'y'
F549
sS'x'
F73
sg17
I00
s(dp53
S'y'
F468
sS'x'
F168
sg17
I00
s(dp54
g15
S'curve'
p55
sS'x'
F248
sg17
I01
sS'y'
F422
s(dp56
S'y'
F383
sS'x'
F316
sg17
I00
s(dp57
S'y'
F353
sS'x'
F382
sg17
I00
s(dp58
g15
S'curve'
p59
sS'x'
F382
sg17
I01
sS'y'
F288
s(dp60
S'y'
F237
sS'x'
F382
sg17
I00
s(dp61
S'y'
F205
sS'x'
F357
sg17
I00
s(dp62
g15
S'curve'
p63
sS'x'
F298
sg17
I01
sS'y'
F205
s(dp64
S'y'
F205
sS'x'
F242
sg17
I00
s(dp65
S'y'
F241
sS'x'
F188
sg17
I00
s(dp66
g15
S'curve'
p67
sS'x'
F128
sg17
I00
sS'y'
F308
stp68
s(dp69
g13
((dp70
g15
S'curve'
p71
sS'x'
F342
sg17
I01
sS'y'
F-10
s(dp72
S'y'
F-10
sS'x'
F478
sg17
I00
s(dp73
S'y'
F81
sS'x'
F601
sg17
I00
s(dp74
g15
S'curve'
p75
sS'x'
F601
sg17
I01
sS'y'
F301
s(dp76
S'y'
F481
sS'x'
F601
sg17
I00
s(dp77
S'y'
F549
sS'x'
F500
sg17
I00
s(dp78
g15
S'curve'
p79
sS'x'
F378
sg17
I01
sS'y'
F618
s(dp80
S'y'
F665
sS'x'
F295
sg17
I00
s(dp81
S'y'
F703
sS'x'
F260
sg17
I00
s(dp82
g15
S'curve'
p83
sS'x'
F260
sg17
I01
sS'y'
F750
s(dp84
S'y'
F806
sS'x'
F260
sg17
I00
s(dp85
S'y'
F850
sS'x'
F291
sg17
I00
s(dp86
g15
S'curve'
p87
sS'x'
F362
sg17
I01
sS'y'
F850
s(dp88
S'y'
F850
sS'x'
F418
sg17
I00
s(dp89
S'y'
F830
sS'x'
F458
sg17
I00
s(dp90
g15
S'curve'
p91
sS'x'
F486
sg17
I01
sS'y'
F821
s(dp92
S'y'
F815
sS'x'
F502
sg17
I00
s(dp93
S'y'
F807
sS'x'
F523
sg17
I00
s(dp94
g15
S'curve'
p95
sS'x'
F528
sg17
I01
sS'y'
F833
s(dp96
g15
S'line'
p97
sS'x'
F545
sg17
I00
sS'y'
F913
s(dp98
S'y'
F946
sS'x'
F549
sg17
I00
s(dp99
S'y'
F959
sS'x'
F546
sg17
I00
s(dp100
g15
S'curve'
p101
sS'x'
F532
sg17
I01
sS'y'
F967
s(dp102
S'y'
F1002
sS'x'
F472
sg17
I00
s(dp103
S'y'
F1017
sS'x'
F393
sg17
I00
s(dp104
g15
S'curve'
p105
sS'x'
F318
sg17
I01
sS'y'
F1017
s(dp106
S'y'
F1017
sS'x'
F207
sg17
I00
s(dp107
S'y'
F934
sS'x'
F87
sg17
I00
s(dp108
g15
S'curve'
p109
sS'x'
F87
sg17
I01
sS'y'
F726
s(dp110
S'y'
F557
sS'x'
F87
sg17
I00
s(dp111
S'y'
F489
sS'x'
F192
sg17
I00
s(dp112
g15
S'curve'
p113
sS'x'
F319
sg17
I01
sS'y'
F427
s(dp114
S'y'
F391
sS'x'
F394
sg17
I00
s(dp115
S'y'
F357
sS'x'
F416
sg17
I00
s(dp116
g15
S'curve'
p117
sS'x'
F416
sg17
I01
sS'y'
F281
s(dp118
S'y'
F197
sS'x'
F416
sg17
I00
s(dp119
S'y'
F157
sS'x'
F374
sg17
I00
s(dp120
g15
S'curve'
p121
sS'x'
F296
sg17
I01
sS'y'
F157
s(dp122
S'y'
F157
sS'x'
F229
sg17
I00
s(dp123
S'y'
F194
sS'x'
F182
sg17
I00
s(dp124
g15
S'curve'
p125
sS'x'
F142
sg17
I01
sS'y'
F219
s(dp126
S'y'
F228
sS'x'
F128
sg17
I00
s(dp127
S'y'
F219
sS'x'
F110
sg17
I00
s(dp128
g15
S'curve'
p129
sS'x'
F104
sg17
I00
sS'y'
F180
s(dp130
g15
S'line'
p131
sS'x'
F89
sg17
I00
sS'y'
F129
s(dp132
S'y'
F96
sS'x'
F84
sg17
I00
s(dp133
S'y'
F88
sS'x'
F89
sg17
I00
s(dp134
g15
S'curve'
p135
sS'x'
F100
sg17
I01
sS'y'
F76
s(dp136
S'y'
F2
sS'x'
F163
sg17
I00
s(dp137
S'y'
F-10
sS'x'
F279
sg17
I00
stp138
stp139
sS'components'
p140
(tsS'anchors'
p141
(tsss."
LayerCount: 2
Fore
SplineSet
265 748 m 0
 265 797.891500473 294.144633242 833.083745114 344.875707517 833.083745114 c 0
 389.906465777 833.083745114 440.315268527 799.572793726 486 750 c 1
 564 903 l 1
 507 967 428 1017 326 1017 c 0
 173 1017 73 892 73 732 c 0
 73 570 137 504 248 422 c 0
 346 350 382 324 382 268 c 0
 382 217 357 165 290 165 c 0
 234 165 169 201 109 268 c 1
 37 123 l 1
 104 42 212 -10 299 -10 c 0
 474 -10 573 88 573 266 c 0
 573 446 491 531 386 600 c 0
 321 643 265 684 265 748 c 0
EndSplineSet
EndChar

StartChar: section
Encoding: 102 167 132
Width: 917
VWidth: 0
Flags: HW
PickledData: "(dp1
S'org.robofab.postScriptHintData'
p2
(dp3
sS'com.typemytype.robofont.layerData'
p4
(dp5
s."
LayerCount: 2
Fore
SplineSet
656 601 m 1
 601 621 564 623 489 638 c 0
 353 666 248 689 248 756 c 0
 248 795 259 845 274 881 c 1
 327 861 380 854 450 845 c 0
 618 823 690 802 690 718 c 0
 690 689 656 601 656 601 c 1
467 -16 m 0
 741 -16 833 94 833 321 c 0
 833 419 802 482 768 527 c 1
 797 579 833 651 833 730 c 0
 833 1005 697 1015 489 1047 c 0
 344 1069 280 1081 280 1160 c 0
 280 1241 310 1282 478 1282 c 0
 597 1282 634 1257 697 1222 c 0
 703.996175782 1218.04563978 711.36245724 1215.94180793 718.507802943 1215.94180793 c 0
 734.85285489 1215.94180793 750.041815558 1226.95053601 757 1252 c 2
 770 1302 l 2
 772.266799469 1309.55599823 773.328299965 1316.79481252 773.328299965 1323.588622 c 0
 773.328299965 1343.76865214 763.962667846 1360.02239929 749 1369 c 0
 654 1431 582 1452 451 1452 c 0
 317 1452 95 1428 95 1132 c 0
 95 1041 122 979 167 936 c 1
 125 885 95 811 95 724 c 0
 95 488 253 468 450 437 c 0
 598 414 655 383 655 300 c 0
 655 210 609 150 491 150 c 0
 357 150 275 173 169 238 c 0
 163.783916238 241.175007508 158.567832475 242.704190905 153.491717568 242.704190905 c 0
 136.185016517 242.704190905 120.505351244 224.928549979 112 194 c 2
 100 149 l 2
 97.816005618 140.749354557 96.8097473991 133.26423762 96.8097473991 126.473200045 c 0
 96.8097473991 105.279120682 106.610654806 90.8453414482 121 81 c 0
 230 7 356 -16 467 -16 c 0
EndSplineSet
EndChar

StartChar: semicolon
Encoding: 27 59 133
Width: 374
VWidth: 0
Flags: HW
PickledData: "(dp1
S'com.typemytype.robofont.layerData'
p2
(dp3
S'back'
p4
(dp5
S'name'
p6
S'semicolon'
p7
sS'lib'
p8
(dp9
sS'unicodes'
p10
(tsS'width'
p11
I374
sS'contours'
p12
(tsS'components'
p13
(tsS'anchors'
p14
(tsss."
LayerCount: 2
Fore
SplineSet
131 656 m 2
 267 656 l 2
 282 656 294 670 294 713 c 2
 294 949 l 2
 294 992 282 1006 267 1006 c 2
 131 1006 l 2
 116 1006 104 992 104 949 c 2
 104 713 l 2
 104 670 116 656 131 656 c 2
131 -342 m 0
 179 -319 300 -212 300 25 c 2
 300 246 l 2
 300 289 288 303 274 303 c 2
 126 303 l 2
 111 303 105 289 105 246 c 2
 105 60 l 2
 105 22 112 0 126 0 c 2
 177 0 l 2
 182 0 183 -11 183 -27 c 0
 183 -91 164 -166 129 -201 c 0
 107 -223 105 -222 105 -276 c 2
 105 -297 l 2
 105 -327.857142857 115.285714286 -343.285714286 125.781341108 -343.285714286 c 0
 127.530612245 -343.285714286 129.285714286 -342.857142857 131 -342 c 0
EndSplineSet
EndChar

StartChar: seven
Encoding: 23 55 134
Width: 681
VWidth: 0
Flags: HW
PickledData: "(dp1
S'com.typemytype.robofont.layerData'
p2
(dp3
S'back'
p4
(dp5
S'name'
p6
S'seven'
p7
sS'lib'
p8
(dp9
sS'unicodes'
p10
(tsS'width'
p11
I681
sS'contours'
p12
(tsS'components'
p13
(tsS'anchors'
p14
(tsss."
LayerCount: 2
Fore
SplineSet
226 0 m 2
 426 0 l 2
 440 0 451 35 455 77 c 2
 573 1361 l 2
 573.294832191 1365.12765067 573.435129234 1369.18769221 573.435129234 1373.15354683 c 0
 573.435129234 1409.54137215 561.624116443 1438 549 1438 c 2
 129 1438 l 2
 114 1438 102 1424 102 1381 c 2
 102 1218 l 2
 102 1175 114 1161 129 1161 c 2
 285 1161 l 2
 292 1161 298 1144 296 1124 c 2
 202 77 l 2
 201.502065587 71.7716886612 201.267566021 66.6518504948 201.267566021 61.6944980263 c 0
 201.267566021 26.8285136308 212.86725405 3.5527136788e-15 226 0 c 2
EndSplineSet
EndChar

StartChar: six
Encoding: 22 54 135
Width: 882
VWidth: 0
Flags: HW
PickledData: "(dp1
S'com.typemytype.robofont.layerData'
p2
(dp3
S'back'
p4
(dp5
S'name'
p6
S'six'
p7
sS'lib'
p8
(dp9
sS'unicodes'
p10
(tsS'width'
p11
I882
sS'contours'
p12
(tsS'components'
p13
(tsS'anchors'
p14
(tsss."
LayerCount: 2
Fore
SplineSet
477 194 m 0
 417 194 374 251 374 506 c 2
 374 677 l 1
 414 703 452 718 485 718 c 0
 553 718 571 614 571 469 c 0
 571 242 535 194 477 194 c 0
471 -21 m 0
 678 -21 827 58 827 449 c 0
 827 730 726 936 502 936 c 0
 456 936 417 911 374 892 c 1
 374 908 l 2
 374 1128 415 1199 506 1230 c 0
 529.324848383 1237.91760908 552.512322332 1241.07290444 574.670722626 1241.07290444 c 0
 656.061361211 1241.07290444 723.567873217 1198.50207396 733 1193 c 0
 736 1191 739 1190 741 1190 c 0
 750 1190 755 1203 757 1234 c 2
 765 1339 l 2
 765 1344 765 1348 765 1352 c 0
 765 1382 760 1393 747 1403 c 0
 712.297843759 1433.13608305 595.867511975 1460.77028318 513.469980852 1460.77028318 c 0
 505.63951113 1460.77028318 498.11639969 1460.52071217 491 1460 c 0
 226 1440 111 1197 111 660 c 0
 111 130 261 -21 471 -21 c 0
EndSplineSet
EndChar

StartChar: slash
Encoding: 15 47 136
Width: 622
VWidth: 0
Flags: HW
LayerCount: 2
Fore
SplineSet
282 -207 m 2
 289 -207 296 -193 299 -172 c 2
 534 1612 l 2
 534.608835008 1615.45006505 534.888176624 1618.94131677 534.888176624 1622.3149412 c 0
 534.888176624 1635.56465997 530.57938498 1647 525 1647 c 2
 344 1647 l 2
 336 1647 329 1633 326 1612 c 2
 91 -170 l 2
 90.6903085095 -172.63237767 90.5484574527 -175.288732544 90.5484574527 -177.898522028 c 0
 90.5484574527 -192.142857143 94.7742287264 -205 99 -205 c 2
 282 -207 l 2
EndSplineSet
EndChar

StartChar: sterling
Encoding: 98 163 138
Width: 1029
VWidth: 0
Flags: HW
PickledData: "(dp1
S'org.robofab.postScriptHintData'
p2
(dp3
sS'com.typemytype.robofont.layerData'
p4
(dp5
s."
LayerCount: 2
Fore
SplineSet
700 1257 m 0
 841.022066834 1257 869.582070901 1208 936 1208 c 0
 962 1208 972 1221 980 1252 c 1
 1001 1353 l 2
 1002 1358 1002 1362 1002 1366 c 0
 1002 1396 983 1405 949 1423 c 0
 906 1445 805 1475 696 1475 c 0
 256.58271237 1475 214.671078378 1222.22045749 214.671078378 995.4131673 c 0
 214.671078378 941.948465377 217 889.926974665 217 843 c 1
 121 843 l 2
 78 843 58 820 58 777 c 2
 58 725 l 2
 58 682 78 659 121 659 c 2
 190 659 l 2
 215 659 222 643 222 616 c 2
 222 219 l 2
 222 200 219 195 190 195 c 2
 111 195 l 2
 68 195 58 168 58 125 c 2
 58 66 l 2
 58 23 68 0 111 0 c 2
 963 0 l 2
 995 0 1012 10 1012 45 c 2
 1012 139 l 2
 1012 181 995 195 963 195 c 2
 521 195 l 2
 485 195 483 205 483 245 c 2
 483 659 l 1
 736 659 l 2
 779 659 799 682 799 725 c 2
 799 777 l 2
 799 820 779 843 736 843 c 2
 485 843 l 1
 485 924 l 2
 485 1186 516 1257 700 1257 c 0
EndSplineSet
EndChar

StartChar: t
Encoding: 84 116 139
Width: 579
VWidth: 0
Flags: HW
PickledData: "(dp1
S'com.typemytype.robofont.layerData'
p2
(dp3
S'back'
p4
(dp5
S'name'
p6
S't'
sS'lib'
p7
(dp8
sS'unicodes'
p9
(tsS'width'
p10
I579
sS'contours'
p11
(tsS'components'
p12
(tsS'anchors'
p13
(tsss."
LayerCount: 2
Fore
SplineSet
402 -1 m 0
 447 -1 486 -1 516 -1 c 0
 533 -1 546 8 546 50 c 2
 546 123 l 2
 546 164 536 173 521 173 c 0
 497 173 475 173 446 173 c 0
 401 173 351 191 351 329 c 2
 351 789 l 2
 351 809 357 811 364 811 c 2
 491 811 l 2
 505 811 517 825 517 868 c 2
 517 949 l 2
 517 992 505 1006 491 1006 c 2
 364 1006 l 2
 357 1006 351 1013 351 1033 c 2
 351 1418 l 2
 351 1461 340 1475 325 1475 c 2
 182 1475 l 2
 167 1475 156 1461 154 1418 c 2
 133 1033 l 1
 133 1013 128 1006 121 1006 c 2
 63 1006 l 2
 49 1006 37 992 37 949 c 2
 37 868 l 2
 37 825 49 811 63 811 c 2
 121 811 l 2
 128 811 133 809 133 789 c 2
 133 335 l 2
 133 11 276 -1 402 -1 c 0
EndSplineSet
EndChar

StartChar: thorn
Encoding: 185 254 140
Width: 808
VWidth: 0
Flags: HW
PickledData: "(dp1
S'com.typemytype.robofont.layerData'
p2
(dp3
S'back'
p4
(dp5
S'name'
p6
S'thorn'
p7
sS'lib'
p8
(dp9
sS'unicodes'
p10
(tsS'width'
p11
I808
sS'contours'
p12
((dp13
S'points'
p14
((dp15
S'segmentType'
p16
S'curve'
p17
sS'x'
I108
sS'smooth'
p18
I00
sS'y'
I298
s(dp19
g16
S'line'
p20
sS'x'
I108
sg18
I01
sS'y'
I-133
s(dp21
S'y'
I-176
sS'x'
I108
sg18
I00
s(dp22
S'y'
I-210
sS'x'
I120
sg18
I00
s(dp23
g16
S'curve'
p24
sS'x'
I134
sg18
I01
sS'y'
I-210
s(dp25
g16
S'line'
p26
sS'x'
I288
sg18
I01
sS'y'
I-210
s(dp27
S'y'
I-210
sS'x'
I303
sg18
I00
s(dp28
S'y'
I-176
sS'x'
I315
sg18
I00
s(dp29
g16
S'curve'
p30
sS'x'
I315
sg18
I01
sS'y'
I-133
s(dp31
g16
S'line'
p32
sS'x'
I315
sg18
I01
sS'y'
I96
s(dp33
S'y'
I139
sS'x'
I315
sg18
I00
s(dp34
S'y'
I346
sS'x'
I108
sg18
I00
stp35
stp36
sS'components'
p37
(tsS'anchors'
p38
(tsss."
LayerCount: 2
Fore
SplineSet
315 -222 m 2
 315 100 l 1
 353 22 415 -10 469 -10 c 0
 599 -10 727 133 727 498 c 0
 727 885 601 1017 484 1017 c 0
 423 1017 369 986 332 904 c 0
 330 900 326 896 322 896 c 0
 319 896 315 901 315 915 c 2
 315 1346 l 2
 315 1389 303 1423 289 1423 c 2
 135 1423 l 2
 120 1423 108 1389 108 1346 c 2
 108 -222 l 2
 108 -265 120 -299 134 -299 c 2
 288 -299 l 2
 303 -299 315 -265 315 -222 c 2
423 165 m 0
 356 165 315 315 315 514 c 0
 315 709 349 842 416 842 c 0
 480 842 511 700 511 514 c 0
 511 287 487 165 423 165 c 0
EndSplineSet
EndChar

StartChar: three
Encoding: 19 51 141
Width: 639
VWidth: 0
Flags: HW
PickledData: "(dp1
S'org.robofab.postScriptHintData'
p2
(dp3
sS'com.typemytype.robofont.layerData'
p4
(dp5
s."
LayerCount: 2
Fore
SplineSet
241 1244 m 0
 322.901739513 1244 372.254477821 1193.88001487 372.254477821 1049.17771964 c 0
 372.254477821 937.798789075 328.723318939 836 232 836 c 2
 196 836 l 2
 167 836 161 828 161 814 c 2
 161 663 l 2
 161 629 166 621 196 621 c 2
 232 621 l 2
 330 621 377 501 377 401 c 0
 377 291 330 193 225 193 c 0
 131 193 81 235 69 242 c 0
 67 244 64 245 63 245 c 0
 56 245 52 232 50 203 c 1
 47 102 l 2
 47 97 47 93 47 89 c 0
 47 59 52 43 62 33 c 0
 93 0 152 -20 264 -20 c 0
 434 -20 601 79 601 356 c 0
 601 560 528 691 399 726 c 1
 535.678056722 757.829136497 597.863912698 893.070975205 597.863912698 1060.34871646 c 0
 597.863912698 1347.21323254 459.856270443 1460 281 1460 c 0
 141 1460 92 1433 62 1411 c 0
 52 1403 47 1386 47 1356 c 0
 47 1352 47 1348 47 1343 c 2
 52 1244 l 2
 53 1213 58 1200 65 1200 c 0
 67 1200 69 1201 72 1203 c 0
 83 1210 139 1244 241 1244 c 0
EndSplineSet
EndChar

StartChar: threequarters
Encoding: 121 190 142
Width: 1243
VWidth: 0
Flags: HW
PickledData: "(dp1
S'org.robofab.postScriptHintData'
p2
(dp3
sS'com.typemytype.robofont.layerData'
p4
(dp5
s."
LayerCount: 2
Fore
SplineSet
185 1306 m 0
 243.948314099 1306 278.203707988 1269.95981384 278.203707988 1166.65302323 c 0
 278.203707988 1087.02338432 247.747310584 1015 179 1015 c 2
 153 1015 l 2
 132 1015 128 1010 128 1000 c 2
 128 892 l 2
 128 868 132 862 153 862 c 2
 179 862 l 2
 248 862 282 777 282 706 c 0
 282 627 248 558 174 558 c 0
 107 558 71 588 63 592 c 0
 61 594 59 595 58 595 c 0
 53 595 51 585 49 565 c 1
 47 493 l 2
 47 489 47 486 47 484 c 0
 47 462 51 451 58 444 c 0
 80 420 122 406 201 406 c 0
 322 406 441 476 441 674 c 0
 441 819 389 912 298 937 c 1
 393.969015604 959.361712374 438.718023158 1054.64682604 438.718023158 1173.51396221 c 0
 438.718023158 1378.21814496 342.404217331 1459 214 1459 c 0
 114 1459 79 1440 58 1425 c 0
 51 1419 47 1407 47 1385 c 0
 47 1383 47 1380 47 1376 c 2
 51 1306 l 1
 51 1284 55 1274 60 1274 c 0
 61 1274 63 1275 65 1277 c 0
 73 1281 112 1306 185 1306 c 0
1069 0 m 2
 1163 0 l 2
 1181 0 1191 18 1191 48 c 2
 1191 204 l 1
 1265 204 l 2
 1282 204 1293 222 1293 251 c 2
 1293 308 l 2
 1293 338 1282 356 1265 356 c 2
 1191 356 l 1
 1191 975 l 2
 1191 1005 1181 1024 1163 1024 c 2
 1069 1024 l 2
 1052 1024 1042 1005 1042 975 c 2
 1042 356 l 1
 919 356 l 2
 912 356 907 364 907 375 c 0
 907 376 907 377 907 380 c 2
 954 975 l 2
 954 979 954 982 954 985 c 0
 954 1009 941 1024 926 1024 c 2
 849 1024 l 2
 832 1024 827 1005 822 975 c 1
 746 251 l 2
 745 248 744 246 744 242 c 0
 744 219 758 204 773 204 c 2
 1042 204 l 1
 1042 48 l 2
 1042 18 1052 0 1069 0 c 2
528 -19 m 2
 535 -19 543 -6 546 14 c 1
 842 1443 l 2
 842.701428863 1446.50714432 843.020189154 1450.17828945 843.020189154 1453.74502061 c 0
 843.020189154 1465.43314146 839.597142274 1476 835 1476 c 2
 722 1476 l 2
 715 1476 707 1463 704 1443 c 1
 407 14 l 2
 406.639607805 11.2970585408 406.474039412 8.49670518113 406.474039412 5.72181263106 c 0
 406.474039412 -6.90258809957 409.900980486 -19 414 -19 c 2
 528 -19 l 2
EndSplineSet
EndChar

StartChar: tilde
Encoding: 354 732 143
Width: 1051
VWidth: 0
Flags: HW
PickledData: "(dp1
S'org.robofab.postScriptHintData'
p2
(dp3
sS'com.typemytype.robofont.layerData'
p4
(dp5
s."
LayerCount: 2
Fore
SplineSet
596.754882812 828.919921875 m 0
 616.462537018 828.919921875 640.250031318 778 672 778 c 0
 699.579998309 778 732.829665403 826.243928055 732.829665403 873.267584371 c 0
 732.829665403 916.098626585 656.547851562 981.168945312 611.323242188 981.168945312 c 0
 512.782226562 981.168945312 450.950195312 916.16796875 390.342773438 916.16796875 c 0
 354.313823164 916.16796875 350.03859127 977.713028635 317.178634233 977.713028635 c 0
 303.153315615 977.713028635 285.687005784 967.249341046 275 953 c 2
 251 921 l 2
 244.822265625 912.762695312 244 904 244 896 c 0
 244 823.865234375 316.497070312 772.56640625 374.412109375 772.56640625 c 0
 485.948242188 772.56640625 542.8671875 828.919921875 596.754882812 828.919921875 c 0
EndSplineSet
EndChar

StartChar: trademark
Encoding: 397 8482 144
Width: 1256
VWidth: 0
Flags: HW
PickledData: "(dp1
S'org.robofab.postScriptHintData'
p2
(dp3
sS'com.typemytype.robofont.layerData'
p4
(dp5
s."
LayerCount: 2
Fore
SplineSet
267 493 m 2
 359 493 l 2
 369 493 375 512 375 541 c 2
 375 1292 l 2
 375 1306 378 1312 383 1312 c 2
 490 1312 l 2
 501 1312 507 1334 507 1363 c 2
 507 1406 l 2
 507 1435 501 1458 490 1458 c 2
 135 1458 l 2
 125 1458 119 1435 119 1406 c 2
 119 1363 l 2
 119 1334 125 1312 135 1312 c 2
 244 1312 l 2
 248 1312 251 1306 251 1292 c 2
 251 541 l 2
 251 512 257 493 267 493 c 2
576 493 m 2
 639 493 l 2
 649 493 656 512 656 541 c 1
 675 1087 l 2
 675 1089 677 1092 678 1090 c 2
 801 539 l 2
 807 511 816 494 826 493 c 1
 860 493 l 1
 870 494 879 511 884 539 c 1
 1013 1096 l 2
 1013 1098 1016 1097 1016 1095 c 2
 1033 541 l 2
 1034 512 1040 493 1050 493 c 2
 1109 493 l 2
 1118.27443328 493 1124.10826205 509.342871396 1124.10826205 534.848941384 c 0
 1124.10826205 536.844357714 1124.07255667 538.895856504 1124 541 c 2
 1101 1411 l 2
 1100 1439 1094 1457 1084 1458 c 1
 1010 1458 l 1
 1001 1457 992 1441 986 1413 c 2
 846 805 l 2
 846 802 841 802 840 805 c 2
 704 1413 l 1
 699 1441 690 1457 680 1458 c 1
 600 1458 l 1
 591 1457 585 1439 585 1411 c 2
 560 541 l 2
 559.93622915 539.150645338 559.90499207 537.341957889 559.90499207 535.576271698 c 0
 559.90499207 509.65397539 566.637708504 493 576 493 c 2
EndSplineSet
EndChar

StartChar: two
Encoding: 18 50 145
Width: 702
VWidth: 0
Flags: HW
PickledData: "(dp1
S'org.robofab.postScriptHintData'
p2
(dp3
sS'com.typemytype.robofont.layerData'
p4
(dp5
s."
LayerCount: 2
Fore
SplineSet
606 1 m 2
 617 1 622 15 622 59 c 2
 622 130 l 2
 622 176 616 193 607 193 c 2
 323 193 l 2
 312 193 299 201 299 233 c 0
 299 249 301 254 303 260 c 0
 427 710 592 742 646 1051 c 0
 653 1094 657 1133 657 1167 c 0
 657 1425 466 1463 319 1463 c 1
 245 1462 134 1433 97 1385 c 1
 90 1373 86 1353 86 1317 c 0
 86 1313 90 1267 100 1201 c 1
 101 1180 107 1171 117 1171 c 0
 121 1171 125 1175 131 1181 c 0
 138 1189 220 1244 311 1244 c 0
 365 1244 438 1200 438 1117 c 0
 438 1105 436 1093 433 1079 c 0
 383 872 115 649 69 150 c 0
 68 139 67 100 67 90 c 0
 67 35 78 1 96 1 c 2
 606 1 l 2
EndSplineSet
EndChar

StartChar: u
Encoding: 85 117 146
Width: 818
VWidth: 0
Flags: HW
PickledData: "(dp1
S'com.typemytype.robofont.layerData'
p2
(dp3
S'back'
p4
(dp5
S'name'
p6
S'u'
sS'lib'
p7
(dp8
sS'unicodes'
p9
(tsS'width'
p10
I818
sS'contours'
p11
(tsS'components'
p12
(tsS'anchors'
p13
(tsss."
LayerCount: 2
Fore
SplineSet
353 -10 m 0
 437 -10 533 59 566 192 c 0
 568 199 570 203 573 203 c 0
 575 203 579 198 581 190 c 2
 611 44 l 2
 620 5 636 0 652 0 c 2
 689 0 l 2
 704 0 716 14 716 57 c 2
 716 959 l 2
 716 1002 704 1006 689 1006 c 2
 534 1006 l 2
 519 1006 507 1002 507 959 c 2
 507 407 l 2
 507 274 475 165 408 165 c 0
 344 165 311 228 311 359 c 2
 311 959 l 2
 311 1002 299 1006 285 1006 c 2
 121 1006 l 2
 105 1006 94 1002 94 959 c 2
 94 372 l 2
 94 67 223 -10 353 -10 c 0
EndSplineSet
EndChar

StartChar: underscore
Encoding: 63 95 147
Width: 1169
VWidth: 0
Flags: HW
PickledData: "(dp1
S'org.robofab.postScriptHintData'
p2
(dp3
sS'com.typemytype.robofont.layerData'
p4
(dp5
s."
LayerCount: 2
Fore
SplineSet
167 -194 m 2
 999 -194 l 2
 1042 -194 1063 -174 1063 -131 c 2
 1063 -62 l 2
 1063 -19 1042 0 999 0 c 2
 167 0 l 2
 124 0 103 -19 103 -62 c 2
 103 -131 l 2
 103 -174 124 -194 167 -194 c 2
EndSplineSet
EndChar

StartChar: v
Encoding: 86 118 148
Width: 723
VWidth: 0
Flags: HW
PickledData: "(dp1
S'com.typemytype.robofont.layerData'
p2
(dp3
S'back'
p4
(dp5
S'name'
p6
S'v'
sS'lib'
p7
(dp8
sS'unicodes'
p9
(tsS'width'
p10
I723
sS'contours'
p11
(tsS'components'
p12
(tsS'anchors'
p13
(tsss."
LayerCount: 2
Fore
SplineSet
259 0 m 2
 458 0 l 2
 474 0 489 27 496 67 c 2
 662 945 l 2
 663 952 665 960 665 967 c 0
 665 990 658 1006 649 1006 c 2
 499 1006 l 2
 483 1006 467 990 461 949 c 2
 379 342 l 2
 378 335 376 332 374 332 c 0
 372 332 370 335 368 342 c 1
 287 949 l 1
 280 990 266 1006 250 1006 c 2
 74 1006 l 2
 65 1006 58 990 58 966 c 0
 58 958 58 951 60 944 c 2
 220 68 l 2
 228 27 243 0 259 0 c 2
EndSplineSet
EndChar

StartChar: w
Encoding: 87 119 149
Width: 932
VWidth: 0
Flags: HW
PickledData: "(dp1
S'com.typemytype.robofont.layerData'
p2
(dp3
S'back'
p4
(dp5
S'name'
p6
S'w'
sS'lib'
p7
(dp8
sS'unicodes'
p9
(tsS'width'
p10
I932
sS'contours'
p11
(tsS'components'
p12
(tsS'anchors'
p13
(tsss."
LayerCount: 2
Fore
SplineSet
227 0 m 2
 373 0 l 2
 388 0 402 11 406 54 c 1
 476 567 l 2
 477 572 479 575 480 575 c 0
 482 575 483 572 483 567 c 2
 546 54 l 1
 550 11 564 0 579 0 c 2
 718 0 l 2
 734 0 748 9 754 51 c 2
 870 943 l 2
 871 950 871 956 871 963 c 0
 871 990 864 1006 853 1006 c 2
 739 1006 l 2
 724 1006 710 990 707 947 c 1
 649 411 l 2
 649 406 648 403 647 403 c 0
 645 403 643 405 643 410 c 2
 581 948 l 2
 577 991 562 1006 548 1006 c 2
 426 1006 l 2
 411 1006 396 991 392 948 c 1
 325 412 l 2
 325 408 323 405 321 405 c 1
 321 405 319 408 318 413 c 2
 260 946 l 2
 256 990 243 1006 227 1006 c 2
 79 1006 l 2
 68 1006 61 989 61 961 c 0
 61 955 61 948 62 942 c 2
 192 52 l 1
 197 9 212 0 227 0 c 2
EndSplineSet
EndChar

StartChar: x
Encoding: 88 120 150
Width: 738
VWidth: 0
Flags: HW
PickledData: "(dp1
S'com.typemytype.robofont.layerData'
p2
(dp3
S'back'
p4
(dp5
S'name'
p6
S'x'
sS'lib'
p7
(dp8
sS'unicodes'
p9
(tsS'width'
p10
I738
sS'contours'
p11
(tsS'components'
p12
(tsS'anchors'
p13
(tsss."
LayerCount: 2
Fore
SplineSet
59 0 m 2
 232 0 l 2
 247 0 266 18 279 47 c 1
 355 234 l 1
 359 241 362 244 365 244 c 0
 369 244 373 240 375 233 c 2
 441 50 l 1
 453 20 471 0 487 0 c 2
 696 0 l 2
 702 0 706 13 706 27 c 0
 706 35 705 43 702 48 c 2
 491 550 l 2
 489 555 487 564 487 572 c 0
 487 581 489 589 492 595 c 2
 661 960 l 2
 664 966 665 973 665 981 c 0
 665 993 662 1006 656 1006 c 2
 497 1006 l 2
 481 1006 463 987 450 958 c 2
 384 808 l 2
 381 802 378 799 375 799 c 0
 372 799 367 802 364 809 c 2
 302 956 l 2
 289 987 272 1006 256 1006 c 2
 50 1006 l 2
 44 1006 40 993 40 979 c 0
 40 971 42 963 44 958 c 2
 240 494 l 1
 241 489 243 480 243 472 c 0
 243 463 241 455 239 449 c 2
 53 46 l 2
 51 40 51 33 51 26 c 0
 51 13 54 0 59 0 c 2
EndSplineSet
EndChar

StartChar: y
Encoding: 89 121 151
Width: 712
VWidth: 0
Flags: HW
PickledData: "(dp1
S'com.typemytype.robofont.layerData'
p2
(dp3
S'back'
p4
(dp5
S'name'
p6
S'y'
sS'lib'
p7
(dp8
sS'unicodes'
p9
(tsS'width'
p10
I712
sS'contours'
p11
((dp12
S'points'
p13
((dp14
S'segmentType'
p15
S'curve'
p16
sS'x'
F254
sS'smooth'
p17
I01
sS'y'
F-584
s(dp18
S'y'
F-584
sS'x'
F362
sg17
I00
s(dp19
S'y'
F-541
sS'x'
F401
sg17
I00
s(dp20
g15
S'curve'
p21
sS'x'
F442
sg17
I01
sS'y'
F-279
s(dp22
g15
S'line'
p23
sS'x'
F630
sg17
I01
sS'y'
F944
s(dp24
S'y'
F951
sS'x'
F631
sg17
I00
s(dp25
S'y'
F958
sS'x'
F631
sg17
I00
s(dp26
g15
S'curve'
p27
sS'x'
F631
sg17
I01
sS'y'
F965
s(dp28
S'y'
F991
sS'x'
F631
sg17
I00
s(dp29
S'y'
F1006
sS'x'
F625
sg17
I00
s(dp30
g15
S'curve'
p31
sS'x'
F615
sg17
I01
sS'y'
F1006
s(dp32
g15
S'line'
p33
sS'x'
F485
sg17
I01
sS'y'
F1006
s(dp34
S'y'
F1006
sS'x'
F469
sg17
I00
s(dp35
S'y'
F993
sS'x'
F455
sg17
I00
s(dp36
g15
S'curve'
p37
sS'x'
F450
sg17
I01
sS'y'
F950
s(dp38
g15
S'line'
p39
sS'x'
F386
sg17
I00
sS'y'
F362
s(dp40
S'y'
F355
sS'x'
F386
sg17
I00
s(dp41
S'y'
F351
sS'x'
F384
sg17
I00
s(dp42
g15
S'curve'
p43
sS'x'
F382
sg17
I01
sS'y'
F351
s(dp44
S'y'
F351
sS'x'
F380
sg17
I00
s(dp45
S'y'
F354
sS'x'
F378
sg17
I00
s(dp46
g15
S'curve'
p47
sS'x'
F377
sg17
I01
sS'y'
F360
s(dp48
g15
S'line'
p49
sS'x'
F290
sg17
I01
sS'y'
F953
s(dp50
S'y'
F995
sS'x'
F283
sg17
I00
s(dp51
S'y'
F1006
sS'x'
F267
sg17
I00
s(dp52
g15
S'curve'
p53
sS'x'
F251
sg17
I01
sS'y'
F1006
s(dp54
g15
S'line'
p55
sS'x'
F75
sg17
I01
sS'y'
F1006
s(dp56
S'y'
F1006
sS'x'
F67
sg17
I00
s(dp57
S'y'
F993
sS'x'
F60
sg17
I00
s(dp58
g15
S'curve'
p59
sS'x'
F60
sg17
I01
sS'y'
F970
s(dp60
S'y'
F963
sS'x'
F60
sg17
I00
s(dp61
S'y'
F955
sS'x'
F61
sg17
I00
s(dp62
g15
S'curve'
p63
sS'x'
F62
sg17
I00
sS'y'
F948
s(dp64
g15
S'line'
p65
sS'x'
F281
sg17
I01
sS'y'
F-135
s(dp66
S'y'
F-174
sS'x'
F288
sg17
I00
s(dp67
S'y'
F-237
sS'x'
F302
sg17
I00
s(dp68
g15
S'curve'
p69
sS'x'
F302
sg17
I01
sS'y'
F-268
s(dp70
S'y'
F-378
sS'x'
F302
sg17
I00
s(dp71
S'y'
F-387
sS'x'
F267
sg17
I00
s(dp72
g15
S'curve'
p73
sS'x'
F249
sg17
I01
sS'y'
F-387
s(dp74
g15
S'line'
p75
sS'x'
F241
sg17
I01
sS'y'
F-387
s(dp76
S'y'
F-387
sS'x'
F231
sg17
I00
s(dp77
S'y'
F-378
sS'x'
F197
sg17
I00
s(dp78
g15
S'curve'
p79
sS'x'
F179
sg17
I01
sS'y'
F-361
s(dp80
S'y'
F-359
sS'x'
F177
sg17
I00
s(dp81
S'y'
F-357
sS'x'
F175
sg17
I00
s(dp82
g15
S'curve'
p83
sS'x'
F172
sg17
I01
sS'y'
F-357
s(dp84
S'y'
F-357
sS'x'
F164
sg17
I00
s(dp85
S'y'
F-369
sS'x'
F155
sg17
I00
s(dp86
g15
S'curve'
p87
sS'x'
F151
sg17
I01
sS'y'
F-392
s(dp88
g15
S'line'
p89
sS'x'
F141
sg17
I01
sS'y'
F-421
s(dp90
S'y'
F-433
sS'x'
F139
sg17
I00
s(dp91
S'y'
F-445
sS'x'
F138
sg17
I00
s(dp92
g15
S'curve'
p93
sS'x'
F138
sg17
I01
sS'y'
F-457
s(dp94
S'y'
F-486
sS'x'
F138
sg17
I00
s(dp95
S'y'
F-511
sS'x'
F142
sg17
I00
s(dp96
g15
S'curve'
p97
sS'x'
F149
sg17
I01
sS'y'
F-522
s(dp98
S'y'
F-566
sS'x'
F177
sg17
I00
s(dp99
S'y'
F-584
sS'x'
F214
sg17
I00
stp100
stp101
sS'components'
p102
(tsS'anchors'
p103
(tsss."
LayerCount: 2
Fore
SplineSet
263 -271 m 0
 371 -271 431 -239 478 22 c 1
 655 944 l 2
 656 951 658 961 658 968 c 0
 658 994 650 1006 640 1006 c 2
 527 1006 l 2
 511 1006 497 1003 492 960 c 2
 411 334 l 2
 411 327 409 323 407 323 c 0
 405 323 403 330 402 336 c 2
 292 963 l 2
 285 1005 269 1006 253 1006 c 2
 85 1006 l 2
 77 1006 70 993 70 970 c 0
 70 963 71 955 72 948 c 2
 268 146 l 1
 275 107 289 64 289 33 c 0
 289 -77 254 -87 236 -87 c 0
 226 -87 155 -64 152 -64 c 0
 144 -64 125 -66 125 -157 c 0
 125 -186 127 -212 136 -223 c 0
 168 -261 223 -271 263 -271 c 0
EndSplineSet
EndChar

StartChar: yen
Encoding: 100 165 152
Width: 800
VWidth: 0
Flags: HW
PickledData: "(dp1
S'com.typemytype.robofont.layerData'
p2
(dp3
s."
LayerCount: 2
Fore
SplineSet
535 50 m 2
 535 296 l 1
 703 296 l 2
 717 296 729 300 729 343 c 2
 729 444 l 2
 729 487 717 491 703 491 c 2
 550 491 l 1
 570 573 l 1
 710 573 l 2
 724 573 736 577 736 620 c 2
 736 721 l 2
 736 764 724 768 710 768 c 2
 619 768 l 1
 771 1376 l 2
 772 1383 774 1391 774 1399 c 0
 774 1419 768 1438 760 1438 c 2
 599 1438 l 2
 584 1438 565 1413 558 1375 c 2
 432 768 l 1
 412 768 l 1
 283 1376 l 1
 276 1415 257 1438 240 1438 c 2
 42 1438 l 2
 34 1438 29 1419 29 1400 c 0
 29 1392 30 1384 32 1377 c 2
 187 768 l 1
 99 768 l 2
 84 768 72 764 72 721 c 2
 72 620 l 2
 72 577 84 573 99 573 c 2
 237 573 l 1
 257 491 l 1
 99 491 l 2
 84 491 72 487 72 444 c 2
 72 343 l 2
 72 300 84 296 99 296 c 2
 273 296 l 1
 273 50 l 2
 273 7 284 0 299 0 c 2
 508 0 l 2
 522 0 535 7 535 50 c 2
EndSplineSet
EndChar

StartChar: z
Encoding: 90 122 153
Width: 631
VWidth: 0
Flags: HW
PickledData: "(dp1
S'com.typemytype.robofont.layerData'
p2
(dp3
S'back'
p4
(dp5
S'name'
p6
S'z'
sS'lib'
p7
(dp8
sS'unicodes'
p9
(tsS'width'
p10
I631
sS'contours'
p11
(tsS'components'
p12
(tsS'anchors'
p13
(tsss."
LayerCount: 2
Fore
SplineSet
102 0 m 2
 553 0 l 2
 559 0 566 10 566 30 c 2
 566 167 l 2
 566 187 559 200 553 198 c 1
 336 198 l 1
 546 737 l 2
 552 752 556 766 556 789 c 2
 556 975 l 2
 556 995 550 1006 544 1006 c 2
 102 1006 l 2
 96 1006 90 995 90 975 c 2
 90 834 l 2
 90 814 96 804 102 806 c 1
 321 806 l 1
 98 247 l 2
 92 233 88 216 88 193 c 2
 88 30 l 2
 88 10 95 0 102 0 c 2
EndSplineSet
EndChar

StartChar: zero
Encoding: 16 48 154
Width: 947
VWidth: 0
Flags: HW
PickledData: "(dp1
S'com.typemytype.robofont.layerData'
p2
(dp3
S'back'
p4
(dp5
S'name'
p6
S'zero'
p7
sS'lib'
p8
(dp9
sS'unicodes'
p10
(tsS'width'
p11
I947
sS'contours'
p12
(tsS'components'
p13
(tsS'anchors'
p14
(tsss."
LayerCount: 2
Fore
SplineSet
470 1460 m 0
 288 1460 111 1368 111 719 c 0
 111 117 289 -20 471 -20 c 0
 652 -20 834 117 834 719 c 0
 834 1368 651 1460 470 1460 c 0
469 1245 m 0
 565 1245 587 1082 587 719 c 0
 587 356 568 196 472 196 c 0
 375 196 357 356 357 719 c 0
 357 1082 372 1245 469 1245 c 0
EndSplineSet
EndChar

StartChar: dblgravecmb
Encoding: 414 783 365
Width: 599
VWidth: 0
Flags: HW
LayerCount: 2
Fore
SplineSet
261 1171 m 0
 248 1171 243 1171 223 1171 c 0
 211 1171 208 1193 204 1210 c 2
 128 1557 l 2
 126 1569 123 1583 123 1594 c 0
 123 1610 127 1622 134 1622 c 2
 228 1622 l 2
 243 1622 250 1610 253 1567 c 2
 274 1238 l 2
 275 1224 275 1212 275 1203 c 0
 275 1176 271 1171 261 1171 c 0
438 1171 m 0
 425 1171 420 1171 401 1171 c 0
 387 1171 385 1193 382 1210 c 2
 305 1557 l 2
 303 1569 301 1583 301 1594 c 0
 301 1610 304 1622 310 1622 c 2
 405 1622 l 2
 420 1622 428 1610 431 1567 c 2
 451 1238 l 2
 452 1224 453 1212 453 1203 c 0
 453 1176 448 1171 438 1171 c 0
EndSplineSet
EndChar

StartChar: quotesingle
Encoding: 7 39 378
Width: 355
VWidth: 0
Flags: HW
LayerCount: 2
Fore
SplineSet
162.599609375 674 m 2
 193.599609375 674 l 2
 208.599609375 674 216.599609375 709 219.599609375 751 c 2
 265.599609375 1459 l 2
 265.75778588 1462.40079486 265.834648013 1465.74529515 265.834648013 1469.02113355 c 0
 265.834648013 1507.16533281 255.413285587 1536 241.599609375 1536 c 2
 114.599609375 1536 l 2
 101.068817763 1536 89.1654245648 1508.33422695 89.1654245648 1471.35267153 c 0
 89.1654245648 1467.33711849 89.3057676975 1463.21173071 89.599609375 1459 c 2
 135.599609375 751 l 2
 137.599609375 709 147.599609375 674 162.599609375 674 c 2
EndSplineSet
EndChar

StartChar: Dcroat
Encoding: 203 272 379
Width: 963
VWidth: 0
Flags: HW
LayerCount: 2
Fore
SplineSet
397 212 m 0
 390 212 384 217 384 237 c 2
 384 654.200195312 l 1
 483.196289062 654.200195312 l 2
 511.387695312 654.200195312 524.5 671.770507812 524.5 699.751953125 c 2
 524.5 739.448242188 l 2
 524.5 767.4296875 511.387695312 785 483.196289062 785 c 2
 384 785 l 1
 384 1199 l 2
 384 1219 390 1226 397 1226 c 0
 419 1226 458 1226 480 1226 c 0
 546 1226 615 1163 615 729 c 0
 615 289 560 212 469 212 c 0
 454.333333333 212 438.777777778 211.555555556 422.333333333 211.555555556 c 0
 414.111111111 211.555555556 405.666666667 211.666666667 397 212 c 0
149 0 m 0
 468 0 472 0 483 0 c 0
 722 0 877 18 877 733 c 0
 877 1262 741 1438 524 1438 c 2
 149 1438 l 2
 134 1438 122 1434 122 1391 c 2
 122 785 l 1
 40.6494140625 785 l 2
 12.45703125 785 0 767.4296875 0 739.448242188 c 2
 0 699.751953125 l 2
 0 671.770507812 12.45703125 654.200195312 40.6494140625 654.200195312 c 2
 122 654.200195312 l 1
 122 47 l 2
 122 4 134 0 149 0 c 0
EndSplineSet
EndChar

StartChar: dcroat
Encoding: 204 273 380
Width: 844
VWidth: 0
Flags: HW
LayerCount: 2
Fore
SplineSet
410 165 m 0
 345 165 306 210 306 514 c 0
 306 779 345 842 409 842 c 0
 476 842 509 762 509 514 c 0
 509 236 476 165 410 165 c 0
354 -10 m 0
 443 -10 542 11 579 200 c 1
 582 207 584 210 587 210 c 0
 590 210 593 206 594 197 c 1
 625 64 l 1
 633 25 649 0 666 0 c 2
 709 0 l 2
 724 0 736 24 736 67 c 2
 736 1164.20019531 l 1
 802.196289062 1164.20019531 l 2
 830.387695312 1164.20019531 843.5 1181.77050781 843.5 1209.75195312 c 2
 843.5 1249.44824219 l 2
 843.5 1277.4296875 830.387695312 1295 802.196289062 1295 c 2
 736 1295 l 1
 736 1366 l 2
 736 1409 724 1423 709 1423 c 2
 536 1423 l 2
 521 1423 510 1409 510 1366 c 2
 510 1295 l 1
 359.649414062 1295 l 2
 331.45703125 1295 319 1277.4296875 319 1249.44824219 c 2
 319 1209.75195312 l 2
 319 1181.77050781 331.45703125 1164.20019531 359.649414062 1164.20019531 c 2
 510 1164.20019531 l 1
 510 911 l 2
 510 901 507 897 504 897 c 0
 501 897 497 901 494 906 c 0
 459 987 411 1017 341 1017 c 0
 223 1017 80 915 80 498 c 0
 80 83 226 -10 354 -10 c 0
EndSplineSet
EndChar

StartChar: Hbar
Encoding: 223 294 382
Width: 999
VWidth: 0
Flags: HW
LayerCount: 2
Fore
SplineSet
384 1164.20019531 m 1
 615 1164.20019531 l 1
 615 901 l 2
 615 881 609 874 602 874 c 2
 397 874 l 2
 390 874 384 881 384 901 c 2
 384 1164.20019531 l 1
149 0 m 2
 360 0 l 2
 375 0 386 4 386 47 c 2
 386 646 l 2
 386 666 392 669 399 669 c 2
 601 669 l 2
 608 669 614 666 614 646 c 2
 614 47 l 2
 614 4 626 0 641 0 c 2
 851 0 l 2
 866 0 877 4 877 47 c 2
 877 1164.20019531 l 1
 937.696289062 1164.20019531 l 2
 965.887695312 1164.20019531 979 1181.77050781 979 1209.75195312 c 2
 979 1249.44824219 l 2
 979 1277.4296875 965.887695312 1295 937.696289062 1295 c 2
 877 1295 l 1
 877 1391 l 2
 877 1434 866 1438 851 1438 c 2
 641 1438 l 2
 626 1438 615 1434 615 1391 c 2
 615 1295 l 1
 384 1295 l 1
 384 1391 l 2
 384 1434 373 1438 358 1438 c 2
 149 1438 l 2
 134 1438 122 1434 122 1391 c 2
 122 1295 l 1
 60.6494140625 1295 l 2
 32.45703125 1295 20 1277.4296875 20 1249.44824219 c 2
 20 1209.75195312 l 2
 20 1181.77050781 32.45703125 1164.20019531 60.6494140625 1164.20019531 c 2
 122 1164.20019531 l 1
 122 47 l 2
 122 4 134 0 149 0 c 2
EndSplineSet
EndChar

StartChar: hbar
Encoding: 224 295 383
Width: 864
VWidth: 0
Flags: HW
LayerCount: 2
Fore
SplineSet
136 0 m 2
 315 0 l 2
 329 0 341 4 341 47 c 2
 341 574 l 2
 341 757 383 841 450 841 c 0
 514 841 538 765 538 574 c 2
 538 47 l 2
 538 4 549 0 564 0 c 2
 744 0 l 2
 759 0 770 4 770 47 c 2
 770 561 l 2
 770 913 666 1017 544 1017 c 0
 485 1017 400 985 355 896 c 0
 353 892 350 889 348 889 c 0
 344 889 341 894 341 909 c 2
 341 1164.20019531 l 1
 483.5 1164.20019531 l 2
 511.69140625 1164.20019531 524.803710938 1181.77050781 524.803710938 1209.75195312 c 2
 524.803710938 1249.44824219 l 2
 524.803710938 1277.4296875 511.69140625 1295 483.5 1295 c 2
 341 1295 l 1
 341 1385 l 2
 341 1428 329 1436 315 1436 c 2
 136 1436 l 2
 121 1436 109 1428 109 1385 c 2
 109 1295 l 1
 40.953125 1295 l 2
 12.7607421875 1295 0.3037109375 1277.4296875 0.3037109375 1249.44824219 c 2
 0.3037109375 1209.75195312 l 2
 0.3037109375 1181.77050781 12.7607421875 1164.20019531 40.953125 1164.20019531 c 2
 109 1164.20019531 l 1
 109 47 l 2
 109 4 121 0 136 0 c 2
EndSplineSet
EndChar

StartChar: kgreenlandic
Encoding: 241 312 384
Width: 746
VWidth: 0
Flags: HW
LayerCount: 2
Fore
SplineSet
136 0 m 2
 291 0 l 2
 305 0 317 14 317 57 c 2
 317 277 l 2
 317 300 320 323 326 338 c 2
 354 416 l 1
 355 422 359 425 362 425 c 0
 366 425 368 421 371 413 c 2
 475 37 l 1
 486 2 494 0 509 0 c 2
 704 0 l 2
 710 0 715 16 715 32 c 0
 715 40 713 48 711 54 c 2
 535 541 l 2
 532 547 532 555 532 563 c 0
 532 573 533 583 536 589 c 2
 694 961 l 2
 697 966 698 973 698 981 c 0
 698 994 695 1006 690 1006 c 2
 495 1006 l 2
 479 1006 462 988 451 960 c 2
 327 660 l 2
 326 658 324 656 324 656 c 1
 320 656 317 664 317 675 c 2
 317 949 l 2
 317 992 305 1006 291 1006 c 2
 136 1006 l 2
 121 1006 109 992 109 949 c 2
 109 57 l 2
 109 14 121 0 136 0 c 2
EndSplineSet
EndChar

StartChar: oe
Encoding: 265 339 387
Width: 1110
VWidth: 0
Flags: HW
LayerCount: 2
Fore
SplineSet
601.11328125 128.676757812 m 1
 649.533203125 24.4482421875 728.748046875 -10.4033203125 817.595703125 -10.4033203125 c 0
 972.844726562 -10.4033203125 1040.99707031 98.7275390625 1040.99707031 234 c 0
 1040.99707031 265 1036.99707031 287 1034.99707031 297 c 0
 1032.99707031 307 1026.99707031 314 1010.99707031 314 c 2
 925.997070312 314 l 2
 912.997070312 314 904.997070312 308 902.997070312 290 c 0
 896.997070312 237 887.997070312 165 815.997070312 165 c 0
 759.997070312 165 705.997070312 199 705.997070312 421 c 0
 705.997070312 437 708.997070312 455 714.997070312 455 c 2
 1034.99707031 455 l 2
 1048.50878906 455 1047.99707031 499.913085938 1047.99707031 520 c 0
 1047.99707031 936 917.997070312 1018 796.997070312 1018 c 0
 722.653320312 1018 648.916992188 970.713867188 597.6640625 878.859375 c 1
 541.05859375 983.198242188 457.959960938 1017 387.997070312 1017 c 0
 268.997070312 1017 81.9970703125 1005 81.9970703125 507 c 0
 81.9970703125 -1 264.997070312 -10 396.997070312 -10 c 0
 474.391601562 -10 545.912109375 25.4375 601.11328125 128.676757812 c 1
710.997070312 590 m 2
 705.997070312 590 705.997070312 618 705.997070312 632 c 0
 707.997070312 763 746.997070312 843 794.997070312 843 c 0
 842.997070312 843 875.997070312 759 878.997070312 627 c 0
 878.997070312 614 878.997070312 590 874.997070312 590 c 2
 710.997070312 590 l 2
387.997070312 165 m 0
 321.997070312 165 285.997070312 209 285.997070312 508 c 0
 285.997070312 782 320.997070312 842 387.997070312 842 c 0
 454.997070312 842 488.997070312 782 488.997070312 508 c 0
 488.997070312 209 452.997070312 165 387.997070312 165 c 0
EndSplineSet
EndChar

StartChar: eth
Encoding: 171 240 388
Width: 842
VWidth: 0
Flags: HW
LayerCount: 2
Back
SplineSet
475 164 m 4
 565 164 584 251 584 506 c 6
 584 707 l 5
 544 733 486 748 453 748 c 4
 385 748 347 614 347 469 c 4
 347 242 387 164 475 164 c 4
807 630 m 4
 807 100 691 -21 481 -21 c 4
 297 -21 131 58 131 449 c 4
 131 730 212 936 436 936 c 4
 482 936 541 911 584 892 c 5
 584 1161.0538852 324.400390625 1190 207 1190 c 4
 198 1190 181 1202.93554688 181 1234 c 6
 181 1309 l 22
 181 1354.8671875 193.016601562 1372.36328125 211 1372 c 4
 454.959960938 1367.06835938 807 1311.48925781 807 630 c 4
EndSplineSet
Fore
SplineSet
390.01635026 920.06236072 m 0
 448.547918017 920.06236072 478.98481585 909.398847259 535 882 c 1
 535 983.705429037 500.336511709 1049.67355958 466.749120335 1103.87960731 c 1
 386.203125 1025.671875 l 1
 378.217002351 1020.48521956 371.093914192 1018.21306435 364.419081662 1018.21306435 c 0
 350.065773454 1018.21306435 337.785225275 1028.71964181 323.453125 1043.34570312 c 2
 302.806640625 1064.41601562 l 1
 296.14506986 1074.67374365 292.964426733 1083.74805693 292.964426733 1092.34343603 c 0
 292.964426733 1104.82998527 299.676701714 1116.30581504 312.180664062 1128.93066406 c 2
 359.534030501 1176.74211077 l 1
 296.014507831 1203.79511849 230.198242188 1214.17089844 158 1216 c 0
 149.002929688 1216.22753906 132 1228.93554688 132 1260 c 2
 132 1309 l 2
 132 1354.40234375 143.774414062 1372.00585938 161.455078125 1372.00585938 c 0
 261.404605729 1372.00585938 379.36599102 1361.31331936 483.894079849 1302.30517669 c 1
 566.778320312 1385.99121094 l 2
 573.952196158 1393.5553402 581.84575472 1396.832151 589.778194129 1396.832151 c 0
 604.673232755 1396.832151 619.705361283 1385.27845045 630.3671875 1368.86132812 c 1
 656.012695312 1342.79101562 l 2
 664.184965293 1334.48332509 667.715307424 1325.96670066 667.715307424 1317.43212994 c 0
 667.715307424 1303.9949147 658.964019351 1290.51321281 645.799804688 1277.73242188 c 2
 587.356218086 1220.98546187 l 1
 687.340687141 1114.25259868 758 933.742417863 758 630 c 0
 758 93.7646484375 645.640625 -21.2158203125 417.96484375 -21.2158203125 c 0
 240.068359375 -21.2158203125 82 71.6015625 82 449 c 0
 82 756.434860469 207.472014426 920.06236072 390.01635026 920.06236072 c 0
426 146 m 0
 503.212890625 146 549.915988373 206.87539016 549.915988373 415.113833179 c 0
 549.915988373 436.021699629 549.954014371 457.968784691 549.954014371 480.488499915 c 0
 549.954014371 561.123967094 549.466477974 649.101202067 545 723 c 1
 503.66015625 742.153320312 458.600585938 753.485351562 429.166992188 753.485351562 c 0
 334.454101562 753.485351562 298 645.864257812 298 469 c 0
 298 242 338 146 426 146 c 0
EndSplineSet
EndChar

StartChar: florin
Encoding: 304 402 389
Width: 588
VWidth: 0
Flags: HW
LayerCount: 2
Fore
SplineSet
470 1475 m 0
 346 1475 222 1401 194 1074 c 0
 192 1052 191 1006 184 1006 c 2
 112 1006 l 2
 97 1006 88 988 83 945 c 2
 75 866 l 2
 70 823 77 814 92 814 c 2
 164 814 l 2
 171 814 168 797 167 777 c 2
 124 174 l 2
 114 37 70 1 17 1 c 2
 -4 1 l 2
 -16 1 -18 -13 -22 -50 c 2
 -29 -113 l 2
 -29 -116 -29 -119 -29 -121 c 0
 -29 -173 0 -165 66 -165 c 0
 190 -165 329 -45 348 236 c 2
 384 777 l 2
 385 797 390 814 396 814 c 2
 492 814 l 2
 507 814 516 823 521 866 c 2
 529 951 l 2
 530 960 531 968 531 975 c 0
 531 999 524 1006 512 1006 c 2
 401 1006 l 1
 401 1006 400 1009 400 1012 c 2
 412 1133 l 2
 425 1260 466 1306 519 1306 c 2
 550 1306 l 2
 562 1306 565 1320 568 1357 c 2
 575 1438 l 2
 576 1454 538 1475 470 1475 c 0
EndSplineSet
EndChar

StartChar: integral
Encoding: 403 8747 390
Width: 588
VWidth: 0
Flags: HW
LayerCount: 2
Fore
SplineSet
470 1475 m 0
 346 1475 219.44921875 1401.20800781 194 1074 c 2
 124 174 l 2
 114 37 70 1 17 1 c 2
 -4 1 l 2
 -16 1 -18 -13 -22 -50 c 2
 -29 -113 l 1
 -29 -121 l 2
 -29 -160.764705882 -12.0415224913 -165.442906574 25.452880114 -165.442906574 c 0
 36.9896193772 -165.442906574 50.4705882353 -165 66 -165 c 0
 190 -165 327.956122595 -44.9274692489 348 236 c 2
 412 1133 l 2
 421.0859375 1260.33984375 466 1306 519 1306 c 2
 550 1306 l 2
 562 1306 565 1320 568 1357 c 2
 575 1438 l 2
 576 1454 538 1475 470 1475 c 0
EndSplineSet
EndChar

StartChar: guilsinglleft
Encoding: 393 8249 392
Width: 576
VWidth: 0
Flags: H
LayerCount: 2
Fore
SplineSet
419 200 m 0
 426 200 434 219 434 246 c 2
 434 406 l 2
 434 452 425 496 410 516 c 2
 238 674 l 2
 234.875976562 676.869140625 234 684 234 690 c 0
 234 696 233.6796875 703.005859375 237 706 c 2
 410 862 l 2
 424 881 434 925 434 971 c 2
 434 1114 l 2
 434 1141 426 1160 418 1160 c 0
 416 1160 414.560546875 1158.50976562 411 1155 c 2
 134 882 l 2
 114.986328125 864.153320312 111 816 111 769 c 2
 111 605 l 2
 111 558 114.791015625 509.666992188 133 491 c 2
 411 206 l 2
 414 202 417 200 419 200 c 0
EndSplineSet
EndChar

StartChar: guilsinglright
Encoding: 394 8250 393
Width: 576
VWidth: 0
Flags: HW
LayerCount: 2
Fore
SplineSet
126 1160 m 0
 119 1160 111 1141 111 1114 c 2
 111 954 l 2
 111 908 120 864 135 844 c 2
 307 686 l 2
 310.124023438 683.130859375 311 676 311 670 c 0
 311 664 311.3203125 656.994140625 308 654 c 2
 135 498 l 2
 121 479 111 435 111 389 c 2
 111 246 l 2
 111 219 119 200 127 200 c 0
 129 200 130.439453125 201.490234375 134 205 c 2
 411 478 l 2
 430.013671875 495.846679688 434 544 434 591 c 2
 434 755 l 2
 434 802 430.208984375 850.333007812 412 869 c 2
 134 1154 l 2
 131 1158 128 1160 126 1160 c 0
EndSplineSet
EndChar

StartChar: notequal
Encoding: 405 8800 394
Width: 583
VWidth: 0
Flags: HW
LayerCount: 2
Fore
SplineSet
51 610 m 2
 533 610 l 2
 547 610 559 614 559 657 c 2
 559 718 l 2
 559 761 547 765 533 765 c 2
 51 765 l 2
 36 765 24 761 24 718 c 2
 24 657 l 2
 24 614 36 610 51 610 c 2
51 323 m 2
 533 323 l 2
 547 323 559 327 559 370 c 2
 559 431 l 2
 559 474 547 478 533 478 c 2
 51 478 l 2
 36 478 24 474 24 431 c 2
 24 370 l 2
 24 327 36 323 51 323 c 2
185.78125 -228.5 m 2
 192.78125 -228.5 198.3984375 -214.255859375 202.78125 -193.5 c 2
 487.78125 1347.5 l 2
 488.418945312 1350.9453125 488.669921875 1354.44140625 488.669921875 1357.81445312 c 0
 488.669921875 1371.06445312 484.361328125 1382.5 478.78125 1382.5 c 2
 367.78125 1382.5 l 2
 359.78125 1382.5 353.63671875 1368.359375 349.78125 1347.5 c 2
 64.78125 -194.5 l 2
 64.234375 -197.090820312 64.330078125 -199.7890625 64.330078125 -202.3984375 c 0
 64.330078125 -216.642578125 68.5556640625 -229.537109375 72.78125 -229.5 c 2
 185.78125 -228.5 l 2
EndSplineSet
EndChar

StartChar: endash
Encoding: 380 8211 395
Width: 1024
VWidth: 0
Flags: HW
LayerCount: 2
Fore
SplineSet
100 526 m 1
 100 718 l 1
 920 718 l 1
 920 526 l 1
 100 526 l 1
EndSplineSet
EndChar

StartChar: emdash
Encoding: 381 8212 396
Width: 2048
VWidth: 0
Flags: HW
LayerCount: 2
Fore
SplineSet
100 526 m 1
 100 718 l 1
 1944 718 l 1
 1944 526 l 1
 100 526 l 1
EndSplineSet
EndChar

StartChar: quotedblleft
Encoding: 385 8220 397
Width: 674
VWidth: 0
Flags: HW
LayerCount: 2
Fore
SplineSet
257 1474 m 0
 209 1451 88 1344 88 1107 c 2
 88 886 l 2
 88 843 100 829 114 829 c 2
 262 829 l 2
 277 829 283 843 283 886 c 2
 283 1072 l 2
 283 1110 276 1132 262 1132 c 2
 211 1132 l 2
 206 1132 205 1143 205 1159 c 0
 205 1223 224 1298 259 1333 c 0
 281 1355 283 1354 283 1408 c 2
 283 1429 l 2
 283 1459.85714286 272.714285714 1475.28571429 262.218658892 1475.28571429 c 0
 260.469387755 1475.28571429 258.714285714 1474.85714286 257 1474 c 0
549.5 1474 m 0
 501.5 1451 380.5 1344 380.5 1107 c 2
 380.5 886 l 2
 380.5 843 392.5 829 406.5 829 c 2
 554.5 829 l 2
 569.5 829 575.5 843 575.5 886 c 2
 575.5 1072 l 2
 575.5 1110 568.5 1132 554.5 1132 c 2
 503.5 1132 l 2
 498.5 1132 497.5 1143 497.5 1159 c 0
 497.5 1223 516.5 1298 551.5 1333 c 0
 573.5 1355 575.5 1354 575.5 1408 c 2
 575.5 1429 l 2
 575.5 1459.85742188 565.213867188 1475.28613281 554.71875 1475.28613281 c 0
 552.969726562 1475.28613281 551.213867188 1474.85742188 549.5 1474 c 0
EndSplineSet
EndChar

StartChar: quotedblright
Encoding: 386 8221 398
Width: 667
VWidth: 0
Flags: HW
LayerCount: 2
Fore
SplineSet
412.5 815 m 0
 460.5 838 581.5 945 581.5 1182 c 2
 581.5 1403 l 2
 581.5 1446 569.5 1460 555.5 1460 c 2
 407.5 1460 l 2
 392.5 1460 386.5 1446 386.5 1403 c 2
 386.5 1217 l 2
 386.5 1179 393.5 1157 407.5 1157 c 2
 458.5 1157 l 2
 463.5 1157 464.5 1146 464.5 1130 c 0
 464.5 1066 445.5 991 410.5 956 c 0
 388.5 934 386.5 935 386.5 881 c 2
 386.5 860 l 2
 386.5 829.142578125 396.786132812 813.713867188 407.28125 813.713867188 c 0
 409.030273438 813.713867188 410.786132812 814.142578125 412.5 815 c 0
114 815 m 0
 162 838 283 945 283 1182 c 2
 283 1403 l 2
 283 1446 271 1460 257 1460 c 2
 109 1460 l 2
 94 1460 88 1446 88 1403 c 2
 88 1217 l 2
 88 1179 95 1157 109 1157 c 2
 160 1157 l 2
 165 1157 166 1146 166 1130 c 0
 166 1066 147 991 112 956 c 0
 90 934 88 935 88 881 c 2
 88 860 l 2
 88 829.142857143 98.2857142857 813.714285714 108.781341108 813.714285714 c 0
 110.530612245 813.714285714 112.285714286 814.142857143 114 815 c 0
EndSplineSet
EndChar

StartChar: quotesinglbase
Encoding: 384 8218 399
Width: 355
VWidth: 0
Flags: HW
LayerCount: 2
Fore
SplineSet
162.599609375 -411 m 6
 193.599609375 -411 l 6
 208.599609375 -411 216.599609375 -376 219.599609375 -334 c 6
 265.599609375 151 l 6
 265.920898438 154.391601562 265.834960938 157.745117188 265.834960938 161.021484375 c 4
 265.834960938 199.165039062 255.413085938 228 241.599609375 228 c 6
 114.599609375 228 l 6
 101.068359375 228 89.1650390625 200.333984375 89.1650390625 163.352539062 c 4
 89.1650390625 159.336914062 89.201171875 155.205078125 89.599609375 151 c 6
 135.599609375 -334 l 6
 137.599609375 -376 147.599609375 -411 162.599609375 -411 c 6
EndSplineSet
EndChar

StartChar: quotedblbase
Encoding: 387 8222 400
Width: 634
VWidth: 0
Flags: HW
LayerCount: 2
Fore
SplineSet
155.926757812 -411 m 2
 186.926757812 -411 l 2
 201.926757812 -411 209.926757812 -376 212.926757812 -334 c 2
 258.926757812 151 l 2
 259.248046875 154.391601562 259.162109375 157.745117188 259.162109375 161.021484375 c 0
 259.162109375 199.165039062 248.740234375 228 234.926757812 228 c 2
 107.926757812 228 l 2
 94.3955078125 228 82.4921875 200.333984375 82.4921875 163.352539062 c 0
 82.4921875 159.336914062 82.5283203125 155.205078125 82.9267578125 151 c 2
 128.926757812 -334 l 2
 130.926757812 -376 140.926757812 -411 155.926757812 -411 c 2
448.26171875 -411 m 2
 479.26171875 -411 l 2
 494.26171875 -411 502.26171875 -376 505.26171875 -334 c 2
 551.26171875 151 l 2
 551.583007812 154.391601562 551.497070312 157.745117188 551.497070312 161.021484375 c 0
 551.497070312 199.165039062 541.075195312 228 527.26171875 228 c 2
 400.26171875 228 l 2
 386.73046875 228 374.827148438 200.333984375 374.827148438 163.352539062 c 0
 374.827148438 159.336914062 374.86328125 155.205078125 375.26171875 151 c 2
 421.26171875 -334 l 2
 423.26171875 -376 433.26171875 -411 448.26171875 -411 c 2
EndSplineSet
EndChar

StartChar: Delta
Encoding: 412 916 401
Width: 866
VWidth: 0
Flags: HW
LayerCount: 2
Fore
SplineSet
351.5 456 m 2
 336.5 456 333.5 468 333.5 481 c 0
 333.5 484 333.5 487 334.5 490 c 2
 425.5 1157 l 2
 426.5 1163 428.5 1166 430.5 1166 c 0
 432.5 1166 433.5 1163 434.5 1156 c 2
 512.5 491 l 2
 513.5 488 513.5 484 513.5 481 c 0
 513.5 468 510.5 456 504.5 456 c 2
 351.5 456 l 2
77.5 250 m 1
 787.5 250 l 1
 797.5 250 804.5 252 804.5 277 c 0
 804.5 284 803.794921875 312.048828125 802.5 319 c 2
 602.5 1393 l 2
 595.625 1434.02246094 581.5 1438 565.5 1438 c 2
 297.5 1438 l 2
 281.5 1438 268.041015625 1433.90332031 260.5 1393 c 2
 62.5 319 l 1
 62.5 312 61.5 284 61.5 277 c 0
 61.5 252 68.5 250 77.5 250 c 1
EndSplineSet
EndChar

StartChar: lozenge
Encoding: 408 9674 404
Width: 866
VWidth: 0
Flags: HW
LayerCount: 2
Fore
SplineSet
784 557 m 1
 784 564 783.59375 592.111328125 782 599 c 2
 589 1433 l 2
 581.556640625 1474.10449219 568 1478 552 1478 c 2
 307 1478 l 2
 291 1478 277.36328125 1474.11914062 270 1433 c 2
 82 599 l 1
 82 592 82.30859375 564.424804688 84 557 c 2
 274 -277 l 2
 281.443359375 -318.104492188 295 -322 311 -322 c 2
 556 -322 l 2
 572 -322 585.63671875 -318.119140625 593 -277 c 2
 784 557 l 1
555 596 m 2
 434 -41 l 2
 433.086914062 -47.0146484375 431 -50 429 -50 c 0
 427 -50 425.995117188 -47.001953125 425 -40 c 2
 312 595 l 2
 432 1197 l 2
 432.946289062 1203.00878906 435 1206 437 1206 c 0
 439 1206 439.950195312 1202.99804688 441 1196 c 2
 555 596 l 2
EndSplineSet
EndChar

StartChar: dagger
Encoding: 388 8224 405
Width: 408
VWidth: 0
Flags: HW
LayerCount: 2
Fore
SplineSet
-216 1030 m 2
 -216 876 l 2
 -216 862 -211 850 -168 850 c 2
 110 850 l 1
 110 47 l 2
 110 4 122 0 137 0 c 2
 292 0 l 2
 306 0 318 4 318 47 c 2
 318 850 l 1
 566 850 l 2
 609 850 624 862 624 876 c 2
 624 1030 l 2
 624 1045 609 1058 566 1058 c 2
 318 1058 l 1
 318 1418 l 2
 318 1461 306 1475 292 1475 c 2
 137 1475 l 2
 122 1475 110 1461 110 1418 c 2
 110 1058 l 1
 -168 1058 l 2
 -211 1058 -216 1045 -216 1030 c 2
EndSplineSet
EndChar

StartChar: daggerdbl
Encoding: 389 8225 406
Width: 408
VWidth: 0
Flags: HW
LayerCount: 2
Fore
SplineSet
137 0 m 2
 292 0 l 2
 306 0 318 4 318 47 c 2
 318 330 l 1
 566 330 l 2
 609 330 624 342 624 356 c 2
 624 510 l 2
 624 525 609 538 566 538 c 2
 318 538 l 1
 318 906 l 1
 566 906 l 2
 609 906 624 918 624 932 c 2
 624 1086 l 2
 624 1101 609 1114 566 1114 c 2
 318 1114 l 1
 318 1418 l 2
 318 1461 306 1475 292 1475 c 2
 137 1475 l 2
 122 1475 110 1461 110 1418 c 2
 110 1114 l 1
 -168 1114 l 2
 -211 1114 -216 1101 -216 1086 c 2
 -216 932 l 2
 -216 918 -211 906 -168 906 c 2
 110 906 l 1
 110 538 l 1
 -168 538 l 2
 -211 538 -216 525 -216 510 c 2
 -216 356 l 2
 -216 342 -211 330 -168 330 c 2
 110 330 l 1
 110 47 l 2
 110 4 122 0 137 0 c 2
EndSplineSet
EndChar

StartChar: bullet
Encoding: 390 8226 407
Width: 1326
VWidth: 0
Flags: HW
LayerCount: 2
Fore
SplineSet
662 548 m 0
 383 548 278 753 278 931 c 0
 278 1118 383 1318 662 1318 c 0
 942 1318 1047 1118 1047 931 c 0
 1047 753 942 548 662 548 c 0
EndSplineSet
EndChar

StartChar: Euro
Encoding: 396 8364 408
Width: 747
VWidth: 0
Flags: HW
LayerCount: 2
Fore
SplineSet
700 1408 m 17
 669 1452.68347592 574.414574361 1460 529 1460 c 0
 322.347288712 1460 136.573604372 1398.90951374 94.7620143672 934 c 1
 36 934 l 2
 21 934 9 930 9 887 c 2
 9 826 l 2
 9 783 21 779 36 779 c 2
 86.5963002349 779 l 1
 86.2005733877 759.552122759 86 739.557153411 86 719 c 0
 86 694.186725923 86.274534646 670.195655097 86.8158979386 647 c 1
 36 647 l 2
 21 647 9 643 9 600 c 2
 9 539 l 2
 9 496 21 492 36 492 c 2
 95.3428069298 492 l 1
 137.027622327 37.7731945309 313.389557663 -20 527 -20 c 0
 591 -20 653 -10 690 5 c 1
 695.092216181 7.04910840648 699 18.808999614 699 33 c 2
 699 183 l 2
 699 197.42281618 695.067465787 209.325981549 690 211 c 1
 654 199 625 193 567 193 c 0
 453.222901678 193 380.467350082 232.068139739 356.614656518 492 c 1
 518 492 l 2
 532 492 544 496 544 539 c 2
 544 600 l 2
 544 643 532 647 518 647 c 2
 348.680085133 647 l 1
 348.227482544 669.852254167 348 693.834089181 348 719 c 0
 348 739.797832681 348.189285461 759.787640328 348.563265234 779 c 1
 518 779 l 2
 532 779 544 783 544 826 c 2
 544 887 l 2
 544 930 532 934 518 934 c 2
 357.012830087 934 l 1
 383.427762396 1201.25464271 465.854112734 1244 577 1244 c 0
 637 1244 689 1230 693 1230 c 0
 697 1230 700 1231 700 1246 c 2
 700 1408 l 17
EndSplineSet
EndChar

StartChar: product
Encoding: 399 8719 409
Width: 999
VWidth: 0
Flags: HW
LayerCount: 2
Fore
SplineSet
149 0 m 2
 360 0 l 2
 375 0 386 4 386 47 c 2
 386 1208 l 2
 386 1228 392 1231 399 1231 c 2
 601 1231 l 2
 608 1231 614 1228 614 1208 c 2
 614 47 l 2
 614 4 626 0 641 0 c 2
 851 0 l 2
 866 0 877 4 877 47 c 2
 877 1391 l 2
 877 1434 865.99951616 1438.12047804 851 1438 c 2
 149 1438 l 2
 134 1438 122 1434 122 1391 c 2
 122 47 l 2
 122 4 134 0 149 0 c 2
EndSplineSet
EndChar

StartChar: summation
Encoding: 400 8721 410
Width: 631
VWidth: 0
Flags: HWO
LayerCount: 2
Fore
SplineSet
102 0 m 2
 553 0 l 2
 559 0 566 10 566 30 c 2
 566 167 l 2
 566 187 559 200 553 198 c 1
 336 198 l 1
 530 650 l 5
 537.82421875 669.560546875 542.108398438 695.850585938 542.108398438 721.733398438 c 4
 542.108398438 746.1953125 538.28125 770.29296875 530 788 c 6
 336 1240 l 1
 553 1240 l 1
 559 1238 566 1251 566 1271 c 2
 566 1408 l 2
 566 1428 559 1438 553 1438 c 2
 102 1438 l 2
 95 1438 88 1428 88 1408 c 2
 88 1275 l 2
 88 1252 92 1235 98 1221 c 2
 321 722 l 1
 98 207 l 2
 91.5263671875 193.211914062 88 176 88 153 c 2
 88 30 l 2
 88 10 95 0 102 0 c 2
EndSplineSet
EndChar
